<svg width="87" height="87" viewBox="0 0 87 87" fill="none" xmlns="http://www.w3.org/2000/svg">
<rect x="-6.24416" y="43.4999" width="70.3489" height="70.3489" rx="15" transform="rotate(-45 -6.24416 43.4999)" fill="#007348" fill-opacity="0.15"/>
<path d="M25.0699 29.3469V35.327L26.0001 36.0246L26.8971 36.7555L26.9968 33.3668C27.0632 30.3768 27.1629 30.0113 27.6612 30.1775C27.9603 30.2771 30.8174 31.1077 34.0068 32.0379C37.1961 32.9681 40.0533 33.8652 40.3855 34.0645C41.3822 34.5961 41.6812 35.5263 41.6812 38.2505C41.6812 40.8087 41.7144 40.8419 42.7111 41.4067L43.741 42.0047L43.6081 35.925C43.5084 29.4466 43.3755 28.9482 41.7144 27.9515C41.0167 27.5529 26.0001 23.4 25.236 23.4C25.1363 23.4 25.0699 26.0911 25.0699 29.3469Z" fill="#007348"/>
<path d="M24.4054 41.1745V45.6595L25.5017 46.7891C26.432 47.819 27.1629 48.118 32.0466 49.4469C41.2493 51.9718 42.4785 52.3041 42.7443 52.3041C42.9104 52.3041 43.0101 50.4436 43.0101 48.1845C43.0101 44.4968 42.9436 43.9984 42.3124 43.2011C41.4154 42.0715 41.4818 42.0715 33.1429 39.8124C29.3223 38.7825 25.834 37.6529 25.3356 37.3207L24.4054 36.6562V41.1745Z" fill="#007348"/>
<path d="M62.578 37.221C62.279 37.52 58.5248 38.716 54.2723 39.8788C44.3055 42.6031 44.671 42.2708 44.671 48.1512C44.671 50.4436 44.7707 52.3041 44.9368 52.3041C45.8006 52.3041 60.7507 47.9851 61.4484 47.52C63.1428 46.4237 63.3089 45.7592 63.2092 41.0416C63.1095 36.9884 63.0763 36.6894 62.578 37.221Z" fill="#007348"/>
<path d="M24.4054 52.4368C24.4054 56.4235 24.4718 56.9551 25.1031 57.7524C25.4685 58.2175 26.0665 58.7491 26.3988 58.9484C26.8971 59.2142 42.4121 63.5996 42.8772 63.5996C43.2094 63.5996 42.9768 55.5929 42.6114 54.7956C42.0466 53.5331 41.3157 53.2341 33.5416 51.1411C29.6878 50.078 26.0665 48.9484 25.5017 48.6162L24.4054 48.0182V52.4368Z" fill="#007348"/>
<path d="M62.844 48.2174C62.5118 48.7489 60.6513 49.3802 53.4752 51.3403C46.5317 53.234 46.0998 53.4001 45.2692 54.43C44.7709 54.9948 44.6712 55.8586 44.6712 59.3802C44.6712 63.3004 44.7044 63.6327 45.2692 63.4665C45.5682 63.3669 49.1895 62.4034 53.3091 61.2739C57.4287 60.1443 61.1164 59.0147 61.5151 58.7489C63.1098 57.719 63.3091 57.0214 63.2094 52.2705C63.143 49.8121 63.0101 47.9848 62.844 48.2174Z" fill="#007348"/>
</svg>
