<svg width="20" height="18" viewBox="0 0 20 18" fill="none" xmlns="http://www.w3.org/2000/svg">
<path d="M3.99978 2.00089C3.99951 2.53129 3.78856 3.03987 3.41332 3.41473C3.03808 3.7896 2.52929 4.00004 1.99889 3.99978C1.46849 3.99951 0.959911 3.78856 0.585047 3.41332C0.210183 3.03808 -0.000264951 2.52929 2.50348e-07 1.99889C0.000265452 1.46849 0.211222 0.959911 0.586461 0.585047C0.961701 0.210183 1.47049 -0.000264951 2.00089 2.50348e-07C2.53129 0.000265452 3.03987 0.211222 3.41473 0.586461C3.7896 0.961701 4.00004 1.47049 3.99978 2.00089ZM4.05977 5.4807H0.0599969V18H4.05977V5.4807ZM10.3794 5.4807H6.39964V18H10.3394V11.4304C10.3394 7.77057 15.1092 7.43059 15.1092 11.4304V18H19.0589V10.0704C19.0589 3.90078 11.9993 4.13077 10.3394 7.1606L10.3794 5.4807Z" fill="#0274B3"/>
</svg>
