<svg width="280" height="154" viewBox="0 0 280 154" fill="none" xmlns="http://www.w3.org/2000/svg">
<path d="M42.7128 131.587C36.4951 136.224 34.7329 144.383 34.7329 144.383C34.7329 144.383 43.0516 145.024 49.2693 140.387C55.487 135.749 57.2491 127.59 57.2491 127.59C57.2491 127.59 48.9305 126.949 42.7128 131.587Z" fill="#F1F1F1"/>
<path d="M45.3028 133.764C42.3145 140.924 34.8304 144.614 34.8304 144.614C34.8304 144.614 32.1913 136.695 35.1796 129.535C38.1679 122.375 45.6519 118.685 45.6519 118.685C45.6519 118.685 48.291 126.604 45.3028 133.764Z" fill="#F1F1F1"/>
<path d="M224.191 113.065C223.531 108.613 223.356 104.102 223.671 99.6117L224.191 92.1804C221.323 97.8903 221.971 105.406 224.191 113.065V113.065Z" fill="#CACACA"/>
<path d="M226.427 114.309C226.109 111.652 226.025 108.972 226.177 106.3L226.427 101.877C225.047 105.276 225.359 109.749 226.427 114.309Z" fill="#CACACA"/>
<path d="M236.368 119.779V122.265C236.367 122.463 236.288 122.652 236.149 122.792C236.009 122.931 235.82 123.01 235.623 123.011H234.38C234.348 123.011 234.315 123.017 234.285 123.03C234.255 123.042 234.227 123.061 234.204 123.084C234.181 123.107 234.163 123.134 234.15 123.165C234.138 123.195 234.132 123.227 234.132 123.26V143.647C234.131 143.845 234.052 144.034 233.912 144.174C233.773 144.313 233.584 144.392 233.386 144.393H218.228C218.03 144.393 217.84 144.314 217.701 144.175C217.561 144.035 217.482 143.845 217.482 143.647V123.26C217.482 123.194 217.456 123.131 217.409 123.084C217.363 123.038 217.299 123.011 217.234 123.011H215.743C215.545 123.011 215.355 122.932 215.216 122.793C215.076 122.653 214.997 122.463 214.997 122.265V119.779C214.997 119.681 215.016 119.584 215.054 119.493C215.091 119.403 215.146 119.321 215.215 119.251C215.284 119.182 215.367 119.127 215.457 119.09C215.548 119.052 215.645 119.033 215.743 119.033H235.623C235.82 119.034 236.01 119.112 236.149 119.252C236.289 119.392 236.368 119.581 236.368 119.779Z" fill="#F2F2F2"/>
<path d="M234.154 123.533H217.504V124.279H234.154V123.533Z" fill="#E6E6E6"/>
<path d="M234.131 134.509C228.56 136.816 222.928 136.841 217.233 134.509V129.254C222.716 127.412 228.649 127.412 234.131 129.254V134.509Z" fill="#E6E6E6"/>
<path d="M140.808 54.1635C153.246 54.1635 163.328 44.076 163.328 31.6324C163.328 19.1887 153.246 9.1012 140.808 9.1012C128.371 9.1012 118.289 19.1887 118.289 31.6324C118.289 44.076 128.371 54.1635 140.808 54.1635Z" fill="#FEB8B8"/>
<path d="M161.842 12.1944C158.476 6.7243 153.205 2.6936 147.046 0.878186L144.281 2.8967V0.275718C142.802 0.0492098 141.305 -0.0380477 139.81 0.0150932L137.425 2.17435V0.194485C133.893 0.633557 130.491 1.79996 127.432 3.62015C124.374 5.44033 121.725 7.87481 119.654 10.7701C114.474 18.2412 113.6 28.6353 118.695 36.1664C120.093 31.8661 121.79 27.8312 123.189 23.5314C124.288 23.6813 125.403 23.6867 126.503 23.5475L128.205 19.5752L128.68 23.3794C133.954 22.9198 141.776 21.9104 146.776 20.9856L146.29 18.067L149.199 20.4922C150.73 20.1394 151.64 19.8193 151.565 19.5748C155.283 25.5725 159.834 29.4032 163.552 35.401C164.964 26.9438 166.59 19.9118 161.842 12.1944Z" fill="#2F2E41"/>
<path d="M189.242 89.5722C188.468 84.911 187.669 80.1603 185.504 75.9612C184.081 73.2108 181.822 70.5898 178.777 70.046C178.177 69.9925 177.588 69.8559 177.025 69.6403C176.133 69.2102 164.143 62.362 162.237 61.1692C160.601 60.1453 158.017 58.2493 156.715 58.2493C155.405 58.2205 150.38 59.3904 130.77 57.8567C130.77 57.8567 125.383 59.9812 121.215 62.5573C121.151 62.5157 100.861 73.4171 100.099 73.3884C98.655 73.3276 97.3132 74.2524 96.4856 75.417C95.6582 76.5815 95.2701 78.0232 94.8637 79.4171C99.2955 89.2916 103.35 99.1787 107.783 109.053C107.99 109.425 108.1 109.843 108.103 110.269C108.014 110.711 107.825 111.127 107.552 111.486C105.378 114.979 105.447 119.373 105.685 123.478C105.922 127.584 106.216 131.921 104.382 135.601C103.883 136.611 103.235 137.536 102.76 138.546C101.649 140.834 101.248 148.153 101.897 150.611L183.198 152.942C181.45 148.134 189.242 89.5722 189.242 89.5722Z" fill="#8982FF"/>
<path d="M87.8358 109.491C87.6735 110.665 87.6572 111.855 87.7871 113.033L88.9524 129.776C89.0618 131.354 89.1695 132.928 89.3175 134.502C89.5971 137.557 90.0148 140.588 90.5331 143.614C90.5448 144.044 90.7264 144.451 91.0381 144.747C91.3497 145.043 91.766 145.203 92.1955 145.192C97.3249 146.278 102.625 146.235 107.86 145.939C115.848 145.493 136.285 144.649 137.533 143.026C138.782 141.403 138.054 138.778 136.426 137.466C134.798 136.154 107.829 132.955 107.829 132.955C108.092 130.865 108.887 128.898 109.641 126.914C110.996 123.396 112.261 119.762 112.285 115.993C112.31 112.224 110.89 108.261 107.804 106.102C105.266 104.329 101.998 104 98.9043 104.073C96.6537 104.138 92.765 103.598 90.7094 104.479C89.0826 105.195 88.1397 107.897 87.8358 109.491Z" fill="#FBBEBE"/>
<path d="M94.6289 79.7174C94.2339 80.1311 93.9277 80.6213 93.7289 81.1577C90.4512 88.5484 88.5153 96.464 88.0116 104.534C88.0204 104.927 87.9298 105.317 87.7481 105.666C87.5689 105.898 87.3694 106.114 87.152 106.311C86.9625 106.536 86.819 106.795 86.7299 107.076C86.6408 107.356 86.6077 107.651 86.6326 107.944C86.6574 108.237 86.7397 108.523 86.8748 108.784C87.0098 109.045 87.195 109.277 87.4197 109.467C87.4565 109.498 87.4944 109.528 87.5332 109.556C88.2022 108.297 89.8037 107.885 91.2273 107.775C98.0434 107.236 104.702 110.409 111.538 110.169C111.056 108.502 110.362 106.899 109.969 105.212C108.229 97.7185 112.568 89.5601 109.908 82.3427C109.376 80.8984 108.489 79.4784 107.09 78.8456C106.511 78.6118 105.904 78.4513 105.285 78.3678C103.558 78.0554 100.119 76.7206 98.4489 77.2562C97.8325 77.4552 97.5893 78.035 97.0783 78.3856C96.3021 78.8816 95.2723 79.0641 94.6289 79.7174Z" fill="#8982FF"/>
<path d="M189.291 104.479C187.235 103.598 183.346 104.138 181.096 104.073C178.002 104 174.734 104.329 172.196 106.102C169.11 108.261 167.691 112.224 167.715 115.993C167.739 119.762 169.004 123.395 170.359 126.914C171.113 128.898 171.908 130.865 172.171 132.955C172.171 132.955 145.202 136.154 143.574 137.466C141.946 138.778 141.218 141.403 142.467 143.026C143.715 144.649 182.675 146.278 187.805 145.192C188.234 145.203 188.65 145.043 188.962 144.747C189.274 144.451 189.455 144.044 189.467 143.614C189.985 140.588 190.403 137.557 190.683 134.502C190.831 132.928 190.938 131.354 191.048 129.776L192.213 113.033C192.343 111.855 192.327 110.665 192.164 109.491C191.86 107.897 190.917 105.195 189.291 104.479Z" fill="#FBBEBE"/>
<path d="M182.922 78.3857C182.411 78.0352 182.168 77.4553 181.551 77.2563C179.881 76.7208 176.442 78.0556 174.715 78.3679C174.096 78.4514 173.49 78.6119 172.91 78.8457C171.512 79.4786 170.624 80.8985 170.092 82.3428C167.432 89.5603 171.771 97.7186 170.032 105.212C169.638 106.899 168.944 108.502 168.462 110.169C175.299 110.409 181.957 107.236 188.773 107.776C190.196 107.885 191.798 108.297 192.467 109.556C192.506 109.528 192.544 109.498 192.58 109.467C192.805 109.277 192.99 109.045 193.125 108.784C193.26 108.523 193.343 108.237 193.368 107.944C193.392 107.651 193.359 107.356 193.27 107.076C193.181 106.796 193.038 106.536 192.848 106.311C192.631 106.114 192.431 105.898 192.252 105.666C192.07 105.317 191.98 104.927 191.989 104.534C191.485 96.4641 189.549 88.5485 186.271 81.1579C186.072 80.6214 185.766 80.1313 185.371 79.7175C184.728 79.0642 183.698 78.8818 182.922 78.3857Z" fill="#8982FF"/>
<path d="M134.139 145.992C137.496 145.992 140.217 143.269 140.217 139.911C140.217 136.552 137.496 133.829 134.139 133.829C130.783 133.829 128.061 136.552 128.061 139.911C128.061 143.269 130.783 145.992 134.139 145.992Z" fill="#FBBEBE"/>
<path d="M147.597 145.992C150.954 145.992 153.676 143.269 153.676 139.911C153.676 136.552 150.954 133.829 147.597 133.829C144.241 133.829 141.519 136.552 141.519 139.911C141.519 143.269 144.241 145.992 147.597 145.992Z" fill="#FBBEBE"/>
<path d="M185.116 153.614H101.613C100.638 153.613 99.703 153.225 99.0136 152.535C98.3243 151.845 97.9364 150.91 97.9353 149.935V99.2497C97.9364 98.2742 98.3243 97.3391 99.0136 96.6494C99.703 95.9597 100.638 95.5718 101.613 95.5707H185.116C186.091 95.5718 187.026 95.9597 187.715 96.6494C188.404 97.3391 188.792 98.2742 188.793 99.2497V149.935C188.792 150.91 188.404 151.845 187.715 152.535C187.026 153.225 186.091 153.613 185.116 153.614Z" fill="#3F3D56"/>
<path d="M143.162 127.026C144.505 127.026 145.595 125.937 145.595 124.592C145.595 123.248 144.505 122.158 143.162 122.158C141.818 122.158 140.729 123.248 140.729 124.592C140.729 125.937 141.818 127.026 143.162 127.026Z" fill="white"/>
<path d="M280 143.39H0V151.999H16.5617V154H263.445V151.999H280V143.39Z" fill="#F1F1F1"/>
<path d="M120.101 40.0302C116.482 40.0302 113.549 36.8569 113.549 32.9425V29.3987C113.549 25.4843 116.482 22.311 120.101 22.311V40.0302H120.101Z" fill="#8982FF"/>
<path d="M161.918 22.311C165.537 22.311 168.47 25.4843 168.47 29.3987V32.9425C168.47 36.8569 165.537 40.0302 161.918 40.0302V22.311Z" fill="#8982FF"/>
<path d="M165.352 29.9556H164.313C164.313 15.6938 153.587 4.09097 140.404 4.09097C127.22 4.09097 116.494 15.6938 116.494 29.9556H115.455C115.455 15.0737 126.647 2.96643 140.404 2.96643C154.16 2.96644 165.352 15.0737 165.352 29.9556Z" fill="#8982FF"/>
</svg>
