<svg width="15" height="15" viewBox="0 0 15 15" fill="none" xmlns="http://www.w3.org/2000/svg">
<path d="M14.9991 11.1827V14.1292C14.9992 14.3402 14.9193 14.5433 14.7755 14.6977C14.6317 14.852 14.4346 14.946 14.2242 14.9608C13.86 14.9858 13.5626 14.9991 13.3326 14.9991C5.96883 14.9991 0 9.03032 0 1.66657C0 1.43659 0.0124993 1.1391 0.0383312 0.774956C0.053099 0.564505 0.147143 0.367488 0.301486 0.223661C0.455829 0.0798345 0.658981 -9.53555e-05 0.869951 2.13804e-07H3.81645C3.91981 -0.000104439 4.01952 0.0382137 4.09621 0.107511C4.1729 0.176808 4.22109 0.272137 4.23143 0.374979C4.25059 0.566635 4.26809 0.719126 4.28476 0.834952C4.45036 1.99066 4.78973 3.11468 5.29137 4.16893C5.37053 4.33559 5.31886 4.53474 5.16887 4.6414L3.37064 5.92633C4.47012 8.48823 6.51175 10.5299 9.07365 11.6293L10.3569 9.83444C10.4094 9.76111 10.4859 9.70852 10.5731 9.68582C10.6604 9.66314 10.7529 9.67179 10.8344 9.71028C11.8885 10.211 13.0122 10.5495 14.1675 10.7144C14.2834 10.7311 14.4358 10.7494 14.6258 10.7677C14.7285 10.7782 14.8237 10.8265 14.8928 10.9032C14.9619 10.9799 15.0001 11.0795 15 11.1827H14.9991Z" fill="#8982FF"/>
</svg>
