<svg width="22" height="22" viewBox="0 0 22 22" fill="none" xmlns="http://www.w3.org/2000/svg">
<path d="M13.7116 1.66504H5.96657C2.75735 1.66504 0.767433 3.93783 0.767433 7.14705V15.7602C0.767433 18.9695 2.71833 21.2325 5.96657 21.2325H15.1358C18.345 21.2325 20.3349 18.9695 20.3349 15.7602V8.25906M5.52759 14.0918L8.7173 9.94615L12.3557 12.8042L15.4772 8.77561M21.1643 2.81587C21.1643 3.94719 20.2471 4.86431 19.1158 4.86431C17.9845 4.86431 17.0674 3.94719 17.0674 2.81587C17.0674 1.68455 17.9845 0.767433 19.1158 0.767433C20.2471 0.767433 21.1643 1.68455 21.1643 2.81587Z" stroke="#8982FF" stroke-width="1.5" stroke-linecap="round" stroke-linejoin="round"/>
</svg>
