<svg width="15" height="15" viewBox="0 0 15 15" fill="none" xmlns="http://www.w3.org/2000/svg">
<path d="M14.1047 0.907373C13.7545 0.54801 13.2363 0.414129 12.7531 0.555056L1.4857 3.8316C0.975895 3.97324 0.614553 4.37981 0.517215 4.89631C0.417776 5.42196 0.765112 6.08925 1.21889 6.36829L4.74198 8.53363C5.10332 8.75559 5.5697 8.69992 5.86872 8.39834L9.903 4.33894C10.1061 4.12755 10.4422 4.12755 10.6453 4.33894C10.8484 4.54328 10.8484 4.87446 10.6453 5.08585L6.60401 9.14595C6.30429 9.44683 6.24827 9.91541 6.46885 10.279L8.6215 13.8374C8.8736 14.2602 9.30777 14.4998 9.78396 14.4998C9.83998 14.4998 9.903 14.4998 9.95903 14.4927C10.5052 14.4223 10.9394 14.0488 11.1005 13.5203L14.4408 2.26732C14.5878 1.78817 14.4548 1.26674 14.1047 0.907373Z" stroke="white"/>
</svg>
