<svg width="40" height="40" viewBox="0 0 40 40" fill="none" xmlns="http://www.w3.org/2000/svg">
<rect width="40" height="40" rx="7" fill="#EDECFF"/>
<path fill-rule="evenodd" clip-rule="evenodd" d="M25.8544 17.6152L25.4335 16.8848C25.0773 16.2667 24.2881 16.0534 23.6692 16.4081V16.4081C23.3746 16.5817 23.023 16.6309 22.692 16.545C22.3611 16.459 22.0779 16.245 21.9049 15.95C21.7936 15.7625 21.7338 15.549 21.7316 15.331V15.331C21.7416 14.9814 21.6097 14.6427 21.366 14.392C21.1223 14.1413 20.7874 13.9999 20.4377 14H19.5897C19.2471 14 18.9186 14.1365 18.677 14.3793C18.4353 14.6221 18.3004 14.9512 18.302 15.2938V15.2938C18.2919 16.0011 17.7156 16.5691 17.0082 16.569C16.7902 16.5668 16.5767 16.507 16.3892 16.3957V16.3957C15.7702 16.0411 14.981 16.2543 14.6249 16.8724L14.173 17.6152C13.8173 18.2326 14.0276 19.0213 14.6435 19.3795V19.3795C15.0438 19.6106 15.2904 20.0378 15.2904 20.5C15.2904 20.9622 15.0438 21.3894 14.6435 21.6205V21.6205C14.0284 21.9763 13.8178 22.7631 14.173 23.3786V23.3786L14.6001 24.1152C14.767 24.4163 15.047 24.6385 15.3781 24.7326C15.7092 24.8267 16.0641 24.785 16.3644 24.6167V24.6167C16.6596 24.4444 17.0114 24.3972 17.3415 24.4856C17.6716 24.5739 17.9528 24.7905 18.1225 25.0871C18.2338 25.2746 18.2936 25.4882 18.2958 25.7062V25.7062C18.2958 26.4207 18.8751 27 19.5897 27H20.4377C21.1499 27 21.7282 26.4245 21.7316 25.7124V25.7124C21.7299 25.3687 21.8657 25.0387 22.1087 24.7957C22.3517 24.5527 22.6817 24.4169 23.0254 24.4186C23.2429 24.4244 23.4555 24.4839 23.6444 24.5919V24.5919C24.2617 24.9476 25.0505 24.7373 25.4087 24.1214V24.1214L25.8544 23.3786C26.0269 23.0824 26.0743 22.7298 25.986 22.3986C25.8977 22.0675 25.681 21.7852 25.3839 21.6143V21.6143C25.0869 21.4434 24.8702 21.1611 24.7819 20.83C24.6936 20.4988 24.7409 20.1461 24.9135 19.85C25.0257 19.6541 25.1881 19.4917 25.3839 19.3795V19.3795C25.9961 19.0215 26.2059 18.2374 25.8544 17.6214V17.6214V17.6152Z" stroke="#8982FF" stroke-width="1.5" stroke-linecap="round" stroke-linejoin="round"/>
<circle cx="20.0167" cy="20.4997" r="1.78286" stroke="#8982FF" stroke-width="1.5" stroke-linecap="round" stroke-linejoin="round"/>
</svg>
