<svg width="65" height="20" viewBox="0 0 65 20" fill="none" xmlns="http://www.w3.org/2000/svg">
<path d="M43.8855 8.575C43.6155 8.055 43.2405 7.665 42.7605 7.405C42.2805 7.135 41.7255 7 41.0955 7C40.4055 7 39.7905 7.155 39.2505 7.465C38.7105 7.775 38.2855 8.215 37.9755 8.785C37.6755 9.355 37.5255 10.015 37.5255 10.765C37.5255 11.515 37.6755 12.18 37.9755 12.76C38.2855 13.33 38.7105 13.77 39.2505 14.08C39.7905 14.39 40.4055 14.545 41.0955 14.545C42.0255 14.545 42.7805 14.285 43.3605 13.765C43.9405 13.245 44.2955 12.54 44.4255 11.65H40.5105V10.285H46.2555V11.62C46.1455 12.43 45.8555 13.175 45.3855 13.855C44.9255 14.535 44.3205 15.08 43.5705 15.49C42.8305 15.89 42.0055 16.09 41.0955 16.09C40.1155 16.09 39.2205 15.865 38.4105 15.415C37.6005 14.955 36.9555 14.32 36.4755 13.51C36.0055 12.7 35.7705 11.785 35.7705 10.765C35.7705 9.745 36.0055 8.83 36.4755 8.02C36.9555 7.21 37.6005 6.58 38.4105 6.13C39.2305 5.67 40.1255 5.44 41.0955 5.44C42.2055 5.44 43.1905 5.715 44.0505 6.265C44.9205 6.805 45.5505 7.575 45.9405 8.575H43.8855Z" fill="#888888"/>
<path d="M53.522 10.645C54.082 10.745 54.557 11.04 54.947 11.53C55.337 12.02 55.532 12.575 55.532 13.195C55.532 13.725 55.392 14.205 55.112 14.635C54.842 15.055 54.447 15.39 53.927 15.64C53.407 15.88 52.802 16 52.112 16H47.942V5.575H51.917C52.627 5.575 53.237 5.695 53.747 5.935C54.257 6.175 54.642 6.5 54.902 6.91C55.162 7.31 55.292 7.76 55.292 8.26C55.292 8.86 55.132 9.36 54.812 9.76C54.492 10.16 54.062 10.455 53.522 10.645ZM49.652 9.955H51.767C52.327 9.955 52.762 9.83 53.072 9.58C53.392 9.32 53.552 8.95 53.552 8.47C53.552 8 53.392 7.635 53.072 7.375C52.762 7.105 52.327 6.97 51.767 6.97H49.652V9.955ZM51.962 14.605C52.542 14.605 52.997 14.465 53.327 14.185C53.657 13.905 53.822 13.515 53.822 13.015C53.822 12.505 53.647 12.1 53.297 11.8C52.947 11.5 52.482 11.35 51.902 11.35H49.652V14.605H51.962Z" fill="#888888"/>
<path d="M64.6803 8.68C64.6803 9.21 64.5553 9.71 64.3053 10.18C64.0553 10.65 63.6553 11.035 63.1053 11.335C62.5553 11.625 61.8503 11.77 60.9903 11.77H59.1003V16H57.3903V5.575H60.9903C61.7903 5.575 62.4653 5.715 63.0153 5.995C63.5753 6.265 63.9903 6.635 64.2603 7.105C64.5403 7.575 64.6803 8.1 64.6803 8.68ZM60.9903 10.375C61.6403 10.375 62.1253 10.23 62.4453 9.94C62.7653 9.64 62.9253 9.22 62.9253 8.68C62.9253 7.54 62.2803 6.97 60.9903 6.97H59.1003V10.375H60.9903Z" fill="#888888"/>
<path d="M10.0615 20C4.50455 20 0 15.523 0 10C0 4.477 4.50455 0 10.0615 0C15.6185 0 20.1231 4.477 20.1231 10C20.1231 15.523 15.6185 20 10.0615 20ZM10.0615 18C12.1963 18 14.2437 17.1571 15.7532 15.6569C17.2627 14.1566 18.1108 12.1217 18.1108 10C18.1108 7.87827 17.2627 5.84344 15.7532 4.34315C14.2437 2.84285 12.1963 2 10.0615 2C7.92675 2 5.8794 2.84285 4.36987 4.34315C2.86035 5.84344 2.01231 7.87827 2.01231 10C2.01231 12.1217 2.86035 14.1566 4.36987 15.6569C5.8794 17.1571 7.92675 18 10.0615 18ZM7.04308 11H6.03692V9H7.04308V8C7.04261 7.18727 7.32674 6.3997 7.84671 5.77244C8.36669 5.14518 9.0901 4.71732 9.89282 4.56228C10.6955 4.40723 11.5275 4.53467 12.246 4.92272C12.9645 5.31077 13.5248 5.93525 13.8306 6.689L11.8324 7.185C11.656 6.91222 11.3953 6.70365 11.0896 6.59057C10.7838 6.47749 10.4494 6.46601 10.1365 6.55784C9.82358 6.64967 9.54907 6.83986 9.35415 7.09989C9.15923 7.35991 9.0544 7.67574 9.05538 8V9H12.0738V11H9.05538V13H14.0862V15H6.03692V13H7.04308V11Z" fill="#8982FF"/>
</svg>
