<svg width="323" height="87" viewBox="0 0 323 87" fill="none" xmlns="http://www.w3.org/2000/svg">
<path d="M25.9746 81.799H323" stroke="#E6E6E6" stroke-width="0.800436"/>
<path d="M25.9746 4.11157H323" stroke="#E6E6E6" stroke-width="0.800436"/>
<path d="M25.9746 44.1329H323" stroke="#E6E6E6" stroke-width="0.800436"/>
<path d="M48.331 71.7878H38.7495V82.199H48.331V71.7878Z" fill="#8982FF"/>
<path d="M97.8354 35.7491H88.2539V82.1991H97.8354V35.7491Z" fill="#8982FF"/>
<path d="M147.34 57.3724H137.758V82.1992H147.34V57.3724Z" fill="#8982FF"/>
<path d="M196.844 74.1905H187.262V82.1991H196.844V74.1905Z" fill="#8982FF"/>
<path d="M246.348 19.7317H236.766V82.1991H246.348V19.7317Z" fill="#8982FF"/>
<path d="M295.852 19.7317H286.271V82.1991H295.852V19.7317Z" fill="#8982FF"/>
<path d="M63.5018 7.71896H53.9203V82.1993H63.5018V7.71896Z" fill="#EEEEEE"/>
<path d="M113.006 50.9652H103.425V82.1989H113.006V50.9652Z" fill="#EEEEEE"/>
<path d="M162.51 19.7317H152.929V82.1991H162.51V19.7317Z" fill="#EEEEEE"/>
<path d="M212.014 6.91824H202.433V82.1994H212.014V6.91824Z" fill="#EEEEEE"/>
<path d="M261.519 66.9825H251.937V82.1989H261.519V66.9825Z" fill="#EEEEEE"/>
<path d="M311.023 66.9825H301.442V82.1989H311.023V66.9825Z" fill="#EEEEEE"/>
<path d="M3.25948 86.2882C2.64196 86.2856 2.11434 86.1228 1.67661 85.7997C1.23887 85.4766 0.904058 85.0063 0.672164 84.3888C0.440269 83.7712 0.324322 83.0274 0.324322 82.1571C0.324322 81.2895 0.440269 80.5482 0.672164 79.9333C0.906664 79.3184 1.24278 78.8494 1.68051 78.5263C2.12085 78.2032 2.64718 78.0416 3.25948 78.0416C3.87179 78.0416 4.39681 78.2045 4.83454 78.5302C5.27227 78.8533 5.60709 79.3223 5.83898 79.9372C6.07348 80.5495 6.19073 81.2895 6.19073 82.1571C6.19073 83.03 6.07479 83.7752 5.84289 84.3927C5.611 85.0076 5.27618 85.4779 4.83845 85.8036C4.40072 86.1267 3.87439 86.2882 3.25948 86.2882ZM3.25948 85.2447C3.80144 85.2447 4.22484 84.9802 4.52969 84.4513C4.83715 83.9224 4.99087 83.1576 4.99087 82.1571C4.99087 81.4927 4.92052 80.9312 4.77982 80.4726C4.64173 80.0114 4.4424 79.6623 4.18185 79.4252C3.9239 79.1855 3.61644 79.0656 3.25948 79.0656C2.72013 79.0656 2.29673 79.3314 1.98927 79.8629C1.68182 80.3944 1.52679 81.1592 1.52418 82.1571C1.52418 82.8241 1.59323 83.3882 1.73132 83.8494C1.87202 84.308 2.07135 84.6558 2.3293 84.8929C2.58725 85.1274 2.89731 85.2447 3.25948 85.2447Z" fill="#AAAAAA"/>
<path d="M3.17355 0.109433V8.1137H1.96196V1.32102H1.91506L-2.28892e-05 2.57168V1.41482L1.99714 0.109433H3.17355ZM8.12541 8.24659C7.50789 8.24398 6.98026 8.08113 6.54253 7.75804C6.1048 7.43496 5.76998 6.96465 5.53809 6.34714C5.30619 5.72962 5.19025 4.98573 5.19025 4.11548C5.19025 3.24783 5.30619 2.50655 5.53809 1.89163C5.77259 1.27672 6.1087 0.807722 6.54644 0.484634C6.98678 0.161544 7.5131 -2.98182e-07 8.12541 -2.98182e-07C8.73771 -2.98182e-07 9.26273 0.162847 9.70046 0.488541C10.1382 0.811631 10.473 1.28063 10.7049 1.89554C10.9394 2.50785 11.0567 3.24783 11.0567 4.11548C11.0567 4.98834 10.9407 5.73353 10.7088 6.35104C10.4769 6.96596 10.1421 7.43626 9.70437 7.76195C9.26664 8.08504 8.74032 8.24659 8.12541 8.24659ZM8.12541 7.20306C8.66736 7.20306 9.09076 6.9386 9.39561 6.40967C9.70307 5.88074 9.8568 5.11601 9.8568 4.11548C9.8568 3.45106 9.78645 2.88956 9.64575 2.43098C9.50765 1.9698 9.30833 1.62066 9.04777 1.38355C8.78982 1.14384 8.48237 1.02398 8.12541 1.02398C7.58606 1.02398 7.16265 1.28975 6.8552 1.82128C6.54774 2.35282 6.39271 3.11755 6.3901 4.11548C6.3901 4.7825 6.45915 5.3466 6.59725 5.80779C6.73795 6.26636 6.93727 6.61421 7.19522 6.85131C7.45317 7.08581 7.76323 7.20306 8.12541 7.20306ZM15.2298 8.24659C14.6123 8.24398 14.0846 8.08113 13.6469 7.75804C13.2092 7.43496 12.8744 6.96465 12.6425 6.34714C12.4106 5.72962 12.2946 4.98573 12.2946 4.11548C12.2946 3.24783 12.4106 2.50655 12.6425 1.89163C12.877 1.27672 13.2131 0.807722 13.6508 0.484634C14.0912 0.161544 14.6175 -2.98182e-07 15.2298 -2.98182e-07C15.8421 -2.98182e-07 16.3671 0.162847 16.8048 0.488541C17.2426 0.811631 17.5774 1.28063 17.8093 1.89554C18.0438 2.50785 18.161 3.24783 18.161 4.11548C18.161 4.98834 18.0451 5.73353 17.8132 6.35104C17.5813 6.96596 17.2465 7.43626 16.8087 7.76195C16.371 8.08504 15.8447 8.24659 15.2298 8.24659ZM15.2298 7.20306C15.7717 7.20306 16.1951 6.9386 16.5 6.40967C16.8074 5.88074 16.9612 5.11601 16.9612 4.11548C16.9612 3.45106 16.8908 2.88956 16.7501 2.43098C16.612 1.9698 16.4127 1.62066 16.1521 1.38355C15.8942 1.14384 15.5867 1.02398 15.2298 1.02398C14.6904 1.02398 14.267 1.28975 13.9596 1.82128C13.6521 2.35282 13.4971 3.11755 13.4945 4.11548C13.4945 4.7825 13.5635 5.3466 13.7016 5.80779C13.8423 6.26636 14.0416 6.61421 14.2996 6.85131C14.5575 7.08581 14.8676 7.20306 15.2298 7.20306Z" fill="#AAAAAA"/>
<path d="M3.27471 48.2445C2.78487 48.2445 2.34453 48.1507 1.95369 47.9631C1.56547 47.7729 1.25541 47.5123 1.02351 47.1814C0.791616 46.8505 0.667852 46.4727 0.652219 46.048H1.82472C1.85338 46.3919 2.00581 46.6746 2.28199 46.8961C2.55818 47.1176 2.88909 47.2283 3.27471 47.2283C3.58217 47.2283 3.85445 47.158 4.09155 47.0173C4.33126 46.874 4.51886 46.6772 4.65435 46.4271C4.79245 46.177 4.8615 45.8917 4.8615 45.5712C4.8615 45.2455 4.79115 44.955 4.65045 44.6996C4.50975 44.4443 4.31563 44.2437 4.0681 44.0977C3.82318 43.9518 3.54178 43.8776 3.2239 43.875C2.98159 43.875 2.73797 43.9167 2.49304 44C2.24812 44.0834 2.0501 44.1928 1.89898 44.3283L0.792919 44.1642L1.24238 40.1308H5.64316V41.1665H2.24682L1.99278 43.406H2.03968C2.19601 43.2548 2.40315 43.1285 2.6611 43.0269C2.92166 42.9252 3.20045 42.8744 3.49749 42.8744C3.98473 42.8744 4.41855 42.9904 4.79896 43.2223C5.18198 43.4542 5.48292 43.7707 5.70179 44.172C5.92326 44.5707 6.03269 45.0292 6.03009 45.5477C6.03269 46.0662 5.91544 46.5287 5.67834 46.9352C5.44384 47.3417 5.11814 47.6621 4.70125 47.8966C4.28697 48.1285 3.81146 48.2445 3.27471 48.2445ZM10.2442 48.2679C9.62673 48.2653 9.09911 48.1025 8.66137 47.7794C8.22364 47.4563 7.88883 46.986 7.65693 46.3685C7.42504 45.751 7.30909 45.0071 7.30909 44.1368C7.30909 43.2692 7.42504 42.5279 7.65693 41.913C7.89143 41.2981 8.22755 40.8291 8.66528 40.506C9.10562 40.1829 9.63194 40.0213 10.2442 40.0213C10.8566 40.0213 11.3816 40.1842 11.8193 40.5099C12.257 40.833 12.5919 41.302 12.8238 41.9169C13.0583 42.5292 13.1755 43.2692 13.1755 44.1368C13.1755 45.0097 13.0596 45.7549 12.8277 46.3724C12.5958 46.9873 12.261 47.4576 11.8232 47.7833C11.3855 48.1064 10.8592 48.2679 10.2442 48.2679ZM10.2442 47.2244C10.7862 47.2244 11.2096 46.9599 11.5145 46.431C11.8219 45.9021 11.9756 45.1374 11.9756 44.1368C11.9756 43.4724 11.9053 42.9109 11.7646 42.4523C11.6265 41.9911 11.4272 41.642 11.1666 41.4049C10.9087 41.1652 10.6012 41.0453 10.2442 41.0453C9.7049 41.0453 9.2815 41.3111 8.97404 41.8426C8.66659 42.3742 8.51155 43.1389 8.50895 44.1368C8.50895 44.8038 8.578 45.368 8.71609 45.8291C8.85679 46.2877 9.05612 46.6356 9.31407 46.8727C9.57202 47.1072 9.88208 47.2244 10.2442 47.2244Z" fill="#AAAAAA"/>
</svg>
