<svg width="199" height="23" viewBox="0 0 199 23" fill="none" xmlns="http://www.w3.org/2000/svg">
<path d="M142.092 13.45C142.732 12.8967 143.235 12.4433 143.602 12.09C143.975 11.73 144.285 11.3567 144.532 10.97C144.778 10.5833 144.902 10.1967 144.902 9.81C144.902 9.41 144.805 9.09667 144.612 8.87C144.425 8.64333 144.128 8.53 143.722 8.53C143.328 8.53 143.022 8.65667 142.802 8.91C142.588 9.15667 142.475 9.49 142.462 9.91H141.362C141.382 9.15 141.608 8.57 142.042 8.17C142.482 7.76333 143.038 7.56 143.712 7.56C144.438 7.56 145.005 7.76 145.412 8.16C145.825 8.56 146.032 9.09333 146.032 9.76C146.032 10.24 145.908 10.7033 145.662 11.15C145.422 11.59 145.132 11.9867 144.792 12.34C144.458 12.6867 144.032 13.09 143.512 13.55L143.062 13.95H146.232V14.9H141.372V14.07L142.092 13.45Z" fill="#888888"/>
<path d="M147.083 8.75V7.71H149.163V15H148.013V8.75H147.083Z" fill="#888888"/>
<path d="M152.149 13.02C152.216 13.3533 152.359 13.6067 152.579 13.78C152.799 13.9533 153.096 14.04 153.469 14.04C153.942 14.04 154.289 13.8533 154.509 13.48C154.729 13.1067 154.839 12.47 154.839 11.57C154.679 11.7967 154.452 11.9733 154.159 12.1C153.872 12.22 153.559 12.28 153.219 12.28C152.786 12.28 152.392 12.1933 152.039 12.02C151.686 11.84 151.406 11.5767 151.199 11.23C150.999 10.8767 150.899 10.45 150.899 9.95C150.899 9.21667 151.112 8.63333 151.539 8.2C151.972 7.76 152.566 7.54 153.319 7.54C154.226 7.54 154.869 7.84333 155.249 8.45C155.636 9.05 155.829 9.97333 155.829 11.22C155.829 12.08 155.756 12.7833 155.609 13.33C155.469 13.8767 155.222 14.29 154.869 14.57C154.516 14.85 154.026 14.99 153.399 14.99C152.686 14.99 152.136 14.8033 151.749 14.43C151.362 14.0567 151.146 13.5867 151.099 13.02H152.149ZM153.419 11.32C153.819 11.32 154.132 11.1967 154.359 10.95C154.592 10.6967 154.709 10.3633 154.709 9.95C154.709 9.49 154.586 9.13333 154.339 8.88C154.099 8.62 153.769 8.49 153.349 8.49C152.929 8.49 152.596 8.62333 152.349 8.89C152.109 9.15 151.989 9.49333 151.989 9.92C151.989 10.3267 152.106 10.6633 152.339 10.93C152.579 11.19 152.939 11.32 153.419 11.32Z" fill="#888888"/>
<path d="M158.497 13.02C158.563 13.3533 158.707 13.6067 158.927 13.78C159.147 13.9533 159.443 14.04 159.817 14.04C160.29 14.04 160.637 13.8533 160.857 13.48C161.077 13.1067 161.187 12.47 161.187 11.57C161.027 11.7967 160.8 11.9733 160.507 12.1C160.22 12.22 159.907 12.28 159.567 12.28C159.133 12.28 158.74 12.1933 158.387 12.02C158.033 11.84 157.753 11.5767 157.547 11.23C157.347 10.8767 157.247 10.45 157.247 9.95C157.247 9.21667 157.46 8.63333 157.887 8.2C158.32 7.76 158.913 7.54 159.667 7.54C160.573 7.54 161.217 7.84333 161.597 8.45C161.983 9.05 162.177 9.97333 162.177 11.22C162.177 12.08 162.103 12.7833 161.957 13.33C161.817 13.8767 161.57 14.29 161.217 14.57C160.863 14.85 160.373 14.99 159.747 14.99C159.033 14.99 158.483 14.8033 158.097 14.43C157.71 14.0567 157.493 13.5867 157.447 13.02H158.497ZM159.767 11.32C160.167 11.32 160.48 11.1967 160.707 10.95C160.94 10.6967 161.057 10.3633 161.057 9.95C161.057 9.49 160.933 9.13333 160.687 8.88C160.447 8.62 160.117 8.49 159.697 8.49C159.277 8.49 158.943 8.62333 158.697 8.89C158.457 9.15 158.337 9.49333 158.337 9.92C158.337 10.3267 158.453 10.6633 158.687 10.93C158.927 11.19 159.287 11.32 159.767 11.32Z" fill="#888888"/>
<path d="M179.365 8.69H176.015V10.68C176.155 10.4933 176.361 10.3367 176.635 10.21C176.915 10.0833 177.211 10.02 177.525 10.02C178.085 10.02 178.538 10.14 178.885 10.38C179.238 10.62 179.488 10.9233 179.635 11.29C179.788 11.6567 179.865 12.0433 179.865 12.45C179.865 12.9433 179.768 13.3833 179.575 13.77C179.388 14.15 179.105 14.45 178.725 14.67C178.351 14.89 177.891 15 177.345 15C176.618 15 176.035 14.82 175.595 14.46C175.155 14.1 174.891 13.6233 174.805 13.03H175.915C175.988 13.3433 176.151 13.5933 176.405 13.78C176.658 13.96 176.975 14.05 177.355 14.05C177.828 14.05 178.181 13.9067 178.415 13.62C178.655 13.3333 178.775 12.9533 178.775 12.48C178.775 12 178.655 11.6333 178.415 11.38C178.175 11.12 177.821 10.99 177.355 10.99C177.028 10.99 176.751 11.0733 176.525 11.24C176.305 11.4 176.145 11.62 176.045 11.9H174.965V7.69H179.365V8.69Z" fill="#888888"/>
<path d="M181.031 9.51C181.071 8.89 181.308 8.40667 181.741 8.06C182.181 7.71333 182.741 7.54 183.421 7.54C183.888 7.54 184.291 7.62333 184.631 7.79C184.971 7.95667 185.228 8.18333 185.401 8.47C185.575 8.75667 185.661 9.08 185.661 9.44C185.661 9.85333 185.551 10.2067 185.331 10.5C185.111 10.7933 184.848 10.99 184.541 11.09V11.13C184.935 11.25 185.241 11.47 185.461 11.79C185.681 12.1033 185.791 12.5067 185.791 13C185.791 13.3933 185.701 13.7433 185.521 14.05C185.341 14.3567 185.075 14.6 184.721 14.78C184.368 14.9533 183.945 15.04 183.451 15.04C182.731 15.04 182.138 14.8567 181.671 14.49C181.211 14.1167 180.965 13.5833 180.931 12.89H182.031C182.058 13.2433 182.195 13.5333 182.441 13.76C182.688 13.98 183.021 14.09 183.441 14.09C183.848 14.09 184.161 13.98 184.381 13.76C184.601 13.5333 184.711 13.2433 184.711 12.89C184.711 12.4233 184.561 12.0933 184.261 11.9C183.968 11.7 183.515 11.6 182.901 11.6H182.641V10.66H182.911C183.451 10.6533 183.861 10.5633 184.141 10.39C184.428 10.2167 184.571 9.94333 184.571 9.57C184.571 9.25 184.468 8.99667 184.261 8.81C184.055 8.61667 183.761 8.52 183.381 8.52C183.008 8.52 182.718 8.61667 182.511 8.81C182.305 8.99667 182.181 9.23 182.141 9.51H181.031Z" fill="#888888"/>
<path d="M186.989 11.26C186.989 10.1067 187.182 9.20667 187.569 8.56C187.962 7.90667 188.635 7.58 189.589 7.58C190.542 7.58 191.212 7.90667 191.599 8.56C191.992 9.20667 192.189 10.1067 192.189 11.26C192.189 12.4267 191.992 13.34 191.599 14C191.212 14.6533 190.542 14.98 189.589 14.98C188.635 14.98 187.962 14.6533 187.569 14C187.182 13.34 186.989 12.4267 186.989 11.26ZM191.069 11.26C191.069 10.72 191.032 10.2633 190.959 9.89C190.892 9.51667 190.752 9.21333 190.539 8.98C190.325 8.74 190.009 8.62 189.589 8.62C189.169 8.62 188.852 8.74 188.639 8.98C188.425 9.21333 188.282 9.51667 188.209 9.89C188.142 10.2633 188.109 10.72 188.109 11.26C188.109 11.82 188.142 12.29 188.209 12.67C188.275 13.05 188.415 13.3567 188.629 13.59C188.849 13.8233 189.169 13.94 189.589 13.94C190.009 13.94 190.325 13.8233 190.539 13.59C190.759 13.3567 190.902 13.05 190.969 12.67C191.035 12.29 191.069 11.82 191.069 11.26Z" fill="#888888"/>
<path d="M193.375 9.51C193.415 8.89 193.652 8.40667 194.085 8.06C194.525 7.71333 195.085 7.54 195.765 7.54C196.232 7.54 196.635 7.62333 196.975 7.79C197.315 7.95667 197.572 8.18333 197.745 8.47C197.918 8.75667 198.005 9.08 198.005 9.44C198.005 9.85333 197.895 10.2067 197.675 10.5C197.455 10.7933 197.192 10.99 196.885 11.09V11.13C197.278 11.25 197.585 11.47 197.805 11.79C198.025 12.1033 198.135 12.5067 198.135 13C198.135 13.3933 198.045 13.7433 197.865 14.05C197.685 14.3567 197.418 14.6 197.065 14.78C196.712 14.9533 196.288 15.04 195.795 15.04C195.075 15.04 194.482 14.8567 194.015 14.49C193.555 14.1167 193.308 13.5833 193.275 12.89H194.375C194.402 13.2433 194.538 13.5333 194.785 13.76C195.032 13.98 195.365 14.09 195.785 14.09C196.192 14.09 196.505 13.98 196.725 13.76C196.945 13.5333 197.055 13.2433 197.055 12.89C197.055 12.4233 196.905 12.0933 196.605 11.9C196.312 11.7 195.858 11.6 195.245 11.6H194.985V10.66H195.255C195.795 10.6533 196.205 10.5633 196.485 10.39C196.772 10.2167 196.915 9.94333 196.915 9.57C196.915 9.25 196.812 8.99667 196.605 8.81C196.398 8.61667 196.105 8.52 195.725 8.52C195.352 8.52 195.062 8.61667 194.855 8.81C194.648 8.99667 194.525 9.23 194.485 9.51H193.375Z" fill="#888888"/>
<path d="M102.628 12C102.628 13.1046 101.727 14 100.615 14C99.504 14 98.6031 13.1046 98.6031 12C98.6031 10.8954 99.504 10 100.615 10C101.727 10 102.628 10.8954 102.628 12Z" fill="#888888"/>
<path d="M112.018 12C112.018 13.1046 111.117 14 110.006 14C108.895 14 107.994 13.1046 107.994 12C107.994 10.8954 108.895 10 110.006 10C111.117 10 112.018 10.8954 112.018 12Z" fill="#888888"/>
<path d="M121.409 12C121.409 13.1046 120.508 14 119.397 14C118.286 14 117.385 13.1046 117.385 12C117.385 10.8954 118.286 10 119.397 10C120.508 10 121.409 10.8954 121.409 12Z" fill="#888888"/>
<path d="M130.8 12C130.8 13.1046 129.899 14 128.788 14C127.676 14 126.775 13.1046 126.775 12C126.775 10.8954 127.676 10 128.788 10C129.899 10 130.8 10.8954 130.8 12Z" fill="#888888"/>
<path d="M60.3693 12C60.3693 13.1046 59.4683 14 58.3569 14C57.2456 14 56.3446 13.1046 56.3446 12C56.3446 10.8954 57.2456 10 58.3569 10C59.4683 10 60.3693 10.8954 60.3693 12Z" fill="#888888"/>
<path d="M69.7603 12C69.7603 13.1046 68.8593 14 67.748 14C66.6366 14 65.7357 13.1046 65.7357 12C65.7357 10.8954 66.6366 10 67.748 10C68.8593 10 69.7603 10.8954 69.7603 12Z" fill="#888888"/>
<path d="M79.1505 12C79.1505 13.1046 78.2495 14 77.1382 14C76.0268 14 75.1259 13.1046 75.1259 12C75.1259 10.8954 76.0268 10 77.1382 10C78.2495 10 79.1505 10.8954 79.1505 12Z" fill="#888888"/>
<path d="M88.5415 12C88.5415 13.1046 87.6406 14 86.5292 14C85.4179 14 84.5169 13.1046 84.5169 12C84.5169 10.8954 85.4179 10 86.5292 10C87.6406 10 88.5415 10.8954 88.5415 12Z" fill="#888888"/>
<path fill-rule="evenodd" clip-rule="evenodd" d="M19.745 19.6392C21.8433 17.5576 23.1415 14.6795 23.1415 11.5C23.1415 8.32054 21.8433 5.44244 19.745 3.36076C21.1857 2.49732 22.8753 2 24.6842 2C29.9816 2 34.255 6.26485 34.255 11.5C34.255 16.7352 29.9816 21 24.6842 21C22.8753 21 21.1857 20.5027 19.745 19.6392ZM18.1275 20.9767C15.0988 18.9028 13.1134 15.4319 13.1134 11.5C13.1134 7.56815 15.0988 4.09716 18.1275 2.02328C18.7071 2.42013 19.2484 2.86815 19.745 3.36076C16.9666 5.02586 15.1134 8.05254 15.1134 11.5C15.1134 14.9475 16.9666 17.9741 19.745 19.6392C19.2484 20.1319 18.7071 20.5799 18.1275 20.9767ZM18.1275 20.9767C16.2638 22.2529 14.0051 23 11.5708 23C5.18041 23 0 17.8513 0 11.5C0 5.14873 5.18041 0 11.5708 0C14.0051 0 16.2638 0.747137 18.1275 2.02328C19.9912 0.747137 22.2499 0 24.6842 0C31.0746 0 36.255 5.14873 36.255 11.5C36.255 17.8513 31.0746 23 24.6842 23C22.2499 23 19.9912 22.2529 18.1275 20.9767Z" fill="#EB001B"/>
</svg>
