<svg width="263" height="342" viewBox="0 0 263 342" fill="none" xmlns="http://www.w3.org/2000/svg">
<circle cx="33" cy="25" r="25" fill="#EDECFF"/>
<path d="M25 31.5H40V33H25V31.5ZM26.5 25.5H28V30.75H26.5V25.5ZM30.25 25.5H31.75V30.75H30.25V25.5ZM33.25 25.5H34.75V30.75H33.25V25.5ZM37 25.5H38.5V30.75H37V25.5ZM25 21.75L32.5 18L40 21.75V24.75H25V21.75ZM32.5 22.5C32.6989 22.5 32.8897 22.421 33.0303 22.2803C33.171 22.1397 33.25 21.9489 33.25 21.75C33.25 21.5511 33.171 21.3603 33.0303 21.2197C32.8897 21.079 32.6989 21 32.5 21C32.3011 21 32.1103 21.079 31.9697 21.2197C31.829 21.3603 31.75 21.5511 31.75 21.75C31.75 21.9489 31.829 22.1397 31.9697 22.2803C32.1103 22.421 32.3011 22.5 32.5 22.5Z" fill="#8982FF"/>
<circle cx="238" cy="200" r="25" fill="#EDECFF"/>
<path d="M230 206.5H245V208H230V206.5ZM231.5 200.5H233V205.75H231.5V200.5ZM235.25 200.5H236.75V205.75H235.25V200.5ZM238.25 200.5H239.75V205.75H238.25V200.5ZM242 200.5H243.5V205.75H242V200.5ZM230 196.75L237.5 193L245 196.75V199.75H230V196.75ZM237.5 197.5C237.699 197.5 237.89 197.421 238.03 197.28C238.171 197.14 238.25 196.949 238.25 196.75C238.25 196.551 238.171 196.36 238.03 196.22C237.89 196.079 237.699 196 237.5 196C237.301 196 237.11 196.079 236.97 196.22C236.829 196.36 236.75 196.551 236.75 196.75C236.75 196.949 236.829 197.14 236.97 197.28C237.11 197.421 237.301 197.5 237.5 197.5Z" fill="#8982FF"/>
<circle cx="25" cy="317" r="25" fill="#EDECFF"/>
<path d="M17 323.5H32V325H17V323.5ZM18.5 317.5H20V322.75H18.5V317.5ZM22.25 317.5H23.75V322.75H22.25V317.5ZM25.25 317.5H26.75V322.75H25.25V317.5ZM29 317.5H30.5V322.75H29V317.5ZM17 313.75L24.5 310L32 313.75V316.75H17V313.75ZM24.5 314.5C24.6989 314.5 24.8897 314.421 25.0303 314.28C25.171 314.14 25.25 313.949 25.25 313.75C25.25 313.551 25.171 313.36 25.0303 313.22C24.8897 313.079 24.6989 313 24.5 313C24.3011 313 24.1103 313.079 23.9697 313.22C23.829 313.36 23.75 313.551 23.75 313.75C23.75 313.949 23.829 314.14 23.9697 314.28C24.1103 314.421 24.3011 314.5 24.5 314.5Z" fill="#8982FF"/>
</svg>
