<svg width="21" height="22" viewBox="0 0 21 22" fill="none" xmlns="http://www.w3.org/2000/svg">
<path fill-rule="evenodd" clip-rule="evenodd" d="M0.7619 12.6608C0.7619 6.9404 1.38564 7.33964 4.74308 4.22601C6.21203 3.04354 8.49773 0.7619 10.4716 0.7619C12.4444 0.7619 14.7758 3.03236 16.2579 4.22601C19.6154 7.33964 20.2381 6.9404 20.2381 12.6608C20.2381 21.0792 18.248 21.0792 10.5 21.0792C2.75198 21.0792 0.7619 21.0792 0.7619 12.6608Z" fill="#EBEAFD"/>
<path d="M7.54657 15.1216H13.4538M0.7619 12.6608C0.7619 6.9404 1.38564 7.33964 4.74308 4.22601C6.21203 3.04354 8.49773 0.7619 10.4716 0.7619C12.4444 0.7619 14.7758 3.03236 16.2579 4.22601C19.6154 7.33964 20.2381 6.9404 20.2381 12.6608C20.2381 21.0792 18.248 21.0792 10.5 21.0792C2.75198 21.0792 0.7619 21.0792 0.7619 12.6608Z" stroke="#8982FF" stroke-width="1.5" stroke-linecap="round" stroke-linejoin="round"/>
</svg>
