<svg width="70" height="70" viewBox="0 0 70 70" fill="none" xmlns="http://www.w3.org/2000/svg">
<rect width="70" height="70" rx="13" fill="#007348" fill-opacity="0.15"/>
<path d="M21.4958 24.438V28.9008L22.19 29.4214L22.8595 29.9669L22.9338 27.438C22.9834 25.2066 23.0578 24.9339 23.4297 25.0578C23.6528 25.1322 25.7851 25.752 28.1652 26.4463C30.5454 27.1405 32.6776 27.8099 32.9255 27.9586C33.6693 28.3553 33.8925 29.0495 33.8925 31.0826C33.8925 32.9917 33.9173 33.0165 34.6611 33.438L35.4297 33.8842L35.3305 29.3471C35.2561 24.5124 35.1569 24.1405 33.9173 23.3967C33.3966 23.0992 22.19 20 21.6198 20C21.5454 20 21.4958 22.0083 21.4958 24.438Z" fill="#007348"/>
<path d="M21 36.6113L21.8182 37.4543C22.5124 38.2229 23.0578 38.446 26.7025 39.4378C33.5702 41.3221 34.4875 41.57 34.6859 41.57C34.8099 41.57 34.8842 40.1816 34.8842 38.4956C34.8842 35.7436 34.8346 35.3717 34.3636 34.7766C33.6942 33.9337 33.7437 33.9337 27.5206 32.2477C24.6694 31.4791 22.0661 30.6362 21.6942 30.3882L21 29.8924V36.6113Z" fill="#007348"/>
<path d="M49.4873 30.3138C49.2642 30.537 46.4625 31.4295 43.289 32.2973C35.851 34.3303 36.1237 34.0824 36.1237 38.4708C36.1237 40.1816 36.1981 41.57 36.3221 41.57C36.9667 41.57 48.1237 38.3469 48.6444 37.9998C49.9088 37.1816 50.0328 36.6857 49.9584 33.1651C49.884 30.1403 49.8592 29.9171 49.4873 30.3138Z" fill="#007348"/>
<path d="M21 41.6693C21 44.6445 21.0496 45.0412 21.5207 45.6362C21.7934 45.9833 22.2397 46.38 22.4876 46.5288C22.8595 46.7271 34.438 49.9999 34.7851 49.9999C35.033 49.9999 34.8594 44.0247 34.5867 43.4296C34.1652 42.4875 33.6198 42.2644 27.8181 40.7024C24.9421 39.909 22.2397 39.066 21.8182 38.8181L21 38.3718V41.6693Z" fill="#007348"/>
<path d="M49.6859 38.5206C49.4379 38.9172 48.0495 39.3883 42.6942 40.8511C37.5124 42.2643 37.1901 42.3883 36.5702 43.1569C36.1983 43.5784 36.124 44.223 36.124 46.8511C36.124 49.7767 36.1488 50.0246 36.5702 49.9007C36.7934 49.8263 39.4958 49.1073 42.5702 48.2643C45.6446 47.4213 48.3966 46.5784 48.6941 46.38C49.8842 45.6114 50.033 45.0908 49.9586 41.5453C49.909 39.7106 49.8098 38.347 49.6859 38.5206Z" fill="#007348"/>
</svg>
