<svg width="18" height="17" viewBox="0 0 18 17" fill="none" xmlns="http://www.w3.org/2000/svg">
<path d="M14.925 8.96732C14.8048 8.83806 14.7385 8.67188 14.7385 8.49982C14.7385 8.32776 14.8048 8.16159 14.925 8.03232L15.885 7.01232C15.9908 6.90088 16.0565 6.76066 16.0727 6.61177C16.0889 6.46288 16.0547 6.31298 15.975 6.18357L14.475 3.73274C14.3962 3.60348 14.2762 3.50103 14.1321 3.43998C13.988 3.37892 13.8272 3.36239 13.6725 3.39274L12.2625 3.66191C12.0831 3.69692 11.8964 3.6687 11.7375 3.58257C11.5786 3.49645 11.4585 3.35837 11.4 3.19441L10.9425 1.89816C10.8922 1.75747 10.7964 1.63527 10.6685 1.54884C10.5407 1.4624 10.3873 1.41611 10.23 1.41649H7.23004C7.06649 1.40843 6.90465 1.45115 6.76922 1.53812C6.63379 1.6251 6.53223 1.75155 6.48004 1.89816L6.06004 3.19441C6.00154 3.35837 5.88152 3.49645 5.72263 3.58257C5.56373 3.6687 5.37696 3.69692 5.19754 3.66191L3.75004 3.39274C3.60346 3.37318 3.45402 3.39502 3.32055 3.45553C3.18709 3.51603 3.07557 3.61249 3.00004 3.73274L1.50004 6.18357C1.41841 6.31153 1.38171 6.46059 1.39518 6.60944C1.40865 6.75829 1.47161 6.8993 1.57504 7.01232L2.52754 8.03232C2.64778 8.16159 2.71409 8.32776 2.71409 8.49982C2.71409 8.67188 2.64778 8.83806 2.52754 8.96732L1.57504 9.98732C1.47161 10.1003 1.40865 10.2414 1.39518 10.3902C1.38171 10.5391 1.41841 10.6881 1.50004 10.8161L3.00004 13.2669C3.07887 13.3962 3.19888 13.4986 3.34298 13.5597C3.48708 13.6207 3.64791 13.6373 3.80254 13.6069L5.21254 13.3377C5.39196 13.3027 5.57873 13.3309 5.73763 13.4171C5.89652 13.5032 6.01655 13.6413 6.07504 13.8052L6.53254 15.1015C6.58473 15.2481 6.68629 15.3746 6.82172 15.4615C6.95715 15.5485 7.11899 15.5912 7.28254 15.5832H10.2825C10.4398 15.5835 10.5932 15.5372 10.721 15.4508C10.8489 15.3644 10.9447 15.2422 10.995 15.1015L11.4525 13.8052C11.511 13.6413 11.6311 13.5032 11.79 13.4171C11.9489 13.3309 12.1356 13.3027 12.315 13.3377L13.725 13.6069C13.8797 13.6373 14.0405 13.6207 14.1846 13.5597C14.3287 13.4986 14.4487 13.3962 14.5275 13.2669L16.0275 10.8161C16.1072 10.6867 16.1414 10.5368 16.1252 10.3879C16.109 10.239 16.0433 10.0988 15.9375 9.98732L14.925 8.96732ZM13.8075 9.91649L14.4075 10.554L13.4475 12.1265L12.5625 11.9565C12.0224 11.8522 11.4605 11.9389 10.9835 12.2C10.5065 12.4612 10.1477 12.8786 9.97504 13.3732L9.69004 14.1665H7.77004L7.50004 13.359C7.32744 12.8645 6.96858 12.447 6.4916 12.1859C6.01462 11.9247 5.45271 11.838 4.91254 11.9423L4.02754 12.1123L3.05254 10.5469L3.65254 9.90941C4.02151 9.51981 4.22549 9.01544 4.22549 8.49274C4.22549 7.97004 4.02151 7.46567 3.65254 7.07607L3.05254 6.43857L4.01254 4.88024L4.89754 5.05024C5.43771 5.15452 5.99962 5.06786 6.4766 4.80671C6.95358 4.54556 7.31244 4.1281 7.48504 3.63357L7.77004 2.83316H9.69004L9.97504 3.64066C10.1477 4.13519 10.5065 4.55265 10.9835 4.8138C11.4605 5.07495 12.0224 5.16161 12.5625 5.05732L13.4475 4.88732L14.4075 6.45982L13.8075 7.09732C13.4427 7.48603 13.2413 7.98747 13.2413 8.50691C13.2413 9.02634 13.4427 9.52779 13.8075 9.91649ZM8.73004 5.66649C8.1367 5.66649 7.55668 5.83266 7.06333 6.14399C6.56999 6.45532 6.18547 6.89783 5.95841 7.41555C5.73134 7.93328 5.67193 8.50297 5.78769 9.05258C5.90344 9.60219 6.18917 10.107 6.60872 10.5033C7.02828 10.8995 7.56283 11.1694 8.14477 11.2787C8.72672 11.388 9.32992 11.3319 9.87809 11.1175C10.4263 10.903 10.8948 10.5399 11.2245 10.0739C11.5541 9.608 11.73 9.0602 11.73 8.49982C11.73 7.74838 11.414 7.02771 10.8514 6.49635C10.2888 5.965 9.52569 5.66649 8.73004 5.66649ZM8.73004 9.91649C8.43337 9.91649 8.14336 9.8334 7.89669 9.67774C7.65001 9.52207 7.45776 9.30082 7.34422 9.04196C7.23069 8.7831 7.20099 8.49825 7.25887 8.22345C7.31674 7.94864 7.45961 7.69621 7.66938 7.49809C7.87916 7.29996 8.14644 7.16504 8.43741 7.11038C8.72838 7.05572 9.02998 7.08377 9.30407 7.19099C9.57816 7.29822 9.81243 7.4798 9.97725 7.71277C10.1421 7.94574 10.23 8.21963 10.23 8.49982C10.23 8.87555 10.072 9.23588 9.7907 9.50156C9.5094 9.76723 9.12787 9.91649 8.73004 9.91649Z" fill="black"/>
</svg>
