<svg width="16" height="15" viewBox="0 0 16 15" fill="none" xmlns="http://www.w3.org/2000/svg">
<path d="M7.30113 4.02979V1.07583C7.30113 0.761736 7.55165 0.499992 7.86849 0.499992C8.15217 0.499992 8.39251 0.719929 8.43059 0.998517L8.43585 1.07583V4.02979M7.30113 4.02979L3.76427 4.03002L3.61101 4.03372C1.88381 4.11725 0.500114 5.60483 0.500114 7.40834V11.1138L0.503679 11.2734C0.584179 13.0709 2.01798 14.4998 3.77164 14.4998H11.9652L12.1185 14.4961C13.8461 14.413 15.2367 12.9326 15.2367 11.1291V7.41594L15.2331 7.25703C15.1522 5.46607 13.7115 4.03002 11.9578 4.03002L8.43585 4.02979M7.30113 4.02979L7.30106 8.74749L6.12213 7.53008C5.90108 7.30181 5.54003 7.30181 5.31898 7.53008C5.20846 7.64421 5.15688 7.79639 5.15688 7.94856C5.15688 8.06422 5.18989 8.18474 5.25968 8.28676L5.31898 8.35944L7.46316 10.5812C7.56631 10.6953 7.71368 10.7562 7.86842 10.7562C7.99122 10.7562 8.11403 10.7139 8.21125 10.6338L8.2663 10.5812L10.4105 8.35944C10.6315 8.13117 10.6315 7.75834 10.4105 7.53008C10.2095 7.32256 9.89287 7.3037 9.67088 7.47348L9.60733 7.53008L8.43577 8.74749L8.43585 4.02979M7.30113 4.02979H8.43585" stroke="white"/>
</svg>
