<svg width="15" height="15" viewBox="0 0 15 15" fill="none" xmlns="http://www.w3.org/2000/svg">
<path d="M14.1047 0.90738C13.7546 0.548014 13.2364 0.414133 12.7532 0.555061L1.48565 3.83164C0.975842 3.97327 0.614497 4.37985 0.517158 4.89635C0.417718 5.42201 0.765057 6.0893 1.21884 6.36834L4.74195 8.5337C5.1033 8.75566 5.56968 8.69999 5.86871 8.39841L9.90302 4.33898C10.1061 4.12758 10.4422 4.12758 10.6453 4.33898C10.8484 4.54332 10.8484 4.8745 10.6453 5.08589L6.604 9.14603C6.30428 9.44691 6.24826 9.9155 6.46885 10.2791L8.62151 13.8375C8.87361 14.2603 9.30778 14.4999 9.78398 14.4999C9.84 14.4999 9.90302 14.4999 9.95905 14.4928C10.5053 14.4224 10.9394 14.0489 11.1005 13.5204L14.4408 2.26734C14.5879 1.78818 14.4549 1.26675 14.1047 0.90738Z" stroke="white"/>
</svg>
