<svg width="20" height="19" viewBox="0 0 20 19" fill="none" xmlns="http://www.w3.org/2000/svg">
<path d="M9.87083 18.7641C8.68082 18.7641 7.88681 18.2031 7.17781 17.7081C6.6748 17.3511 6.2018 17.0121 5.6448 16.9181C5.3796 16.8725 5.11088 16.8504 4.84179 16.8521C4.36979 16.8521 3.99479 16.9231 3.72778 16.9771C3.55778 17.0071 3.41578 17.0351 3.30378 17.0351C3.18778 17.0351 3.04078 17.0031 2.98378 16.8071C2.93378 16.6471 2.90278 16.4951 2.87178 16.3481C2.79178 15.9781 2.72478 15.7511 2.58578 15.7281C1.09677 15.5011 0.20576 15.1581 0.0317587 14.7521C0.0177586 14.7081 0.000758334 14.6621 0.000758334 14.6271C-0.00924173 14.5021 0.0807591 14.4001 0.20576 14.3771C1.38677 14.1811 2.44778 13.5531 3.34378 12.5191C4.03979 11.7161 4.37879 10.9401 4.40979 10.8561C4.40979 10.8461 4.41879 10.8461 4.41879 10.8461C4.58879 10.4951 4.62379 10.1961 4.52079 9.95107C4.32979 9.49107 3.69578 9.29506 3.26378 9.16106C3.15278 9.13106 3.05878 9.09506 2.97878 9.06806C2.60878 8.92106 1.99277 8.60806 2.07377 8.17606C2.13177 7.86405 2.54578 7.64105 2.88478 7.64105C2.97878 7.64105 3.05878 7.65505 3.12478 7.69105C3.50478 7.86405 3.84778 7.95305 4.14179 7.95305C4.50779 7.95305 4.68179 7.81505 4.72579 7.77105C4.71648 7.57325 4.70481 7.37557 4.69079 7.17805C4.60079 5.81304 4.49879 4.11903 4.93079 3.14802C6.2288 0.241001 8.98382 0.00799995 9.79983 0.00799995L10.1558 0H10.2058C11.0208 0 13.7759 0.227002 15.0739 3.13902C15.5109 4.11003 15.4039 5.80904 15.3139 7.16905L15.3059 7.23605C15.2959 7.41805 15.2829 7.59205 15.2739 7.77105C15.3189 7.80605 15.4789 7.94005 15.8089 7.94405C16.0949 7.93605 16.4069 7.84205 16.7629 7.68105C16.8614 7.63844 16.9675 7.616 17.0749 7.61505C17.1999 7.61505 17.3249 7.64505 17.4319 7.68105H17.4409C17.7399 7.79305 17.9359 8.00205 17.9359 8.22106C17.9449 8.42606 17.7839 8.73806 17.0219 9.04606C16.9419 9.07606 16.8479 9.11306 16.7369 9.13906C16.3129 9.26906 15.6799 9.47407 15.4789 9.92907C15.3679 10.1691 15.4129 10.4771 15.5819 10.8241C15.5819 10.8341 15.5909 10.8341 15.5909 10.8341C15.6399 10.9581 16.9279 13.8831 19.7949 14.3601C19.8535 14.37 19.9065 14.4007 19.9442 14.4467C19.9819 14.4927 20.0017 14.5507 19.9999 14.6101C19.9999 14.6541 19.9909 14.6991 19.9689 14.7391C19.7949 15.1491 18.9119 15.4831 17.4139 15.7151C17.2759 15.7371 17.2089 15.9651 17.1289 16.3351C17.0968 16.4894 17.0595 16.6425 17.0169 16.7941C16.9729 16.9411 16.8789 17.0211 16.7189 17.0211H16.6959C16.5939 17.0211 16.4559 17.0081 16.2729 16.9721C15.9064 16.894 15.5326 16.8551 15.1579 16.8561C14.8949 16.8561 14.6229 16.8791 14.3559 16.9231C13.8029 17.0131 13.3258 17.3561 12.8218 17.7131C12.1048 18.2031 11.3068 18.7641 10.1248 18.7641H9.87083Z" fill="#FFB801"/>
</svg>
