<svg width="179" height="200" viewBox="0 0 179 200" fill="none" xmlns="http://www.w3.org/2000/svg">
<path d="M51.0616 44.6618C49.6914 45.1847 48.2923 45.628 46.8712 45.9894C44.9939 46.4477 43.9341 46.6602 42.1222 45.9557C42.0586 45.931 41.9978 45.9065 41.9405 45.8825C38.5062 44.4196 35.5705 41.9882 33.4907 38.8841C31.4109 35.78 30.2767 32.1372 30.2261 28.399C30.2171 28.2708 30.2171 28.1359 30.2171 28.0044C30.2153 27.3709 30.2455 26.7376 30.3077 26.1071C30.3871 25.2483 30.5242 24.3958 30.7181 23.5555L30.7 23.5522C29.2331 22.0495 28.6687 19.991 28.8558 17.9227C28.984 16.5205 29.4282 15.1658 30.155 13.9605C30.8817 12.7553 31.8721 11.731 33.0514 10.9649C34.8995 9.80079 36.9834 9.06391 39.1515 8.8078C39.7337 8.74056 40.3192 8.70652 40.9052 8.70587H46.4108C47.5478 8.43917 48.703 8.25673 49.8668 8.16002H49.8759C60.9564 7.23932 69.6946 14.5983 68.8797 23.5522C68.8736 23.562 68.8646 23.5719 68.8585 23.5818C68.6231 23.9665 68.4148 24.3315 68.2307 24.68C68.0526 25.0055 67.9017 25.3179 67.7719 25.6139C66.7607 27.9025 71.566 63.41 69.8425 63.9493C68.8615 64.2551 64.9075 37.8329 65.6168 42.8573C66.5102 49.1608 56.1663 42.7714 51.0616 44.6618Z" fill="#2F2E41"/>
<path d="M67.7539 108.849L83.1136 141.63L24.0281 135.635L36.3619 104.166L67.7539 108.849Z" fill="#FFB6B6"/>
<path d="M98.5872 174.574C88.3126 178 77.4848 179.453 66.6723 178.857L61.9705 171.218C61.9705 171.218 61.7736 174.063 61.48 178.412C56.3329 177.814 51.253 176.735 46.3067 175.189C36.9265 172.251 28.1336 167.698 19.2205 163.499C17.4152 152.718 16.7378 136.093 26.7187 126.415L80.4407 136.277C80.4407 136.277 89.0601 142.736 86.7543 145.049C84.4484 147.359 84.0913 147.001 85.6063 148.519C87.1213 150.037 90.3949 152.066 90.4283 153.393C90.4416 153.911 94.1156 163.308 98.5872 174.574Z" fill="#2F2E41"/>
<path d="M58.3726 45.504L45.3935 46.4111L37.0047 54.5319L34.0667 55.0573C31.4259 55.529 29.0496 56.9551 27.3885 59.0653C25.7274 61.1754 24.8971 63.8228 25.0548 66.5055C25.6592 76.7626 27.0122 92.0886 29.8403 97.0609C34.2255 104.771 37.8476 102.352 34.2255 104.771C30.6034 107.19 28.1717 105.289 29.8403 109.112C31.5089 112.935 27.585 117.839 27.585 117.839L26.023 119.404L27.6797 120.084L80.4695 126.965C80.4695 126.965 75.905 106.405 78.7596 101.355C81.6142 96.3042 88.5356 81.0372 82.3584 75.0635L76.3185 53.7707L65.9292 50.701L58.3726 45.504Z" fill="#8982FF"/>
<path d="M136.941 129.889C136.072 129.861 135.22 129.645 134.443 129.255C133.666 128.865 132.983 128.31 132.441 127.63C131.899 126.949 131.511 126.159 131.304 125.313C131.097 124.468 131.075 123.587 131.241 122.733L106.479 105.932L109.433 97.9283L138.698 118.098C140.114 118.485 141.338 119.378 142.139 120.609C142.941 121.839 143.264 123.322 143.047 124.775C142.831 126.229 142.089 127.552 140.964 128.494C139.838 129.437 138.407 129.933 136.941 129.889V129.889Z" fill="#FFB6B6"/>
<path d="M66.9988 52.7651L63.4005 54.1924L82.5954 91.7487L122.332 118.883L128.06 109.185L97.8119 83.0111L85.7021 59.7444C83.9978 56.4701 81.1429 53.9446 77.6887 52.6556C74.2345 51.3666 70.426 51.4056 66.9988 52.7651Z" fill="#8982FF"/>
<path d="M51.2074 42.201C58.4052 42.201 64.2402 36.3555 64.2402 29.1447C64.2402 21.9339 58.4052 16.0884 51.2074 16.0884C44.0095 16.0884 38.1745 21.9339 38.1745 29.1447C38.1745 36.3555 44.0095 42.201 51.2074 42.201Z" fill="#FFB6B6"/>
<path d="M62.5409 23.623C62.3236 23.7379 62.1093 23.8438 61.892 23.9496C61.6656 24.0585 61.4392 24.1673 61.2098 24.2701C56.8483 26.2507 53.2956 26.4715 51.1405 23.623C51.0815 22.1245 50.7448 20.65 50.1474 19.2748C50.253 20.8116 49.8487 22.3402 48.9974 23.623H44.657C40.1867 26.5954 37.8928 29.326 40.9957 39.0838C41.1979 39.7249 42.5833 62.5003 42.9787 64.2511C36.2115 61.6506 30.3739 34.0401 30.226 26.7648C30.217 26.6469 30.217 26.5229 30.217 26.4019C30.2152 25.8191 30.2455 25.2367 30.3076 24.6572C30.3872 23.8661 30.5244 23.0818 30.718 22.3107L30.6999 22.3077C30.0114 21.6482 29.4861 20.8368 29.1659 19.938C28.8458 19.0393 28.7395 18.078 28.8557 17.1309C29.9909 15.6418 31.3958 14.3801 32.9969 13.4116C34.4528 12.7053 35.9704 12.1344 37.5305 11.7062C37.5698 11.6971 37.603 11.688 37.6422 11.679C38.1191 11.5489 38.6081 11.431 39.0971 11.3282C40.1048 11.1165 41.1236 10.962 42.1487 10.8655C42.2241 10.8625 42.2966 10.8565 42.363 10.8565C42.773 10.8567 43.1754 10.9674 43.5281 11.177C43.5311 11.177 43.5311 11.18 43.5371 11.18C43.876 11.3828 44.157 11.6697 44.3531 12.0128C44.5493 12.356 44.6539 12.744 44.657 13.1394H49.4924C49.6705 13.1394 49.8486 13.1455 50.0267 13.1546C56.7607 13.4237 62.1727 16.3084 62.5198 22.9397C62.5349 23.1695 62.5409 23.3932 62.5409 23.623Z" fill="#2F2E41"/>
<path d="M33.953 24.1484C38.695 24.1484 42.5391 20.2974 42.5391 15.5469C42.5391 10.7964 38.695 6.94532 33.953 6.94532C29.211 6.94532 25.3669 10.7964 25.3669 15.5469C25.3669 20.2974 29.211 24.1484 33.953 24.1484Z" fill="#2F2E41"/>
<path d="M45.7407 11.5682C44.7652 16.2171 39.9526 18.9975 35.3486 17.8602C33.1376 17.314 31.2338 15.9103 30.056 13.9579C28.8781 12.0055 28.5227 9.66431 29.0679 7.44939C30.2032 2.83705 35.7908 4.16674 39.46 1.1574C44.6505 -3.09974 47.0561 5.29875 45.7407 11.5682Z" fill="#2F2E41"/>
<path d="M26.6638 140.975C33.9816 111.08 48.481 85.3843 72.4941 65.2521C73.4234 63.7205 74.9213 62.6208 76.659 62.1941C78.3967 61.7675 80.2324 62.0488 81.7633 62.9763L138.848 97.6506C140.377 98.5816 141.475 100.082 141.901 101.823C142.327 103.564 142.046 105.403 141.12 106.936C131.955 137.612 118.227 164.231 95.2899 182.66C94.3605 184.191 92.8627 185.291 91.125 185.718C89.3873 186.144 87.5516 185.863 86.0207 184.936L28.9355 150.261C27.4067 149.33 26.3089 147.83 25.883 146.089C25.4571 144.348 25.7379 142.509 26.6638 140.975Z" fill="#F2F2F2"/>
<path opacity="0.2" d="M36.8101 151.051C35.2813 150.12 34.1835 148.619 33.7576 146.878C33.3317 145.137 33.6125 143.298 34.5384 141.765C41.8562 111.869 56.3557 86.1736 80.3686 66.0414C80.9838 65.0389 81.8524 64.2169 82.8866 63.6587L81.7633 62.9763C80.2323 62.0488 78.3967 61.7675 76.659 62.1941C74.9213 62.6207 73.4234 63.7204 72.4941 65.252C48.481 85.3843 33.9816 111.08 26.6638 140.975C25.7379 142.509 25.4571 144.348 25.883 146.089C26.3089 147.83 27.4067 149.33 28.9355 150.261L86.0206 184.936C87.0366 185.548 88.1962 185.88 89.3818 185.899C90.5675 185.918 91.737 185.623 92.7719 185.043L36.8101 151.051Z" fill="black"/>
<path d="M103.756 134.348L65.4381 111.219C64.8294 110.85 64.3915 110.255 64.2207 109.563C64.0499 108.871 64.1602 108.14 64.5273 107.529C64.8943 106.919 65.4882 106.48 66.1785 106.308C66.8688 106.136 67.599 106.245 68.2087 106.612L106.527 129.742C107.134 130.111 107.571 130.706 107.74 131.397C107.91 132.089 107.8 132.819 107.433 133.428C107.067 134.038 106.474 134.477 105.785 134.65C105.095 134.822 104.366 134.714 103.756 134.348L103.756 134.348Z" fill="white"/>
<path d="M81.4651 103.676L73.0351 98.5876C72.4242 98.2215 71.9835 97.6272 71.81 96.9355C71.6364 96.2439 71.7442 95.5115 72.1097 94.8995C72.4752 94.2874 73.0684 93.8459 73.7588 93.6721C74.4492 93.4982 75.1803 93.6062 75.7912 93.9724L75.8057 93.9812L84.2357 99.0697C84.8432 99.4388 85.2797 100.034 85.4497 100.725C85.6197 101.416 85.5093 102.147 85.1426 102.757C84.7759 103.366 84.1829 103.805 83.4936 103.978C82.8042 104.15 82.0748 104.042 81.4651 103.676Z" fill="white"/>
<path d="M97.666 144.474L59.3478 121.344C58.7383 120.977 58.2995 120.382 58.1278 119.69C57.956 118.998 58.0654 118.267 58.4318 117.656C58.7982 117.045 59.3918 116.605 60.082 116.432C60.7723 116.259 61.5027 116.368 62.1129 116.734L62.1183 116.738L100.437 139.867C101.044 140.237 101.48 140.832 101.65 141.523C101.82 142.214 101.71 142.944 101.343 143.554C100.976 144.164 100.383 144.603 99.6942 144.775C99.0049 144.948 98.2756 144.839 97.6659 144.474L97.666 144.474Z" fill="white"/>
<path d="M108.622 90.7368C114.804 90.7368 119.814 85.717 119.814 79.5247C119.814 73.3324 114.804 68.3126 108.622 68.3126C102.441 68.3126 97.4304 73.3324 97.4304 79.5247C97.4304 85.717 102.441 90.7368 108.622 90.7368Z" fill="#3F3D56"/>
<path d="M89.3302 199.666C102.541 199.666 113.251 188.937 113.251 175.702C113.251 162.467 102.541 151.737 89.3302 151.737C76.1189 151.737 65.409 162.467 65.409 175.702C65.409 188.937 76.1189 199.666 89.3302 199.666Z" fill="white"/>
<path d="M89.3303 200C84.5332 200 79.8437 198.575 75.855 195.905C71.8664 193.235 68.7576 189.44 66.9218 185C65.086 180.56 64.6056 175.675 65.5415 170.961C66.4774 166.248 68.7874 161.918 72.1795 158.52C75.5716 155.122 79.8934 152.808 84.5983 151.87C89.3033 150.932 94.1801 151.414 98.6121 153.253C103.044 155.092 106.832 158.206 109.497 162.202C112.163 166.198 113.585 170.896 113.585 175.701C113.578 182.143 111.02 188.32 106.473 192.875C101.926 197.43 95.7609 199.993 89.3303 200ZM89.3303 152.072C84.6652 152.072 80.1048 153.457 76.2258 156.054C72.3469 158.65 69.3236 162.341 67.5383 166.659C65.7531 170.977 65.286 175.728 66.1961 180.312C67.1062 184.895 69.3527 189.106 72.6515 192.41C75.9503 195.715 80.1532 197.966 84.7287 198.877C89.3043 199.789 94.0469 199.321 98.3569 197.533C102.667 195.744 106.351 192.715 108.943 188.829C111.534 184.944 112.918 180.375 112.918 175.701C112.911 169.436 110.423 163.43 106.001 159C101.579 154.57 95.5839 152.079 89.3303 152.072Z" fill="#3F3D56"/>
<path d="M86.0669 188.174C85.6539 188.174 85.2464 188.078 84.877 187.893C84.5075 187.708 84.1862 187.439 83.9384 187.108L77.4124 178.39C77.2024 178.11 77.0495 177.792 76.9625 177.452C76.8756 177.113 76.8562 176.76 76.9055 176.413C76.9548 176.067 77.0718 175.733 77.2499 175.432C77.428 175.13 77.6636 174.867 77.9433 174.657C78.223 174.447 78.5413 174.294 78.88 174.207C79.2187 174.12 79.5712 174.101 79.9172 174.151C80.2633 174.2 80.5962 174.318 80.897 174.497C81.1977 174.675 81.4603 174.911 81.6698 175.192L85.9394 180.894L96.9052 164.416C97.0991 164.125 97.3483 163.875 97.6386 163.68C97.929 163.485 98.2547 163.35 98.5974 163.281C98.94 163.212 99.2928 163.212 99.6356 163.28C99.9784 163.348 100.305 163.483 100.595 163.677C100.886 163.871 101.136 164.121 101.33 164.412C101.525 164.702 101.66 165.029 101.729 165.372C101.797 165.715 101.797 166.069 101.73 166.412C101.662 166.756 101.527 167.082 101.333 167.374L88.2812 186.987C88.0451 187.342 87.7275 187.635 87.3551 187.841C86.9828 188.047 86.5664 188.161 86.141 188.173C86.1163 188.174 86.0916 188.174 86.0669 188.174Z" fill="#8982FF"/>
<path d="M166.584 54.2623C167.534 54.1809 168.259 53.5779 168.202 52.9154C168.146 52.253 167.329 51.782 166.379 51.8634C165.428 51.9448 164.704 52.5478 164.76 53.2103C164.817 53.8727 165.633 54.3438 166.584 54.2623Z" fill="white"/>
<path d="M177.279 50.6276C178.229 50.5461 178.954 49.9431 178.898 49.2806C178.841 48.6182 178.025 48.1472 177.074 48.2286C176.124 48.31 175.399 48.9131 175.455 49.5755C175.512 50.238 176.328 50.709 177.279 50.6276Z" fill="#3F3D56"/>
<path d="M161.514 46.0875C162.465 46.0061 163.19 45.4031 163.133 44.7406C163.077 44.0782 162.26 43.6071 161.31 43.6886C160.359 43.77 159.634 44.373 159.691 45.0355C159.747 45.6979 160.564 46.1689 161.514 46.0875Z" fill="#FF6584"/>
<path d="M157.028 43.4538C157.437 43.3612 157.661 42.8085 157.528 42.2193C157.395 41.6301 156.956 41.2275 156.546 41.3202C156.137 41.4128 155.913 41.9655 156.046 42.5547C156.179 43.1438 156.619 43.5464 157.028 43.4538Z" fill="#E6E6E6"/>
<path d="M153.834 37.0597C154.243 36.9671 154.467 36.4144 154.334 35.8252C154.201 35.236 153.762 34.8335 153.353 34.9261C152.944 35.0187 152.72 35.5714 152.853 36.1606C152.985 36.7498 153.425 37.1523 153.834 37.0597Z" fill="#3F3D56"/>
<path d="M169.159 46.0392C169.568 45.9466 169.792 45.3939 169.659 44.8047C169.526 44.2156 169.087 43.813 168.677 43.9056C168.268 43.9982 168.044 44.5509 168.177 45.1401C168.31 45.7293 168.749 46.1318 169.159 46.0392Z" fill="#E6E6E6"/>
<path d="M164.487 49.924C164.896 49.8314 165.12 49.2787 164.987 48.6895C164.855 48.1003 164.415 47.6978 164.006 47.7904C163.597 47.883 163.373 48.4357 163.506 49.0249C163.639 49.614 164.078 50.0166 164.487 49.924Z" fill="#FF6584"/>
<path d="M172.992 53.0885C173.401 52.9959 173.625 52.4432 173.492 51.8541C173.359 51.2649 172.919 50.8623 172.51 50.9549C172.101 51.0475 171.877 51.6002 172.01 52.1894C172.143 52.7786 172.582 53.1811 172.992 53.0885Z" fill="#3F3D56"/>
<path d="M122.427 4.7282C122.59 4.0837 121.973 3.37091 121.048 3.13612C120.123 2.90133 119.241 3.23347 119.078 3.87797C118.915 4.52246 119.533 5.23526 120.457 5.47005C121.382 5.70483 122.264 5.3727 122.427 4.7282Z" fill="white"/>
<path d="M111.134 4.65494C111.297 4.01044 110.679 3.29764 109.754 3.06286C108.83 2.82807 107.948 3.16021 107.785 3.8047C107.622 4.4492 108.239 5.16202 109.164 5.3968C110.089 5.63159 110.971 5.29943 111.134 4.65494Z" fill="#3F3D56"/>
<path d="M124.547 14.1149C124.71 13.4704 124.092 12.7576 123.167 12.5229C122.242 12.2881 121.361 12.6202 121.198 13.2647C121.035 13.9092 121.652 14.622 122.577 14.8568C123.502 15.0916 124.384 14.7594 124.547 14.1149Z" fill="#FF6584"/>
<path d="M127.179 17.6543C127.246 17.054 126.963 16.5296 126.546 16.4829C126.129 16.4363 125.737 16.8851 125.67 17.4854C125.603 18.0857 125.886 18.6101 126.303 18.6568C126.72 18.7034 127.112 18.2546 127.179 17.6543Z" fill="#E6E6E6"/>
<path d="M128.108 24.7437C128.175 24.1434 127.891 23.6189 127.474 23.5723C127.058 23.5256 126.665 23.9744 126.598 24.5747C126.531 25.175 126.815 25.6995 127.232 25.7461C127.649 25.7928 128.041 25.344 128.108 24.7437Z" fill="#3F3D56"/>
<path d="M116.562 11.2329C116.629 10.6326 116.345 10.1082 115.928 10.0615C115.512 10.0149 115.119 10.4637 115.052 11.064C114.986 11.6643 115.269 12.1887 115.686 12.2354C116.103 12.282 116.495 11.8332 116.562 11.2329Z" fill="#E6E6E6"/>
<path d="M122.245 9.09427C122.312 8.49397 122.029 7.96951 121.612 7.92285C121.195 7.87619 120.803 8.325 120.736 8.92529C120.669 9.52559 120.952 10.05 121.369 10.0967C121.786 10.1434 122.178 9.69456 122.245 9.09427Z" fill="#FF6584"/>
<path d="M115.243 3.31545C115.31 2.71516 115.027 2.1907 114.61 2.14404C114.193 2.09737 113.801 2.54618 113.734 3.14648C113.667 3.74677 113.951 4.27123 114.367 4.31789C114.784 4.36455 115.177 3.91575 115.243 3.31545Z" fill="#3F3D56"/>
<path d="M30.2227 141.293C29.3697 140.942 28.6029 140.411 27.9752 139.735C27.3474 139.058 26.8738 138.254 26.5871 137.376C26.3004 136.498 26.2074 135.569 26.3145 134.652C26.4217 133.735 26.7264 132.852 27.2076 132.064L8.8191 106.169L14.7183 99.3126L36.3342 130.229C37.5972 131.139 38.4832 132.481 38.8241 134.002C39.165 135.523 38.9372 137.116 38.1839 138.48C37.4306 139.844 36.2041 140.883 34.7368 141.402C33.2695 141.92 31.6633 141.881 30.2227 141.293H30.2227Z" fill="#FFB6B6"/>
<path d="M30.6456 59.2318C29.7153 58.6834 28.6203 58.4852 27.5573 58.6727C26.4943 58.8602 25.5327 59.4211 24.8453 60.2548L0 95.0649L23.0251 127.826L32.035 118.131L18.0197 96.0678L36.6461 78.3013C38.1768 74.942 38.4106 71.1337 37.3024 67.6118C36.1941 64.09 33.8225 61.1044 30.6456 59.2318Z" fill="#8982FF"/>
</svg>
