<svg width="293" height="161" viewBox="0 0 293 161" fill="none" xmlns="http://www.w3.org/2000/svg">
<path d="M0.500488 0V161" stroke="#E6E6E6"/>
<path d="M53.8215 0V161" stroke="#E6E6E6"/>
<path d="M110.219 0V161" stroke="#E6E6E6"/>
<path d="M166.616 0V161" stroke="#E6E6E6"/>
<path d="M223.013 0V161" stroke="#E6E6E6"/>
<path d="M279.027 0V161" stroke="#E6E6E6"/>
<path d="M62.9283 5.5V11.5L0.500072 11.5V5.5L62.9283 5.5Z" fill="#8982FF" stroke="white"/>
<path d="M208.914 28.5V34.5L0.500069 34.5V28.5L208.914 28.5Z" fill="#8982FF" stroke="white"/>
<path d="M111.91 51.5V57.5L0.500046 57.5V51.5L111.91 51.5Z" fill="#8982FF" stroke="white"/>
<path d="M292.472 74.5V80.5L0.500244 80.5V74.5L292.472 74.5Z" fill="#8982FF" stroke="white"/>
<path d="M279.027 97.5V103.5L0.500408 103.5V97.5L279.027 97.5Z" fill="#8982FF" stroke="white"/>
<path d="M279.027 120.5V126.5L0.500408 126.5V120.5L279.027 120.5Z" fill="#8982FF" stroke="white"/>
<path d="M236.767 143.5V149.5L0.50013 149.5V143.5L236.767 143.5Z" fill="#8982FF" stroke="white"/>
<path d="M52.3638 12.5V18.5L0.500278 18.5V12.5L52.3638 12.5Z" fill="#EEEEEE" stroke="white"/>
<path d="M139.763 35.5V41.5L0.5 41.5V35.5L139.763 35.5Z" fill="#EEEEEE" stroke="white"/>
<path d="M279.027 58.5V64.5L0.500427 64.5V58.5L279.027 58.5Z" fill="#EEEEEE" stroke="white"/>
<path d="M108.069 81.5V87.5H0.500412V81.5H108.069Z" fill="#EEEEEE" stroke="white"/>
<path d="M69.6515 104.5V110.5H0.500153V104.5H69.6515Z" fill="#EEEEEE" stroke="white"/>
<path d="M69.6515 127.5V133.5H0.500153V127.5H69.6515Z" fill="#EEEEEE" stroke="white"/>
<path d="M163.774 150.5V156.5H0.500038V150.5H163.774Z" fill="#EEEEEE" stroke="white"/>
</svg>
