<svg width="20" height="20" viewBox="0 0 20 20" fill="none" xmlns="http://www.w3.org/2000/svg">
<path d="M17.989 9.572C17.907 7.99791 17.3596 6.4836 16.416 5.221C16.1285 5.53063 15.8212 5.82124 15.496 6.091C14.4969 6.92085 13.3805 7.59819 12.183 8.101C12.35 8.451 12.503 8.79 12.638 9.11V9.113C12.6761 9.20241 12.7128 9.29242 12.748 9.383C14.262 9.213 15.858 9.275 17.405 9.484C17.611 9.512 17.805 9.542 17.989 9.572ZM8.604 2.122C9.57854 3.49517 10.4772 4.92064 11.296 6.392C12.519 5.91 13.53 5.302 14.344 4.625C14.6266 4.39213 14.8925 4.13985 15.14 3.87C13.701 2.65972 11.8803 1.99733 10 2C9.53203 1.99968 9.06493 2.04017 8.604 2.121V2.122ZM2.253 7.997C2.93423 7.97981 3.61464 7.93878 4.293 7.874C5.93264 7.72734 7.55828 7.4525 9.155 7.052C8.32051 5.60221 7.41955 4.19171 6.455 2.825C5.42472 3.3354 4.51626 4.06141 3.79124 4.95379C3.06623 5.84617 2.54162 6.88404 2.253 7.997ZM3.783 15.035C4.171 14.468 4.681 13.83 5.358 13.136C6.812 11.646 8.528 10.486 10.514 9.846L10.576 9.828C10.411 9.464 10.256 9.139 10.1 8.833C8.264 9.368 6.33 9.702 4.403 9.875C3.463 9.96 2.62 9.997 2 10.003C1.99823 11.8356 2.62829 13.6128 3.784 15.035H3.783ZM13.005 17.415C12.6194 15.4703 12.0735 13.5607 11.373 11.706C9.371 12.433 7.776 13.496 6.543 14.764C6.0454 15.2664 5.60382 15.8213 5.226 16.419C6.60481 17.4478 8.27968 18.0025 10 18C11.0299 18.0015 12.0504 17.8035 13.005 17.417V17.415ZM14.878 16.34C16.4393 15.1398 17.5028 13.4057 17.865 11.47C17.525 11.385 17.094 11.3 16.62 11.234C15.5661 11.0822 14.4968 11.0711 13.44 11.201C14.0351 12.8798 14.5155 14.5971 14.878 16.341V16.34ZM10 20C4.477 20 0 15.523 0 10C0 4.477 4.477 0 10 0C15.523 0 20 4.477 20 10C20 15.523 15.523 20 10 20Z" fill="#E84C88"/>
</svg>
