<svg width="21" height="20" viewBox="0 0 21 20" fill="none" xmlns="http://www.w3.org/2000/svg">
<path fill-rule="evenodd" clip-rule="evenodd" d="M20.2369 12.3582H16.1177C14.6053 12.3573 13.3794 11.1323 13.3785 9.61988C13.3785 8.10744 14.6053 6.88246 16.1177 6.88153H20.2369" fill="#EDECFF"/>
<path fill-rule="evenodd" clip-rule="evenodd" d="M16.5837 9.5572H16.2666H16.5837Z" fill="#EDECFF"/>
<path fill-rule="evenodd" clip-rule="evenodd" d="M6.10259 0.76312H14.8972C17.8461 0.76312 20.2367 3.15373 20.2367 6.10259V13.4052C20.2367 16.354 17.8461 18.7446 14.8972 18.7446H6.10259C3.15373 18.7446 0.76312 16.354 0.76312 13.4052V6.10259C0.76312 3.15373 3.15373 0.76312 6.10259 0.76312Z" fill="#EDECFF"/>
<path fill-rule="evenodd" clip-rule="evenodd" d="M5.37808 5.38067H10.8715H5.37808Z" fill="#EDECFF"/>
<path d="M20.2369 12.3582H16.1177C14.6053 12.3573 13.3794 11.1323 13.3785 9.61988C13.3785 8.10744 14.6053 6.88246 16.1177 6.88153H20.2369M16.5837 9.5572H16.2666M5.37808 5.38067H10.8715M6.10259 0.76312H14.8972C17.8461 0.76312 20.2367 3.15373 20.2367 6.10259V13.4052C20.2367 16.354 17.8461 18.7446 14.8972 18.7446H6.10259C3.15373 18.7446 0.76312 16.354 0.76312 13.4052V6.10259C0.76312 3.15373 3.15373 0.76312 6.10259 0.76312Z" stroke="#8982FF" stroke-width="1.5" stroke-linecap="round" stroke-linejoin="round"/>
</svg>
