<svg width="12" height="22" viewBox="0 0 12 22" fill="none" xmlns="http://www.w3.org/2000/svg">
<path d="M5.28968 2.81383L7.30955 8.52048L7.70453 9.63641L7.71153 4.82671L7.72153 0.00899939H11.9913L11.9993 10.8703C12.0023 16.85 11.9963 21.7597 11.9843 21.7697C11.9723 21.7787 11.7753 21.7697 11.5483 21.7427C10.5594 21.6247 9.25843 21.5067 8.2085 21.4607C7.99626 21.4527 7.78422 21.44 7.57254 21.4227C7.56954 21.4187 7.29955 20.6607 6.79659 19.2388V19.2348L4.65272 13.1742L4.31274 12.2203L4.30474 16.806C4.29874 21.1707 4.29474 21.4157 4.24774 21.4157C4.08475 21.4157 2.67784 21.5057 2.20787 21.5517C1.89988 21.5787 1.28192 21.6417 0.837949 21.6967C0.391976 21.7477 0.0219985 21.7817 0.014999 21.7747C0.0059995 21.7687 0 16.866 0 10.8823V0.00199985H0.00499981V0H4.29274L4.32074 0.0799952C4.32774 0.0959942 4.38573 0.255984 4.47773 0.516968L5.11869 2.29486L5.29168 2.79083L5.29068 2.81383H5.28968Z" fill="#E50913"/>
</svg>
