<svg width="37" height="32" viewBox="0 0 37 32" fill="none" xmlns="http://www.w3.org/2000/svg">
<g clip-path="url(#clip0_805_105)">
<path d="M35.9721 14H34.0771C33.5119 12.75 32.6896 11.6438 31.6747 10.7188L32.8888 6H30.8332C28.9447 6 27.2745 6.84375 26.144 8.14375C25.6558 8.075 25.174 8 24.6666 8H16.4443C11.4725 8 7.32923 11.4375 6.37212 16H3.59712C2.64642 16 1.89486 15.1562 2.08757 14.2C2.22889 13.4875 2.91621 13 3.66135 13H3.72559C3.93757 13 4.11101 12.8313 4.11101 12.625V11.375C4.11101 11.1687 3.93757 11 3.72559 11C1.89486 11 0.263263 12.275 0.0320127 14.0375C-0.250626 16.175 1.45805 18 3.59712 18H6.16656C6.16656 21.2625 7.79816 24.1312 10.2777 25.9562V31C10.2777 31.55 10.7402 32 11.3054 32H15.4166C15.9818 32 16.4443 31.55 16.4443 31V28H24.6666V31C24.6666 31.55 25.1291 32 25.6943 32H29.8054C30.3707 32 30.8332 31.55 30.8332 31V25.9562C31.5912 25.4 32.2657 24.7437 32.8438 24H35.9721C36.5374 24 36.9999 23.55 36.9999 23V15C36.9999 14.45 36.5374 14 35.9721 14ZM27.7499 18C27.1846 18 26.7221 17.55 26.7221 17C26.7221 16.45 27.1846 16 27.7499 16C28.3152 16 28.7777 16.45 28.7777 17C28.7777 17.55 28.3152 18 27.7499 18ZM16.4443 6H24.6666C25.0134 6 25.3539 6.025 25.6879 6.05C25.6879 6.03125 25.6943 6.01875 25.6943 6C25.6943 2.6875 22.9322 0 19.5277 0C16.1232 0 13.361 2.6875 13.361 6C13.361 6.13125 13.3931 6.25625 13.3995 6.3875C14.3759 6.14375 15.3909 6 16.4443 6Z" fill="white"/>
</g>
<defs>
<clipPath id="clip0_805_105">
<rect width="37" height="32" fill="white"/>
</clipPath>
</defs>
</svg>
