<svg width="25" height="25" viewBox="0 0 25 25" fill="none" xmlns="http://www.w3.org/2000/svg">
<rect width="25" height="25" rx="12.5" fill="#8982FF"/>
<path fill-rule="evenodd" clip-rule="evenodd" d="M14.5318 8.18477C15.1508 8.43113 15.3401 9.28911 15.5932 9.56488C15.8463 9.84066 16.2085 9.93443 16.4089 9.93443C17.474 9.93443 18.3375 10.7979 18.3375 11.8624V15.4138C18.3375 16.8417 17.1793 18 15.7513 18H9.58618C8.15765 18 7 16.8417 7 15.4138V11.8624C7 10.7979 7.86349 9.93443 8.9286 9.93443C9.12839 9.93443 9.49058 9.84066 9.74429 9.56488C9.9974 9.28911 10.1861 8.43113 10.8051 8.18477C11.4247 7.93841 13.9128 7.93841 14.5318 8.18477Z" stroke="white" stroke-linecap="round" stroke-linejoin="round"/>
<path d="M16.0366 11.5237H16.0421" stroke="white" stroke-linecap="round" stroke-linejoin="round"/>
<path fill-rule="evenodd" clip-rule="evenodd" d="M14.6168 13.7475C14.6168 12.6714 13.7448 11.7993 12.6686 11.7993C11.5925 11.7993 10.7204 12.6714 10.7204 13.7475C10.7204 14.8237 11.5925 15.6957 12.6686 15.6957C13.7448 15.6957 14.6168 14.8237 14.6168 13.7475Z" stroke="white" stroke-linecap="round" stroke-linejoin="round"/>
</svg>
