<svg width="48" height="15" viewBox="0 0 48 15" fill="none" xmlns="http://www.w3.org/2000/svg">
<path d="M43.981 14.7835L43.5357 12.6089H38.5601L37.7684 14.768L33.7804 14.7758C35.679 10.3166 37.5816 5.85917 39.4883 1.40335C39.8129 0.647551 40.3889 0.262888 41.2379 0.266753C41.8871 0.272552 42.9459 0.272551 44.4165 0.268685L47.5 14.7777L43.981 14.7835ZM39.6803 9.63015H42.8866L41.6892 4.17912L39.6803 9.63015ZM13.9729 0.26482L17.9827 0.268685L11.784 14.7854L7.72469 14.7816C6.70393 10.9471 5.69587 7.10949 4.70052 3.26869C4.5026 2.50322 4.11073 1.96778 3.35667 1.71456C2.68573 1.4884 1.5675 1.14046 0 0.666882V0.270619H6.40656C7.5149 0.270619 8.16208 0.794459 8.3699 1.8692C8.57969 2.94588 9.10614 5.68685 9.95323 10.0921L13.9729 0.26482ZM23.4927 0.268685L20.3221 14.7816L16.5063 14.7777L19.6729 0.26482L23.4927 0.268685ZM31.2312 0C32.3732 0 33.8121 0.347939 34.6394 0.666882L33.9704 3.67655C33.2223 3.38273 31.9912 2.98647 30.9561 3C29.452 3.02513 28.5218 3.64175 28.5218 4.23325C28.5218 5.19588 30.1368 5.68106 31.7993 6.7326C33.6973 7.93106 33.9467 9.00773 33.9229 10.1772C33.8972 12.605 31.7993 15 27.3739 15C25.3551 14.971 24.6268 14.8048 22.9801 14.2345L23.6768 11.0934C25.3531 11.7796 26.0636 11.9981 27.4966 11.9981C28.8087 11.9981 29.9349 11.48 29.9448 10.5773C29.9527 9.93557 29.549 9.61662 28.0765 8.8241C26.604 8.02964 24.5377 6.92977 24.5654 4.72229C24.5991 1.89626 27.3402 0 31.2332 0H31.2312Z" fill="#8982FF"/>
</svg>
