<svg width="18" height="12" viewBox="0 0 18 12" fill="none" xmlns="http://www.w3.org/2000/svg">
<path fill-rule="evenodd" clip-rule="evenodd" d="M9 11.4583C12.1194 11.4583 14.9434 9.63654 17.4721 5.99308C14.9434 2.34962 12.1194 0.527888 9 0.527888C5.88066 0.527888 3.05662 2.34962 0.527888 5.99308C3.05662 9.63654 5.88066 11.4583 9 11.4583Z" fill="#8982FF"/>
<path fill-rule="evenodd" clip-rule="evenodd" d="M9.00024 2.51507C9.18428 2.51507 9.36498 2.52928 9.54132 2.55665C9.5129 2.7046 9.4986 2.85659 9.4986 3.01191C9.4986 4.38388 10.6142 5.49609 11.9904 5.49609C12.1462 5.49609 12.2987 5.48183 12.4465 5.45456C12.4745 5.6293 12.4888 5.80945 12.4888 5.99292C12.4888 7.91368 10.9269 9.47077 9.00024 9.47077C7.07359 9.47077 5.51173 7.91368 5.51173 5.99292C5.51173 4.07216 7.07359 2.51507 9.00024 2.51507Z" fill="white"/>
<path fill-rule="evenodd" clip-rule="evenodd" d="M9 11.4583C12.1194 11.4583 14.9434 9.63654 17.4721 5.99308C14.9434 2.34962 12.1194 0.527888 9 0.527888C5.88066 0.527888 3.05662 2.34962 0.527888 5.99308C3.05662 9.63654 5.88066 11.4583 9 11.4583Z" stroke="#8982FF" stroke-linecap="round" stroke-linejoin="round"/>
<path fill-rule="evenodd" clip-rule="evenodd" d="M9.00024 2.51507C9.18428 2.51507 9.36498 2.52928 9.54132 2.55665C9.5129 2.7046 9.4986 2.85659 9.4986 3.01191C9.4986 4.38388 10.6142 5.49609 11.9904 5.49609C12.1462 5.49609 12.2987 5.48183 12.4465 5.45456C12.4745 5.6293 12.4888 5.80945 12.4888 5.99292C12.4888 7.91368 10.9269 9.47077 9.00024 9.47077C7.07359 9.47077 5.51173 7.91368 5.51173 5.99292C5.51173 4.07216 7.07359 2.51507 9.00024 2.51507Z" stroke="#8982FF" stroke-linecap="round" stroke-linejoin="round"/>
</svg>
