<svg width="211" height="15" viewBox="0 0 211 15" fill="none" xmlns="http://www.w3.org/2000/svg">
<path d="M154.165 9.45C154.805 8.89667 155.309 8.44333 155.675 8.09C156.049 7.73 156.359 7.35667 156.605 6.97C156.852 6.58333 156.975 6.19667 156.975 5.81C156.975 5.41 156.879 5.09667 156.685 4.87C156.499 4.64333 156.202 4.53 155.795 4.53C155.402 4.53 155.095 4.65667 154.875 4.91C154.662 5.15667 154.549 5.49 154.535 5.91H153.435C153.455 5.15 153.682 4.57 154.115 4.17C154.555 3.76333 155.112 3.56 155.785 3.56C156.512 3.56 157.079 3.76 157.485 4.16C157.899 4.56 158.105 5.09333 158.105 5.76C158.105 6.24 157.982 6.70333 157.735 7.15C157.495 7.59 157.205 7.98667 156.865 8.34C156.532 8.68667 156.105 9.09 155.585 9.55L155.135 9.95H158.305V10.9H153.445V10.07L154.165 9.45Z" fill="#888888"/>
<path d="M159.157 4.75V3.71H161.237V11H160.087V4.75H159.157Z" fill="#888888"/>
<path d="M164.223 9.02C164.29 9.35333 164.433 9.60667 164.653 9.78C164.873 9.95333 165.17 10.04 165.543 10.04C166.016 10.04 166.363 9.85333 166.583 9.48C166.803 9.10667 166.913 8.47 166.913 7.57C166.753 7.79667 166.526 7.97333 166.233 8.1C165.946 8.22 165.633 8.28 165.293 8.28C164.86 8.28 164.466 8.19333 164.113 8.02C163.76 7.84 163.48 7.57667 163.273 7.23C163.073 6.87667 162.973 6.45 162.973 5.95C162.973 5.21667 163.186 4.63333 163.613 4.2C164.046 3.76 164.64 3.54 165.393 3.54C166.3 3.54 166.943 3.84333 167.323 4.45C167.71 5.05 167.903 5.97333 167.903 7.22C167.903 8.08 167.83 8.78333 167.683 9.33C167.543 9.87667 167.296 10.29 166.943 10.57C166.59 10.85 166.1 10.99 165.473 10.99C164.76 10.99 164.21 10.8033 163.823 10.43C163.436 10.0567 163.22 9.58667 163.173 9.02H164.223ZM165.493 7.32C165.893 7.32 166.206 7.19667 166.433 6.95C166.666 6.69667 166.783 6.36333 166.783 5.95C166.783 5.49 166.66 5.13333 166.413 4.88C166.173 4.62 165.843 4.49 165.423 4.49C165.003 4.49 164.67 4.62333 164.423 4.89C164.183 5.15 164.063 5.49333 164.063 5.92C164.063 6.32667 164.18 6.66333 164.413 6.93C164.653 7.19 165.013 7.32 165.493 7.32Z" fill="#888888"/>
<path d="M170.571 9.02C170.637 9.35333 170.781 9.60667 171.001 9.78C171.221 9.95333 171.517 10.04 171.891 10.04C172.364 10.04 172.711 9.85333 172.931 9.48C173.151 9.10667 173.261 8.47 173.261 7.57C173.101 7.79667 172.874 7.97333 172.581 8.1C172.294 8.22 171.981 8.28 171.641 8.28C171.207 8.28 170.814 8.19333 170.461 8.02C170.107 7.84 169.827 7.57667 169.621 7.23C169.421 6.87667 169.321 6.45 169.321 5.95C169.321 5.21667 169.534 4.63333 169.961 4.2C170.394 3.76 170.987 3.54 171.741 3.54C172.647 3.54 173.291 3.84333 173.671 4.45C174.057 5.05 174.251 5.97333 174.251 7.22C174.251 8.08 174.177 8.78333 174.031 9.33C173.891 9.87667 173.644 10.29 173.291 10.57C172.937 10.85 172.447 10.99 171.821 10.99C171.107 10.99 170.557 10.8033 170.171 10.43C169.784 10.0567 169.567 9.58667 169.521 9.02H170.571ZM171.841 7.32C172.241 7.32 172.554 7.19667 172.781 6.95C173.014 6.69667 173.131 6.36333 173.131 5.95C173.131 5.49 173.007 5.13333 172.761 4.88C172.521 4.62 172.191 4.49 171.771 4.49C171.351 4.49 171.017 4.62333 170.771 4.89C170.531 5.15 170.411 5.49333 170.411 5.92C170.411 6.32667 170.527 6.66333 170.761 6.93C171.001 7.19 171.361 7.32 171.841 7.32Z" fill="#888888"/>
<path d="M191.439 4.69H188.089V6.68C188.229 6.49333 188.435 6.33667 188.708 6.21C188.988 6.08333 189.285 6.02 189.598 6.02C190.158 6.02 190.612 6.14 190.958 6.38C191.312 6.62 191.562 6.92333 191.708 7.29C191.862 7.65667 191.939 8.04333 191.939 8.45C191.939 8.94333 191.842 9.38333 191.648 9.77C191.462 10.15 191.179 10.45 190.799 10.67C190.425 10.89 189.965 11 189.419 11C188.692 11 188.109 10.82 187.669 10.46C187.229 10.1 186.965 9.62333 186.878 9.03H187.988C188.062 9.34333 188.225 9.59333 188.479 9.78C188.732 9.96 189.048 10.05 189.428 10.05C189.902 10.05 190.255 9.90667 190.488 9.62C190.729 9.33333 190.848 8.95333 190.848 8.48C190.848 8 190.729 7.63333 190.488 7.38C190.248 7.12 189.895 6.99 189.428 6.99C189.102 6.99 188.825 7.07333 188.598 7.24C188.378 7.4 188.219 7.62 188.118 7.9H187.038V3.69H191.439V4.69Z" fill="#888888"/>
<path d="M193.105 5.51C193.145 4.89 193.382 4.40667 193.815 4.06C194.255 3.71333 194.815 3.54 195.495 3.54C195.962 3.54 196.365 3.62333 196.705 3.79C197.045 3.95667 197.302 4.18333 197.475 4.47C197.649 4.75667 197.735 5.08 197.735 5.44C197.735 5.85333 197.625 6.20667 197.405 6.5C197.185 6.79333 196.922 6.99 196.615 7.09V7.13C197.009 7.25 197.315 7.47 197.535 7.79C197.755 8.10333 197.865 8.50667 197.865 9C197.865 9.39333 197.775 9.74333 197.595 10.05C197.415 10.3567 197.149 10.6 196.795 10.78C196.442 10.9533 196.019 11.04 195.525 11.04C194.805 11.04 194.212 10.8567 193.745 10.49C193.285 10.1167 193.039 9.58333 193.005 8.89H194.105C194.132 9.24333 194.269 9.53333 194.515 9.76C194.762 9.98 195.095 10.09 195.515 10.09C195.922 10.09 196.235 9.98 196.455 9.76C196.675 9.53333 196.785 9.24333 196.785 8.89C196.785 8.42333 196.635 8.09333 196.335 7.9C196.042 7.7 195.589 7.6 194.975 7.6H194.715V6.66H194.985C195.525 6.65333 195.935 6.56333 196.215 6.39C196.502 6.21667 196.645 5.94333 196.645 5.57C196.645 5.25 196.542 4.99667 196.335 4.81C196.129 4.61667 195.835 4.52 195.455 4.52C195.082 4.52 194.792 4.61667 194.585 4.81C194.379 4.99667 194.255 5.23 194.215 5.51H193.105Z" fill="#888888"/>
<path d="M199.063 7.26C199.063 6.10667 199.256 5.20667 199.643 4.56C200.036 3.90667 200.709 3.58 201.663 3.58C202.616 3.58 203.286 3.90667 203.673 4.56C204.066 5.20667 204.263 6.10667 204.263 7.26C204.263 8.42667 204.066 9.34 203.673 10C203.286 10.6533 202.616 10.98 201.663 10.98C200.709 10.98 200.036 10.6533 199.643 10C199.256 9.34 199.063 8.42667 199.063 7.26ZM203.143 7.26C203.143 6.72 203.106 6.26333 203.033 5.89C202.966 5.51667 202.826 5.21333 202.613 4.98C202.399 4.74 202.083 4.62 201.663 4.62C201.243 4.62 200.926 4.74 200.713 4.98C200.499 5.21333 200.356 5.51667 200.283 5.89C200.216 6.26333 200.183 6.72 200.183 7.26C200.183 7.82 200.216 8.29 200.283 8.67C200.349 9.05 200.489 9.35667 200.703 9.59C200.923 9.82333 201.243 9.94 201.663 9.94C202.083 9.94 202.399 9.82333 202.613 9.59C202.833 9.35667 202.976 9.05 203.043 8.67C203.109 8.29 203.143 7.82 203.143 7.26Z" fill="#888888"/>
<path d="M205.449 5.51C205.489 4.89 205.726 4.40667 206.159 4.06C206.599 3.71333 207.159 3.54 207.839 3.54C208.306 3.54 208.709 3.62333 209.049 3.79C209.389 3.95667 209.646 4.18333 209.819 4.47C209.992 4.75667 210.079 5.08 210.079 5.44C210.079 5.85333 209.969 6.20667 209.749 6.5C209.529 6.79333 209.266 6.99 208.959 7.09V7.13C209.352 7.25 209.659 7.47 209.879 7.79C210.099 8.10333 210.209 8.50667 210.209 9C210.209 9.39333 210.119 9.74333 209.939 10.05C209.759 10.3567 209.492 10.6 209.139 10.78C208.786 10.9533 208.362 11.04 207.869 11.04C207.149 11.04 206.556 10.8567 206.089 10.49C205.629 10.1167 205.382 9.58333 205.349 8.89H206.449C206.476 9.24333 206.612 9.53333 206.859 9.76C207.106 9.98 207.439 10.09 207.859 10.09C208.266 10.09 208.579 9.98 208.799 9.76C209.019 9.53333 209.129 9.24333 209.129 8.89C209.129 8.42333 208.979 8.09333 208.679 7.9C208.386 7.7 207.932 7.6 207.319 7.6H207.059V6.66H207.329C207.869 6.65333 208.279 6.56333 208.559 6.39C208.846 6.21667 208.989 5.94333 208.989 5.57C208.989 5.25 208.886 4.99667 208.679 4.81C208.472 4.61667 208.179 4.52 207.799 4.52C207.426 4.52 207.136 4.61667 206.929 4.81C206.722 4.99667 206.599 5.23 206.559 5.51H205.449Z" fill="#888888"/>
<path d="M114.702 8C114.702 9.10457 113.801 10 112.689 10C111.578 10 110.677 9.10457 110.677 8C110.677 6.89543 111.578 6 112.689 6C113.801 6 114.702 6.89543 114.702 8Z" fill="#888888"/>
<path d="M124.092 8C124.092 9.10457 123.191 10 122.08 10C120.969 10 120.068 9.10457 120.068 8C120.068 6.89543 120.969 6 122.08 6C123.191 6 124.092 6.89543 124.092 8Z" fill="#888888"/>
<path d="M133.483 8C133.483 9.10457 132.582 10 131.471 10C130.36 10 129.459 9.10457 129.459 8C129.459 6.89543 130.36 6 131.471 6C132.582 6 133.483 6.89543 133.483 8Z" fill="#888888"/>
<path d="M142.874 8C142.874 9.10457 141.973 10 140.862 10C139.75 10 138.849 9.10457 138.849 8C138.849 6.89543 139.75 6 140.862 6C141.973 6 142.874 6.89543 142.874 8Z" fill="#888888"/>
<path d="M72.4431 8C72.4431 9.10457 71.5422 10 70.4308 10C69.3194 10 68.4185 9.10457 68.4185 8C68.4185 6.89543 69.3194 6 70.4308 6C71.5422 6 72.4431 6.89543 72.4431 8Z" fill="#888888"/>
<path d="M81.8342 8C81.8342 9.10457 80.9332 10 79.8219 10C78.7105 10 77.8096 9.10457 77.8096 8C77.8096 6.89543 78.7105 6 79.8219 6C80.9332 6 81.8342 6.89543 81.8342 8Z" fill="#888888"/>
<path d="M91.2244 8C91.2244 9.10457 90.3234 10 89.2121 10C88.1007 10 87.1998 9.10457 87.1998 8C87.1998 6.89543 88.1007 6 89.2121 6C90.3234 6 91.2244 6.89543 91.2244 8Z" fill="#888888"/>
<path d="M100.615 8C100.615 9.10457 99.7145 10 98.6031 10C97.4918 10 96.5908 9.10457 96.5908 8C96.5908 6.89543 97.4918 6 98.6031 6C99.7145 6 100.615 6.89543 100.615 8Z" fill="#888888"/>
<path d="M44.2517 14.7835L43.8036 12.6089H38.7974L38.0009 14.768L33.9883 14.7758C35.8985 10.3166 37.8129 5.85917 39.7313 1.40335C40.0579 0.647551 40.6374 0.262888 41.4917 0.266753C42.1449 0.272552 43.2102 0.272551 44.6898 0.268685L47.7923 14.7777L44.2517 14.7835ZM39.9245 9.63015H43.1505L41.9457 4.17912L39.9245 9.63015ZM14.0589 0.26482L18.0934 0.268685L11.8565 14.7854L7.77222 14.7816C6.74519 10.9471 5.73092 7.10949 4.72945 3.26869C4.53031 2.50322 4.13603 1.96778 3.37732 1.71456C2.70226 1.4884 1.57715 1.14046 0 0.666882V0.270619H6.44599C7.56114 0.270619 8.21231 0.794459 8.4214 1.8692C8.63249 2.94588 9.16218 5.68685 10.0145 10.0921L14.0589 0.26482ZM23.6373 0.268685L20.4471 14.7816L16.6078 14.7777L19.794 0.26482L23.6373 0.268685ZM31.4234 0C32.5724 0 34.0202 0.347939 34.8525 0.666882L34.1795 3.67655C33.4267 3.38273 32.1881 2.98647 31.1466 3C29.6332 3.02513 28.6973 3.64175 28.6973 4.23325C28.6973 5.19588 30.3222 5.68106 31.995 6.7326C33.9047 7.93106 34.1556 9.00773 34.1317 10.1772C34.1058 12.605 31.995 15 27.5423 15C25.5111 14.971 24.7783 14.8048 23.1215 14.2345L23.8225 11.0934C25.5091 11.7796 26.224 11.9981 27.6658 11.9981C28.986 11.9981 30.1191 11.48 30.1291 10.5773C30.137 9.93557 29.7308 9.61662 28.2492 8.8241C26.7677 8.02964 24.6887 6.92977 24.7166 4.72229C24.7504 1.89626 27.5085 0 31.4254 0H31.4234Z" fill="#8982FF"/>
</svg>
