<svg width="14" height="15" viewBox="0 0 14 15" fill="none" xmlns="http://www.w3.org/2000/svg">
<path d="M7.12138 9.46571V15H1.84057e-07C-0.000220844 14.1278 0.19863 13.2671 0.581317 12.4839C0.964004 11.7006 1.52037 11.0157 2.20778 10.4815C2.89519 9.94724 3.69541 9.57795 4.54711 9.40189C5.39881 9.22583 6.27939 9.24766 7.12138 9.46571ZM5.6971 8.57143C3.33637 8.57143 1.42428 6.65357 1.42428 4.28571C1.42428 1.91786 3.33637 0 5.6971 0C8.05784 0 9.96993 1.91786 9.96993 4.28571C9.96993 6.65357 8.05784 8.57143 5.6971 8.57143ZM9.96993 11.4286V9.28571H11.3942V11.4286H13.5306V12.8571H11.3942V15H9.96993V12.8571H7.83352V11.4286H9.96993Z" fill="#8982FF"/>
</svg>
