<svg width="17" height="20" viewBox="0 0 17 20" fill="none" xmlns="http://www.w3.org/2000/svg">
<path d="M8.27283 5.74647C7.48283 5.74647 6.25995 4.84824 4.97213 4.88071C3.27308 4.90235 1.71472 5.86551 0.838142 7.3914C-0.925839 10.454 0.383619 14.9776 2.10431 17.4667C2.94843 18.6787 3.94405 20.0423 5.26433 19.999C6.5305 19.9449 7.00666 19.1765 8.54338 19.1765C10.0693 19.1765 10.5022 19.999 11.8441 19.9665C13.2077 19.9449 14.0734 18.7328 14.9067 17.5099C15.8699 16.1031 16.2703 14.7395 16.2919 14.6638C16.2594 14.6529 13.6405 13.6465 13.6081 10.6164C13.5864 8.08401 15.6751 6.87195 15.7725 6.81784C14.582 5.0755 12.7531 4.88071 12.1146 4.83742C10.448 4.70756 9.05201 5.74647 8.27283 5.74647ZM11.0865 3.19248C11.79 2.34837 12.2553 1.16877 12.1255 0C11.119 0.0432879 9.90695 0.670962 9.18188 1.51508C8.53256 2.26179 7.96982 3.46303 8.12133 4.61016C9.23599 4.69673 10.3831 4.03659 11.0865 3.19248Z" fill="black"/>
</svg>
