<svg width="24" height="15" viewBox="0 0 24 15" fill="none" xmlns="http://www.w3.org/2000/svg">
<path fill-rule="evenodd" clip-rule="evenodd" d="M12.9405 12.6625C14.2169 11.3178 15 9.50035 15 7.5C15 5.49965 14.2169 3.6822 12.9405 2.33752C13.8363 1.80549 14.8824 1.5 15.9999 1.5C19.3136 1.5 21.9999 4.18629 21.9999 7.5C21.9999 10.8137 19.3136 13.5 15.9999 13.5C14.8824 13.5 13.8363 13.1945 12.9405 12.6625ZM11.75 13.6805C9.78679 12.3279 8.49992 10.0643 8.49992 7.5C8.49992 4.93574 9.78679 2.67205 11.75 1.31952C12.1817 1.61696 12.5807 1.95845 12.9405 2.33752C11.1799 3.38314 9.99992 5.30377 9.99992 7.5C9.99992 9.69623 11.1799 11.6169 12.9405 12.6625C12.5807 13.0415 12.1817 13.383 11.75 13.6805ZM11.75 13.6805C10.542 14.5127 9.07788 15 7.5 15C3.35786 15 0 11.6421 0 7.5C0 3.35786 3.35786 0 7.5 0C9.07788 0 10.542 0.487261 11.75 1.31952C12.958 0.487261 14.422 0 15.9999 0C20.1421 0 23.4999 3.35786 23.4999 7.5C23.4999 11.6421 20.1421 15 15.9999 15C14.422 15 12.958 14.5127 11.75 13.6805Z" fill="white"/>
</svg>
