<svg width="13" height="13" viewBox="0 0 13 13" fill="none" xmlns="http://www.w3.org/2000/svg">
<path d="M12.9874 0.417126C13.0038 0.359773 13.0042 0.299046 12.9885 0.2415C12.9728 0.183954 12.9417 0.131774 12.8984 0.0905941C12.8552 0.0494139 12.8015 0.0207969 12.7432 0.00783157C12.6848 -0.00513372 12.624 -0.00195476 12.5674 0.0170255L0.22492 4.12149C0.161036 4.14262 0.105207 4.18283 0.0650004 4.23668C0.0247935 4.29053 0.00215233 4.3554 0.000145801 4.42252C-0.00185978 4.48964 0.0168666 4.55575 0.0537862 4.61189C0.0907058 4.66803 0.144034 4.71149 0.206543 4.73638L5.93835 7.02369L8.84266 12.8189C8.87221 12.8779 8.91894 12.9267 8.97673 12.9587C9.03452 12.9908 9.10066 13.0047 9.1665 12.9986C9.23234 12.9925 9.2948 12.9667 9.3457 12.9246C9.3966 12.8825 9.43356 12.826 9.45174 12.7626M12.9874 0.417126L12.6738 0.327288L12.6732 0.327116L12.6723 0.326865L12.671 0.326512L12.6702 0.326276L12.5068 0.279462L12.5067 0.279837M12.9874 0.417126L9.45174 12.7626M12.9874 0.417126L12.6733 0.327417L12.673 0.327324L12.6722 0.327115L12.6711 0.326807L12.6703 0.326572L12.5067 0.279837M12.5067 0.279837L12.4167 0.59407M12.5067 0.279837C12.498 0.31024 12.4978 0.342464 12.5061 0.372986C12.5144 0.403494 12.5309 0.431015 12.5536 0.452642C12.5763 0.474264 12.6044 0.48918 12.6347 0.495925C12.6647 0.502591 12.6959 0.501061 12.7252 0.49148L12.4167 0.59407M12.4167 0.59407L0.830501 4.44703M12.4167 0.59407L9.0924 12.2013M0.830501 4.44703L0.391861 4.27199C0.424285 4.28499 0.452147 4.30766 0.471549 4.33716C0.491033 4.36679 0.500988 4.40181 0.499923 4.43746L0.328287 4.43233L0.327879 4.43232L0.328289 4.43233L0.499923 4.43746C0.498857 4.47311 0.486831 4.50744 0.465637 4.53583C0.444621 4.56397 0.415643 4.58487 0.382699 4.59595L0.830501 4.44703ZM0.830501 4.44703L6.12367 6.55931L6.3002 6.62975L6.38536 6.79968L9.0924 12.2013M9.0924 12.2013L8.9711 12.6248M9.0924 12.2013L9.28966 12.5949M8.9711 12.6248L8.97106 12.625L9.13566 12.6721L9.13575 12.6721L9.13579 12.6721L9.13633 12.6723L9.13712 12.6725L9.45174 12.7626M8.9711 12.6248C8.98074 12.5912 9.00028 12.5615 9.02697 12.5394C9.05365 12.5173 9.08625 12.5039 9.12047 12.5007C9.15469 12.4976 9.18912 12.5048 9.2193 12.5215C9.24946 12.5382 9.27404 12.5638 9.28966 12.5949M8.9711 12.6248L9.13577 12.672L9.13579 12.672L9.13589 12.6721L9.13632 12.6722L9.13703 12.6724L9.45174 12.7626M9.28966 12.5949L9.28972 12.595L9.28966 12.5949Z" stroke="white"/>
</svg>
