<svg width="62" height="20" viewBox="0 0 62 20" fill="none" xmlns="http://www.w3.org/2000/svg">
<path d="M37.0442 6.955V10.015H40.6442V11.41H37.0442V14.605H41.0942V16H35.3342V5.56H41.0942V6.955H37.0442Z" fill="#888888"/>
<path d="M44.8954 5.575V12.22C44.8954 13.01 45.1004 13.605 45.5104 14.005C45.9304 14.405 46.5104 14.605 47.2504 14.605C48.0004 14.605 48.5804 14.405 48.9904 14.005C49.4104 13.605 49.6204 13.01 49.6204 12.22V5.575H51.3304V12.19C51.3304 13.04 51.1454 13.76 50.7754 14.35C50.4054 14.94 49.9104 15.38 49.2904 15.67C48.6704 15.96 47.9854 16.105 47.2354 16.105C46.4854 16.105 45.8004 15.96 45.1804 15.67C44.5704 15.38 44.0854 14.94 43.7254 14.35C43.3654 13.76 43.1854 13.04 43.1854 12.19V5.575H44.8954Z" fill="#888888"/>
<path d="M58.9719 16L56.5719 11.83H55.2669V16H53.5569V5.575H57.1569C57.9569 5.575 58.6319 5.715 59.1819 5.995C59.7419 6.275 60.1569 6.65 60.4269 7.12C60.7069 7.59 60.8469 8.115 60.8469 8.695C60.8469 9.375 60.6469 9.995 60.2469 10.555C59.8569 11.105 59.2519 11.48 58.4319 11.68L61.0119 16H58.9719ZM55.2669 10.465H57.1569C57.7969 10.465 58.2769 10.305 58.5969 9.985C58.9269 9.665 59.0919 9.235 59.0919 8.695C59.0919 8.155 58.9319 7.735 58.6119 7.435C58.2919 7.125 57.8069 6.97 57.1569 6.97H55.2669V10.465Z" fill="#888888"/>
<path d="M10.0615 20C4.50455 20 0 15.523 0 10C0 4.477 4.50455 0 10.0615 0C15.6185 0 20.1231 4.477 20.1231 10C20.1231 15.523 15.6185 20 10.0615 20ZM10.0615 18C12.1963 18 14.2437 17.1571 15.7532 15.6569C17.2627 14.1566 18.1108 12.1217 18.1108 10C18.1108 7.87827 17.2627 5.84344 15.7532 4.34315C14.2437 2.84285 12.1963 2 10.0615 2C7.92675 2 5.8794 2.84285 4.36987 4.34315C2.86035 5.84344 2.01231 7.87827 2.01231 10C2.01231 12.1217 2.86035 14.1566 4.36987 15.6569C5.8794 17.1571 7.92675 18 10.0615 18ZM8.09954 9H13.08V11H8.09954C8.1867 11.4253 8.38378 11.8208 8.67139 12.1474C8.959 12.4741 9.32722 12.7207 9.73982 12.8629C10.1524 13.0052 10.5952 13.0383 11.0246 12.9589C11.4539 12.8794 11.8551 12.6903 12.1885 12.41L13.899 13.543C13.3113 14.1789 12.5518 14.6333 11.7113 14.852C10.8708 15.0707 9.98478 15.0445 9.15889 14.7764C8.33301 14.5083 7.60217 14.0097 7.0536 13.3401C6.50502 12.6705 6.16187 11.8581 6.06509 11H5.03077V9H6.06409C6.16053 8.14144 6.50359 7.32861 7.0523 6.6586C7.601 5.98859 8.33215 5.48972 9.15843 5.22157C9.98471 4.95342 10.8712 4.92732 11.712 5.14639C12.5528 5.36546 13.3124 5.82045 13.9 6.457L12.1885 7.59C11.8551 7.30972 11.4539 7.12056 11.0246 7.04114C10.5952 6.96172 10.1524 6.99478 9.73982 7.13706C9.32722 7.27933 8.959 7.52593 8.67139 7.85258C8.38378 8.17923 8.1867 8.57467 8.09954 9Z" fill="#8982FF"/>
</svg>
