<svg width="30" height="30" viewBox="0 0 30 30" fill="none" xmlns="http://www.w3.org/2000/svg">
<circle cx="15" cy="15" r="15" fill="#EDECFF"/>
<path fill-rule="evenodd" clip-rule="evenodd" d="M12.8967 20.4059L18.2661 13.4622C18.558 13.0878 18.6617 12.6548 18.5644 12.214C18.4801 11.8133 18.2337 11.4323 17.8641 11.1433L16.9627 10.4272C16.178 9.80312 15.2053 9.86882 14.6476 10.5849L14.0445 11.3673C13.9667 11.4652 13.9861 11.6097 14.0834 11.6885C14.0834 11.6885 15.6074 12.9104 15.6398 12.9367C15.7435 13.0352 15.8214 13.1666 15.8408 13.3243C15.8732 13.633 15.6592 13.9221 15.3415 13.9615C15.1923 13.9812 15.0497 13.9352 14.9459 13.8498L13.3441 12.5754C13.2663 12.5169 13.1496 12.5294 13.0847 12.6082L9.27814 17.5352C9.03172 17.8439 8.94741 18.2446 9.03172 18.6322L9.51808 20.741C9.54402 20.8527 9.64129 20.9315 9.75802 20.9315L11.898 20.9052C12.2871 20.8986 12.6503 20.7213 12.8967 20.4059ZM15.8933 19.7494H19.3828C19.7232 19.7494 20.0001 20.0299 20.0001 20.3748C20.0001 20.7203 19.7232 21.0002 19.3828 21.0002H15.8933C15.5528 21.0002 15.2759 20.7203 15.2759 20.3748C15.2759 20.0299 15.5528 19.7494 15.8933 19.7494Z" fill="#8982FF"/>
</svg>
