<svg width="40" height="40" viewBox="0 0 40 40" fill="none" xmlns="http://www.w3.org/2000/svg">
<rect width="40" height="40" rx="7" fill="#EDECFF"/>
<path d="M24.72 19.6507C25.906 19.484 26.8191 18.4672 26.8216 17.2353C26.8216 16.0213 25.9366 15.0147 24.7761 14.8242" stroke="#8982FF" stroke-width="1.5" stroke-linecap="round" stroke-linejoin="round"/>
<path d="M26.2849 22.5024C27.4335 22.6742 28.2352 23.0763 28.2352 23.9052C28.2352 24.4757 27.8577 24.8464 27.2473 25.0793" stroke="#8982FF" stroke-width="1.5" stroke-linecap="round" stroke-linejoin="round"/>
<path fill-rule="evenodd" clip-rule="evenodd" d="M19.6181 22.854C16.8856 22.854 14.5519 23.268 14.5519 24.9216C14.5519 26.5744 16.8712 27.0003 19.6181 27.0003C22.3506 27.0003 24.6835 26.5905 24.6835 24.9361C24.6835 23.2816 22.365 22.854 19.6181 22.854Z" stroke="#8982FF" stroke-width="1.5" stroke-linecap="round" stroke-linejoin="round"/>
<path fill-rule="evenodd" clip-rule="evenodd" d="M19.6182 20.4937C21.4112 20.4937 22.865 19.0407 22.865 17.2468C22.865 15.4538 21.4112 14 19.6182 14C17.8252 14 16.3714 15.4538 16.3714 17.2468C16.3646 19.0339 17.8073 20.4877 19.5944 20.4937H19.6182Z" stroke="#8982FF" stroke-width="1.5" stroke-linecap="round" stroke-linejoin="round"/>
<path d="M14.5156 19.6507C13.3287 19.484 12.4165 18.4672 12.4139 17.2353C12.4139 16.0213 13.299 15.0147 14.4595 14.8242" stroke="#8982FF" stroke-width="1.5" stroke-linecap="round" stroke-linejoin="round"/>
<path d="M12.9503 22.5024C11.8017 22.6742 11 23.0763 11 23.9052C11 24.4757 11.3775 24.8464 11.9879 25.0793" stroke="#8982FF" stroke-width="1.5" stroke-linecap="round" stroke-linejoin="round"/>
</svg>
