<svg width="273" height="151" viewBox="0 0 273 151" fill="none" xmlns="http://www.w3.org/2000/svg">
<path d="M9.00281 64H0V151H9.00281V64Z" fill="#8982FF"/>
<path d="M59.0184 77H49.0153V151H59.0184V77Z" fill="#8982FF"/>
<path d="M108.034 93H99.0309V151H108.034V93Z" fill="#8982FF"/>
<path d="M157.898 48.8335H148.322V150.949H157.898V48.8335Z" fill="#8982FF"/>
<path d="M207.065 0H198.062V151H207.065V0Z" fill="#8982FF"/>
<path d="M256.854 67.1826H247.277V150.949H256.854V67.1826Z" fill="#8982FF"/>
<path d="M25.0077 30H15.0046V151H25.0077V30Z" fill="#EEEEEE"/>
<path d="M74.023 102H65.0202V151H74.023V102Z" fill="#EEEEEE"/>
<path d="M124.039 6H114.036V151H124.039V6Z" fill="#EEEEEE"/>
<path d="M173.061 76.7559H163.484V150.949H173.061V76.7559Z" fill="#EEEEEE"/>
<path d="M222.069 114H213.066V151H222.069V114Z" fill="#EEEEEE"/>
<path d="M272.016 130.207H262.44V150.949H272.016V130.207Z" fill="#EEEEEE"/>
</svg>
