<svg width="64" height="20" viewBox="0 0 64 20" fill="none" xmlns="http://www.w3.org/2000/svg">
<path d="M37.0292 5.575V12.22C37.0292 13.01 37.2342 13.605 37.6442 14.005C38.0642 14.405 38.6442 14.605 39.3842 14.605C40.1342 14.605 40.7142 14.405 41.1242 14.005C41.5442 13.605 41.7542 13.01 41.7542 12.22V5.575H43.4642V12.19C43.4642 13.04 43.2792 13.76 42.9092 14.35C42.5392 14.94 42.0442 15.38 41.4242 15.67C40.8042 15.96 40.1192 16.105 39.3692 16.105C38.6192 16.105 37.9342 15.96 37.3142 15.67C36.7042 15.38 36.2192 14.94 35.8592 14.35C35.4992 13.76 35.3192 13.04 35.3192 12.19V5.575H37.0292Z" fill="#888888"/>
<path d="M49.1257 16.105C48.4257 16.105 47.7957 15.985 47.2357 15.745C46.6757 15.495 46.2357 15.145 45.9157 14.695C45.5957 14.245 45.4357 13.72 45.4357 13.12H47.2657C47.3057 13.57 47.4807 13.94 47.7907 14.23C48.1107 14.52 48.5557 14.665 49.1257 14.665C49.7157 14.665 50.1757 14.525 50.5057 14.245C50.8357 13.955 51.0007 13.585 51.0007 13.135C51.0007 12.785 50.8957 12.5 50.6857 12.28C50.4857 12.06 50.2307 11.89 49.9207 11.77C49.6207 11.65 49.2007 11.52 48.6607 11.38C47.9807 11.2 47.4257 11.02 46.9957 10.84C46.5757 10.65 46.2157 10.36 45.9157 9.97C45.6157 9.58 45.4657 9.06 45.4657 8.41C45.4657 7.81 45.6157 7.285 45.9157 6.835C46.2157 6.385 46.6357 6.04 47.1757 5.8C47.7157 5.56 48.3407 5.44 49.0507 5.44C50.0607 5.44 50.8857 5.695 51.5257 6.205C52.1757 6.705 52.5357 7.395 52.6057 8.275H50.7157C50.6857 7.895 50.5057 7.57 50.1757 7.3C49.8457 7.03 49.4107 6.895 48.8707 6.895C48.3807 6.895 47.9807 7.02 47.6707 7.27C47.3607 7.52 47.2057 7.88 47.2057 8.35C47.2057 8.67 47.3007 8.935 47.4907 9.145C47.6907 9.345 47.9407 9.505 48.2407 9.625C48.5407 9.745 48.9507 9.875 49.4707 10.015C50.1607 10.205 50.7207 10.395 51.1507 10.585C51.5907 10.775 51.9607 11.07 52.2607 11.47C52.5707 11.86 52.7257 12.385 52.7257 13.045C52.7257 13.575 52.5807 14.075 52.2907 14.545C52.0107 15.015 51.5957 15.395 51.0457 15.685C50.5057 15.965 49.8657 16.105 49.1257 16.105Z" fill="#888888"/>
<path d="M58.1484 5.575C59.2584 5.575 60.2284 5.79 61.0584 6.22C61.8984 6.64 62.5434 7.25 62.9934 8.05C63.4534 8.84 63.6834 9.765 63.6834 10.825C63.6834 11.885 63.4534 12.805 62.9934 13.585C62.5434 14.365 61.8984 14.965 61.0584 15.385C60.2284 15.795 59.2584 16 58.1484 16H54.7434V5.575H58.1484ZM58.1484 14.605C59.3684 14.605 60.3034 14.275 60.9534 13.615C61.6034 12.955 61.9284 12.025 61.9284 10.825C61.9284 9.615 61.6034 8.67 60.9534 7.99C60.3034 7.31 59.3684 6.97 58.1484 6.97H56.4534V14.605H58.1484Z" fill="#888888"/>
<path d="M10.0615 20C4.50455 20 0 15.523 0 10C0 4.477 4.50455 0 10.0615 0C15.6185 0 20.1231 4.477 20.1231 10C20.1231 15.523 15.6185 20 10.0615 20ZM10.0615 18C12.1963 18 14.2437 17.1571 15.7532 15.6569C17.2627 14.1566 18.1108 12.1217 18.1108 10C18.1108 7.87827 17.2627 5.84344 15.7532 4.34315C14.2437 2.84285 12.1963 2 10.0615 2C7.92675 2 5.8794 2.84285 4.36987 4.34315C2.86035 5.84344 2.01231 7.87827 2.01231 10C2.01231 12.1217 2.86035 14.1566 4.36987 15.6569C5.8794 17.1571 7.92675 18 10.0615 18ZM6.54 12H12.0738C12.2073 12 12.3352 11.9473 12.4296 11.8536C12.5239 11.7598 12.5769 11.6326 12.5769 11.5C12.5769 11.3674 12.5239 11.2402 12.4296 11.1464C12.3352 11.0527 12.2073 11 12.0738 11H8.04923C7.38211 11 6.74231 10.7366 6.27059 10.2678C5.79886 9.79893 5.53385 9.16304 5.53385 8.5C5.53385 7.83696 5.79886 7.20107 6.27059 6.73223C6.74231 6.26339 7.38211 6 8.04923 6H9.05538V4H11.0677V6H13.5831V8H8.04923C7.91581 8 7.78785 8.05268 7.6935 8.14645C7.59916 8.24021 7.54615 8.36739 7.54615 8.5C7.54615 8.63261 7.59916 8.75979 7.6935 8.85355C7.78785 8.94732 7.91581 9 8.04923 9H12.0738C12.741 9 13.3808 9.26339 13.8525 9.73223C14.3242 10.2011 14.5892 10.837 14.5892 11.5C14.5892 12.163 14.3242 12.7989 13.8525 13.2678C13.3808 13.7366 12.741 14 12.0738 14H11.0677V16H9.05538V14H6.54V12Z" fill="#8982FF"/>
</svg>
