<svg width="20" height="13" viewBox="0 0 20 13" fill="none" xmlns="http://www.w3.org/2000/svg">
<path d="M5.81755 0C6.39452 0 6.92815 0.0451462 7.41573 0.178779C7.85817 0.260083 8.28051 0.426931 8.65905 0.669971C9.01481 0.892993 9.28117 1.20631 9.45814 1.60811C9.63602 2.00991 9.72451 2.50201 9.72451 3.03744C9.72451 3.66317 9.59178 4.1986 9.28117 4.60041C9.01481 5.00311 8.57057 5.35977 8.03784 5.62793C8.79269 5.85186 9.36966 6.25366 9.72451 6.7891C10.0803 7.32544 10.3024 7.9954 10.3024 8.75476C10.3024 9.38049 10.1687 9.91593 9.94663 10.3629C9.72451 10.8098 9.36966 11.2116 8.96966 11.4798C8.53516 11.7672 8.05485 11.9785 7.54936 12.1046C7.01663 12.2392 6.48391 12.3285 5.95118 12.3285H0V0H5.81755ZM5.4618 5.00221C5.95028 5.00221 6.35027 4.86857 6.66088 4.64555C6.97149 4.42253 7.10512 4.01982 7.10512 3.52863C7.10512 3.26046 7.05997 2.9923 6.97149 2.81442C6.883 2.63564 6.74937 2.5011 6.57239 2.36747C6.39452 2.27808 6.21664 2.18869 5.99452 2.14445C5.7724 2.0993 5.55119 2.0993 5.28392 2.0993H2.70878V5.00311H5.4627L5.4618 5.00221ZM5.59543 10.2735C5.86179 10.2735 6.12815 10.2283 6.35027 10.1841C6.57454 10.1414 6.78664 10.0499 6.97149 9.91593C7.15242 9.78521 7.30379 9.61785 7.41573 9.42474C7.50421 9.20171 7.5936 8.93355 7.5936 8.62113C7.5936 7.99541 7.41573 7.54846 7.06088 7.23604C6.70512 6.96788 6.21664 6.83424 5.63967 6.83424H2.70878V10.2744H5.59543V10.2735ZM14.166 10.2283C14.5208 10.5859 15.0536 10.7647 15.7642 10.7647C16.2527 10.7647 16.6969 10.631 17.0517 10.408C17.4075 10.1399 17.6296 9.87168 17.7181 9.60352H19.8942C19.5384 10.6753 19.0057 11.4346 18.296 11.9258C17.5845 12.3728 16.7411 12.641 15.7199 12.641C15.0665 12.6429 14.4187 12.5216 13.8102 12.2834C13.2628 12.078 12.7746 11.7406 12.389 11.301C11.9767 10.8898 11.6718 10.3834 11.5015 9.82654C11.2793 9.24596 11.19 8.62113 11.19 7.90602C11.19 7.23605 11.2793 6.61122 11.5015 6.02974C11.715 5.47 12.031 4.95497 12.4333 4.51102C12.8333 4.10921 13.3218 3.75256 13.8545 3.52863C14.4474 3.29032 15.0809 3.1689 15.7199 3.17107C16.4748 3.17107 17.1411 3.30561 17.7181 3.61802C18.296 3.93043 18.7393 4.28799 19.0951 4.82433C19.458 5.33948 19.7284 5.91389 19.8942 6.52183C19.9826 7.14666 20.0269 7.77238 19.9826 8.4866H13.5439C13.5439 9.20171 13.8102 9.87169 14.166 10.2292V10.2283ZM16.9633 5.53855C16.6527 5.22613 16.1642 5.04735 15.5863 5.04735C15.1872 5.04735 14.8757 5.13674 14.6093 5.27038C14.343 5.40491 14.166 5.58369 13.9881 5.76247C13.8247 5.93516 13.7165 6.15273 13.6775 6.38729C13.6324 6.61122 13.5881 6.7891 13.5881 6.96788H17.5845C17.496 6.29791 17.2739 5.85186 16.9633 5.53855ZM13.0554 0.84875H18.0287V2.05506H13.0563V0.84875H13.0554Z" fill="#005CFF"/>
</svg>
