<svg width="199" height="23" viewBox="0 0 199 23" fill="none" xmlns="http://www.w3.org/2000/svg">
<path d="M141.322 13.48V12.62L144.682 7.8H146.062V12.49H146.992V13.48H146.062V15H144.942V13.48H141.322ZM144.992 8.96L142.632 12.49H144.992V8.96Z" fill="#888888"/>
<path d="M147.936 11.26C147.936 10.1067 148.129 9.20667 148.516 8.56C148.909 7.90667 149.583 7.58 150.536 7.58C151.489 7.58 152.159 7.90667 152.546 8.56C152.939 9.20667 153.136 10.1067 153.136 11.26C153.136 12.4267 152.939 13.34 152.546 14C152.159 14.6533 151.489 14.98 150.536 14.98C149.583 14.98 148.909 14.6533 148.516 14C148.129 13.34 147.936 12.4267 147.936 11.26ZM152.016 11.26C152.016 10.72 151.979 10.2633 151.906 9.89C151.839 9.51667 151.699 9.21333 151.486 8.98C151.273 8.74 150.956 8.62 150.536 8.62C150.116 8.62 149.799 8.74 149.586 8.98C149.373 9.21333 149.229 9.51667 149.156 9.89C149.089 10.2633 149.056 10.72 149.056 11.26C149.056 11.82 149.089 12.29 149.156 12.67C149.223 13.05 149.363 13.3567 149.576 13.59C149.796 13.8233 150.116 13.94 150.536 13.94C150.956 13.94 151.273 13.8233 151.486 13.59C151.706 13.3567 151.849 13.05 151.916 12.67C151.983 12.29 152.016 11.82 152.016 11.26Z" fill="#888888"/>
<path d="M154.972 13.45C155.612 12.8967 156.116 12.4433 156.482 12.09C156.856 11.73 157.166 11.3567 157.412 10.97C157.659 10.5833 157.782 10.1967 157.782 9.81C157.782 9.41 157.686 9.09667 157.492 8.87C157.306 8.64333 157.009 8.53 156.602 8.53C156.209 8.53 155.902 8.65667 155.682 8.91C155.469 9.15667 155.356 9.49 155.342 9.91H154.242C154.262 9.15 154.489 8.57 154.922 8.17C155.362 7.76333 155.919 7.56 156.592 7.56C157.319 7.56 157.886 7.76 158.292 8.16C158.706 8.56 158.912 9.09333 158.912 9.76C158.912 10.24 158.789 10.7033 158.542 11.15C158.302 11.59 158.012 11.9867 157.672 12.34C157.339 12.6867 156.912 13.09 156.392 13.55L155.942 13.95H159.112V14.9H154.252V14.07L154.972 13.45Z" fill="#888888"/>
<path d="M160.094 9.51C160.134 8.89 160.371 8.40667 160.804 8.06C161.244 7.71333 161.804 7.54 162.484 7.54C162.951 7.54 163.354 7.62333 163.694 7.79C164.034 7.95667 164.291 8.18333 164.464 8.47C164.637 8.75667 164.724 9.08 164.724 9.44C164.724 9.85333 164.614 10.2067 164.394 10.5C164.174 10.7933 163.911 10.99 163.604 11.09V11.13C163.997 11.25 164.304 11.47 164.524 11.79C164.744 12.1033 164.854 12.5067 164.854 13C164.854 13.3933 164.764 13.7433 164.584 14.05C164.404 14.3567 164.137 14.6 163.784 14.78C163.431 14.9533 163.007 15.04 162.514 15.04C161.794 15.04 161.201 14.8567 160.734 14.49C160.274 14.1167 160.027 13.5833 159.994 12.89H161.094C161.121 13.2433 161.257 13.5333 161.504 13.76C161.751 13.98 162.084 14.09 162.504 14.09C162.911 14.09 163.224 13.98 163.444 13.76C163.664 13.5333 163.774 13.2433 163.774 12.89C163.774 12.4233 163.624 12.0933 163.324 11.9C163.031 11.7 162.577 11.6 161.964 11.6H161.704V10.66H161.974C162.514 10.6533 162.924 10.5633 163.204 10.39C163.491 10.2167 163.634 9.94333 163.634 9.57C163.634 9.25 163.531 8.99667 163.324 8.81C163.117 8.61667 162.824 8.52 162.444 8.52C162.071 8.52 161.781 8.61667 161.574 8.81C161.367 8.99667 161.244 9.23 161.204 9.51H160.094Z" fill="#888888"/>
<path d="M179.365 8.69H176.015V10.68C176.155 10.4933 176.361 10.3367 176.635 10.21C176.915 10.0833 177.211 10.02 177.525 10.02C178.085 10.02 178.538 10.14 178.885 10.38C179.238 10.62 179.488 10.9233 179.635 11.29C179.788 11.6567 179.865 12.0433 179.865 12.45C179.865 12.9433 179.768 13.3833 179.575 13.77C179.388 14.15 179.105 14.45 178.725 14.67C178.351 14.89 177.891 15 177.345 15C176.618 15 176.035 14.82 175.595 14.46C175.155 14.1 174.891 13.6233 174.805 13.03H175.915C175.988 13.3433 176.151 13.5933 176.405 13.78C176.658 13.96 176.975 14.05 177.355 14.05C177.828 14.05 178.181 13.9067 178.415 13.62C178.655 13.3333 178.775 12.9533 178.775 12.48C178.775 12 178.655 11.6333 178.415 11.38C178.175 11.12 177.821 10.99 177.355 10.99C177.028 10.99 176.751 11.0733 176.525 11.24C176.305 11.4 176.145 11.62 176.045 11.9H174.965V7.69H179.365V8.69Z" fill="#888888"/>
<path d="M185.751 8.69H182.401V10.68C182.541 10.4933 182.748 10.3367 183.021 10.21C183.301 10.0833 183.598 10.02 183.911 10.02C184.471 10.02 184.925 10.14 185.271 10.38C185.625 10.62 185.875 10.9233 186.021 11.29C186.175 11.6567 186.251 12.0433 186.251 12.45C186.251 12.9433 186.155 13.3833 185.961 13.77C185.775 14.15 185.491 14.45 185.111 14.67C184.738 14.89 184.278 15 183.731 15C183.005 15 182.421 14.82 181.981 14.46C181.541 14.1 181.278 13.6233 181.191 13.03H182.301C182.375 13.3433 182.538 13.5933 182.791 13.78C183.045 13.96 183.361 14.05 183.741 14.05C184.215 14.05 184.568 13.9067 184.801 13.62C185.041 13.3333 185.161 12.9533 185.161 12.48C185.161 12 185.041 11.6333 184.801 11.38C184.561 11.12 184.208 10.99 183.741 10.99C183.415 10.99 183.138 11.0733 182.911 11.24C182.691 11.4 182.531 11.62 182.431 11.9H181.351V7.69H185.751V8.69Z" fill="#888888"/>
<path d="M187.418 9.51C187.458 8.89 187.695 8.40667 188.128 8.06C188.568 7.71333 189.128 7.54 189.808 7.54C190.275 7.54 190.678 7.62333 191.018 7.79C191.358 7.95667 191.615 8.18333 191.788 8.47C191.961 8.75667 192.048 9.08 192.048 9.44C192.048 9.85333 191.938 10.2067 191.718 10.5C191.498 10.7933 191.235 10.99 190.928 11.09V11.13C191.321 11.25 191.628 11.47 191.848 11.79C192.068 12.1033 192.178 12.5067 192.178 13C192.178 13.3933 192.088 13.7433 191.908 14.05C191.728 14.3567 191.461 14.6 191.108 14.78C190.755 14.9533 190.331 15.04 189.838 15.04C189.118 15.04 188.525 14.8567 188.058 14.49C187.598 14.1167 187.351 13.5833 187.318 12.89H188.418C188.445 13.2433 188.581 13.5333 188.828 13.76C189.075 13.98 189.408 14.09 189.828 14.09C190.235 14.09 190.548 13.98 190.768 13.76C190.988 13.5333 191.098 13.2433 191.098 12.89C191.098 12.4233 190.948 12.0933 190.648 11.9C190.355 11.7 189.901 11.6 189.288 11.6H189.028V10.66H189.298C189.838 10.6533 190.248 10.5633 190.528 10.39C190.815 10.2167 190.958 9.94333 190.958 9.57C190.958 9.25 190.855 8.99667 190.648 8.81C190.441 8.61667 190.148 8.52 189.768 8.52C189.395 8.52 189.105 8.61667 188.898 8.81C188.691 8.99667 188.568 9.23 188.528 9.51H187.418Z" fill="#888888"/>
<path d="M193.236 13.48V12.62L196.596 7.8H197.976V12.49H198.906V13.48H197.976V15H196.856V13.48H193.236ZM196.906 8.96L194.546 12.49H196.906V8.96Z" fill="#888888"/>
<path d="M102.628 12C102.628 13.1046 101.727 14 100.615 14C99.504 14 98.603 13.1046 98.603 12C98.603 10.8954 99.504 10 100.615 10C101.727 10 102.628 10.8954 102.628 12Z" fill="#888888"/>
<path d="M112.018 12C112.018 13.1046 111.117 14 110.006 14C108.895 14 107.994 13.1046 107.994 12C107.994 10.8954 108.895 10 110.006 10C111.117 10 112.018 10.8954 112.018 12Z" fill="#888888"/>
<path d="M121.409 12C121.409 13.1046 120.508 14 119.397 14C118.286 14 117.385 13.1046 117.385 12C117.385 10.8954 118.286 10 119.397 10C120.508 10 121.409 10.8954 121.409 12Z" fill="#888888"/>
<path d="M130.8 12C130.8 13.1046 129.899 14 128.788 14C127.676 14 126.775 13.1046 126.775 12C126.775 10.8954 127.676 10 128.788 10C129.899 10 130.8 10.8954 130.8 12Z" fill="#888888"/>
<path d="M60.3692 12C60.3692 13.1046 59.4683 14 58.3569 14C57.2456 14 56.3446 13.1046 56.3446 12C56.3446 10.8954 57.2456 10 58.3569 10C59.4683 10 60.3692 10.8954 60.3692 12Z" fill="#888888"/>
<path d="M69.7603 12C69.7603 13.1046 68.8593 14 67.748 14C66.6366 14 65.7356 13.1046 65.7356 12C65.7356 10.8954 66.6366 10 67.748 10C68.8593 10 69.7603 10.8954 69.7603 12Z" fill="#888888"/>
<path d="M79.1505 12C79.1505 13.1046 78.2495 14 77.1381 14C76.0268 14 75.1258 13.1046 75.1258 12C75.1258 10.8954 76.0268 10 77.1381 10C78.2495 10 79.1505 10.8954 79.1505 12Z" fill="#888888"/>
<path d="M88.5415 12C88.5415 13.1046 87.6406 14 86.5292 14C85.4178 14 84.5169 13.1046 84.5169 12C84.5169 10.8954 85.4178 10 86.5292 10C87.6406 10 88.5415 10.8954 88.5415 12Z" fill="#888888"/>
<path fill-rule="evenodd" clip-rule="evenodd" d="M19.745 19.6392C21.8433 17.5576 23.1415 14.6795 23.1415 11.5C23.1415 8.32054 21.8433 5.44244 19.745 3.36076C21.1857 2.49732 22.8753 2 24.6842 2C29.9816 2 34.255 6.26485 34.255 11.5C34.255 16.7352 29.9816 21 24.6842 21C22.8753 21 21.1857 20.5027 19.745 19.6392ZM18.1275 20.9767C15.0988 18.9028 13.1134 15.4319 13.1134 11.5C13.1134 7.56815 15.0988 4.09716 18.1275 2.02328C18.7071 2.42013 19.2484 2.86815 19.745 3.36076C16.9666 5.02586 15.1134 8.05254 15.1134 11.5C15.1134 14.9475 16.9666 17.9741 19.745 19.6392C19.2484 20.1319 18.7071 20.5799 18.1275 20.9767ZM18.1275 20.9767C16.2638 22.2529 14.0051 23 11.5708 23C5.18041 23 0 17.8513 0 11.5C0 5.14873 5.18041 0 11.5708 0C14.0051 0 16.2638 0.747137 18.1275 2.02328C19.9912 0.747137 22.2499 0 24.6842 0C31.0746 0 36.255 5.14873 36.255 11.5C36.255 17.8513 31.0746 23 24.6842 23C22.2499 23 19.9912 22.2529 18.1275 20.9767Z" fill="#EB001B"/>
</svg>
