<svg width="22" height="22" viewBox="0 0 22 22" fill="none" xmlns="http://www.w3.org/2000/svg">
<path d="M13.7118 1.66506H5.96663C2.75738 1.66506 0.767442 3.93787 0.767442 7.14713V15.7604C0.767442 18.9697 2.71836 21.2327 5.96663 21.2327H15.1359C18.3452 21.2327 20.3351 18.9697 20.3351 15.7604V8.25915M5.52765 14.092L8.7174 9.94626L12.3559 12.8044L15.4773 8.77571M21.1645 2.8159C21.1645 3.94724 20.2474 4.86437 19.116 4.86437C17.9847 4.86437 17.0676 3.94724 17.0676 2.8159C17.0676 1.68457 17.9847 0.767442 19.116 0.767442C20.2474 0.767442 21.1645 1.68457 21.1645 2.8159Z" stroke="#AAAAAA" stroke-width="1.5" stroke-linecap="round" stroke-linejoin="round"/>
</svg>
