<svg width="20" height="20" viewBox="0 0 20 20" fill="none" xmlns="http://www.w3.org/2000/svg">
<path d="M0.330558 2.95878V5.9339L0.793355 6.281L1.23962 6.64463L1.28921 4.95873C1.32227 3.47117 1.37185 3.28935 1.61978 3.372C1.76853 3.42158 3.18998 3.83479 4.77671 4.29759C6.36344 4.76039 7.78489 5.20665 7.95017 5.30582C8.44602 5.57028 8.59478 6.03308 8.59478 7.38841C8.59478 8.6611 8.61131 8.67763 9.10716 8.95861L9.61954 9.25612L9.55343 6.23142C9.50384 3.00837 9.43773 2.76044 8.61131 2.26459C8.26421 2.06625 0.793355 0.000193591 0.413201 0.000193591C0.363615 0.000193591 0.330558 1.339 0.330558 2.95878Z" fill="#007348"/>
<path d="M0 8.84299V11.0743L0.545439 11.6363C1.00824 12.1487 1.37186 12.2974 3.80154 12.9586C8.37992 14.2147 8.99147 14.38 9.1237 14.38C9.20634 14.38 9.25593 13.4544 9.25593 12.3305C9.25593 10.4958 9.22287 10.2479 8.90883 9.85123C8.46256 9.28926 8.49562 9.28926 4.34698 8.16533C2.44621 7.65294 0.710723 7.09098 0.462796 6.92569L0 6.59512V8.84299Z" fill="#007348"/>
<path d="M18.9912 6.87611C18.8424 7.02486 16.9747 7.61989 14.859 8.19838C9.90052 9.55371 10.0823 9.38843 10.0823 12.314C10.0823 13.4544 10.1319 14.38 10.2146 14.38C10.6443 14.38 18.0821 12.2313 18.4292 11.9999C19.2721 11.4545 19.3548 11.1239 19.3052 8.77688C19.2556 6.76041 19.2391 6.61165 18.9912 6.87611Z" fill="#007348"/>
<path d="M0 14.4464C0 16.4299 0.0330569 16.6943 0.347097 17.091C0.52891 17.3224 0.826422 17.5868 0.991707 17.686C1.23963 17.8182 8.95842 20 9.18982 20C9.3551 20 9.2394 16.0166 9.05759 15.62C8.7766 14.9919 8.41298 14.8431 4.54532 13.8018C2.62802 13.2729 0.826422 12.711 0.545439 12.5457L0 12.2482V14.4464Z" fill="#007348"/>
<path d="M19.1234 12.3473C18.9581 12.6117 18.0325 12.9257 14.4624 13.9009C11.0079 14.843 10.793 14.9257 10.3798 15.4381C10.1319 15.7191 10.0823 16.1488 10.0823 17.9008C10.0823 19.8512 10.0988 20.0165 10.3798 19.9338C10.5286 19.8842 12.3302 19.4049 14.3797 18.8429C16.4292 18.281 18.2639 17.719 18.4622 17.5868C19.2556 17.0744 19.3548 16.7273 19.3052 14.3637C19.2721 13.1406 19.206 12.2316 19.1234 12.3473Z" fill="#007348"/>
</svg>
