<svg width="20" height="20" viewBox="0 0 20 20" fill="none" xmlns="http://www.w3.org/2000/svg">
<path d="M11.4551 19.3301C9.98634 19.5596 8.4842 19.4389 7.07092 18.9781C5.65764 18.5172 4.37315 17.7291 3.32201 16.678C2.27088 15.6269 1.48281 14.3424 1.02194 12.9291C0.561076 11.5158 0.440445 10.0137 0.669867 8.54494C0.0908793 7.44367 -0.120689 6.18607 0.0660844 4.95597C0.252858 3.72586 0.828181 2.58775 1.70796 1.70796C2.58775 0.828181 3.72586 0.252858 4.95597 0.0660844C6.18607 -0.120689 7.44367 0.0908793 8.54494 0.669867C10.0137 0.440445 11.5158 0.561076 12.9291 1.02194C14.3424 1.48281 15.6269 2.27088 16.678 3.32201C17.7291 4.37315 18.5172 5.65764 18.9781 7.07092C19.4389 8.4842 19.5596 9.98634 19.3301 11.4551C19.9091 12.5563 20.1207 13.8139 19.9339 15.044C19.7471 16.2741 19.1718 17.4123 18.292 18.292C17.4123 19.1718 16.2741 19.7471 15.044 19.9339C13.8139 20.1207 12.5563 19.9091 11.4551 19.3301ZM10.0578 15.7269H10.0133C13.2033 15.7269 14.7928 14.1875 14.7928 12.1248C14.7928 10.7942 14.1808 9.38021 11.765 8.83929L9.56237 8.35057C8.72377 8.15952 7.76077 7.90627 7.76077 7.1121C7.76077 6.31793 8.44942 5.76479 9.67567 5.76479C12.1526 5.76479 11.9271 7.46198 13.1534 7.46198C13.7931 7.46198 14.3674 7.08211 14.3674 6.429C14.3674 4.9073 11.9271 3.76325 9.86227 3.76325C7.61748 3.76325 5.22719 4.71737 5.22719 7.25539C5.22719 8.47497 5.66482 9.77674 8.07066 10.3799L11.0574 11.1252C11.9638 11.3495 12.1881 11.8571 12.1881 12.3159C12.1881 13.0789 11.4284 13.8242 10.0578 13.8242C7.37312 13.8242 7.74966 11.7616 6.31016 11.7616C5.66593 11.7616 5.19609 12.2037 5.19609 12.8401C5.19609 14.0775 6.6978 15.7258 10.0578 15.7258V15.7269Z" fill="#00AFF0"/>
</svg>
