<svg width="280" height="210" viewBox="0 0 280 210" fill="none" xmlns="http://www.w3.org/2000/svg">
<path d="M268.292 182.289C268.601 173.02 264.387 163.81 256.189 160.652C258.142 170.125 256.484 180.781 251.601 190.137C249.699 193.781 247.231 197.686 247.909 201.403C248.33 203.716 249.963 205.508 251.923 206.644C253.883 207.78 256.167 208.345 258.423 208.899L258.822 209.294C263.856 200.834 267.984 191.558 268.292 182.289Z" fill="#F2F2F2"/>
<path d="M256.076 160.825C260.186 166.605 262.283 174.015 261.828 181.637C261.761 183.325 261.442 184.992 260.881 186.584C260.263 188.18 259.28 189.607 258.012 190.751C256.84 191.85 255.532 192.855 254.609 194.187C254.153 194.837 253.832 195.573 253.665 196.351C253.498 197.129 253.489 197.933 253.638 198.715C253.982 200.567 254.992 202.089 256.036 203.535C257.195 205.141 258.427 206.787 258.699 208.895C258.732 209.15 259.135 209.027 259.102 208.773C258.63 205.106 255.473 202.974 254.325 199.659C253.789 198.112 253.741 196.326 254.718 194.72C255.573 193.315 256.921 192.278 258.116 191.174C259.369 190.07 260.372 188.71 261.059 187.184C261.696 185.616 262.077 183.955 262.188 182.266C262.484 178.62 262.189 174.95 261.316 171.4C260.378 167.491 258.706 163.799 256.391 160.522C256.249 160.322 255.935 160.627 256.076 160.825L256.076 160.825Z" fill="white"/>
<path d="M262.106 179.149C263.427 178.842 264.619 178.128 265.518 177.107C266.417 176.085 266.978 174.808 267.121 173.451C267.142 173.187 266.735 173.2 266.715 173.464C266.583 174.728 266.061 175.918 265.223 176.867C264.384 177.817 263.271 178.477 262.04 178.757C262.014 178.761 261.989 178.77 261.967 178.784C261.945 178.798 261.925 178.816 261.91 178.837C261.894 178.859 261.884 178.883 261.878 178.909C261.872 178.934 261.871 178.961 261.875 178.987C261.88 179.013 261.889 179.038 261.903 179.06C261.917 179.082 261.935 179.102 261.957 179.117C261.978 179.132 262.002 179.142 262.028 179.148C262.054 179.154 262.08 179.154 262.106 179.149V179.149Z" fill="white"/>
<path d="M258.669 190.263C257.652 189.552 256.796 188.633 256.157 187.566C255.519 186.498 255.112 185.307 254.963 184.07C254.93 183.815 254.526 183.937 254.56 184.192C254.717 185.479 255.143 186.718 255.81 187.827C256.477 188.936 257.37 189.89 258.431 190.626C258.633 190.765 258.871 190.401 258.669 190.263Z" fill="white"/>
<path d="M259.914 167.81C259.457 168.027 258.953 168.122 258.449 168.087C257.945 168.052 257.458 167.888 257.035 167.611C256.835 167.469 256.597 167.834 256.797 167.975C257.265 168.279 257.803 168.459 258.359 168.499C258.916 168.539 259.473 168.437 259.98 168.203C260.033 168.185 260.078 168.15 260.109 168.104C260.139 168.057 260.153 168.001 260.148 167.945C260.144 167.92 260.134 167.896 260.119 167.875C260.104 167.853 260.085 167.836 260.062 167.823C260.04 167.81 260.015 167.802 259.99 167.8C259.964 167.798 259.938 167.801 259.914 167.81Z" fill="white"/>
<path d="M227.205 176.722C227.327 176.814 227.449 176.907 227.571 177.003C229.203 178.253 230.717 179.655 232.09 181.189C232.198 181.305 232.306 181.426 232.41 181.546C235.7 185.33 238.164 189.767 239.643 194.57C240.249 196.529 240.696 198.534 240.978 200.565C241.374 203.398 241.573 206.534 242.866 208.868C242.998 209.112 243.146 209.347 243.31 209.571L258.239 209.826C258.276 209.809 258.312 209.796 258.349 209.779L258.94 209.817C258.933 209.709 258.923 209.598 258.916 209.49C258.912 209.427 258.905 209.365 258.901 209.302C258.897 209.26 258.893 209.218 258.893 209.18C258.891 209.166 258.89 209.152 258.888 209.142C258.887 209.104 258.883 209.069 258.881 209.034C258.828 208.411 258.771 207.788 258.708 207.164C258.708 207.161 258.708 207.161 258.705 207.157C258.217 202.411 257.322 197.719 255.72 193.416C255.672 193.287 255.624 193.154 255.569 193.024C254.842 191.104 253.942 189.254 252.88 187.499C252.3 186.55 251.666 185.635 250.98 184.759C249.207 182.503 247.043 180.589 244.592 179.108C239.685 176.139 233.658 174.93 227.662 176.59C227.509 176.633 227.358 176.676 227.205 176.722Z" fill="#F2F2F2"/>
<path d="M227.208 176.915C234.333 178.526 240.667 182.531 244.873 188.247C245.828 189.477 246.557 190.868 247.028 192.355C247.447 193.903 247.442 195.537 247.013 197.082C246.643 198.583 246.095 200.1 246.085 201.615C246.076 202.356 246.242 203.089 246.569 203.754C246.895 204.418 247.374 204.996 247.964 205.439C249.389 206.55 251.201 207.018 252.998 207.412C254.993 207.849 257.077 208.27 258.591 209.607C258.774 209.77 259.057 209.436 258.873 209.274C256.239 206.946 252.161 207.355 249.142 205.692C247.733 204.917 246.611 203.672 246.503 201.928C246.409 200.403 246.973 198.839 247.361 197.32C247.799 195.81 247.863 194.215 247.548 192.674C247.16 191.161 246.489 189.736 245.571 188.475C243.577 185.643 241.09 183.197 238.231 181.256C234.92 178.989 231.212 177.377 227.303 176.506C227.057 176.45 226.964 176.86 227.208 176.915Z" fill="white"/>
<path d="M243.614 186.302C245.619 184.261 246.036 181.207 244.599 179.17C244.458 178.969 244.107 179.227 244.249 179.428C245.594 181.337 245.193 184.154 243.319 186.062C243.122 186.263 243.418 186.502 243.614 186.302V186.302Z" fill="white"/>
<path d="M247.298 196.332C246.045 196.471 244.776 196.351 243.569 195.981C242.363 195.611 241.244 194.998 240.28 194.18C240.096 194.018 239.814 194.352 239.998 194.513C241.003 195.363 242.169 195.999 243.426 196.381C244.682 196.763 246.003 196.885 247.308 196.738C247.571 196.713 247.56 196.307 247.298 196.332L247.298 196.332Z" fill="white"/>
<path d="M234.822 179.552C234.523 180.002 234.13 180.381 233.669 180.66C233.209 180.94 232.693 181.114 232.158 181.17C231.895 181.191 231.906 181.597 232.167 181.575C232.758 181.511 233.328 181.318 233.837 181.01C234.347 180.702 234.783 180.286 235.117 179.792C235.153 179.752 235.173 179.701 235.172 179.647C235.17 179.594 235.149 179.543 235.111 179.505C235.066 179.474 235.011 179.462 234.957 179.471C234.903 179.48 234.855 179.509 234.822 179.552V179.552Z" fill="white"/>
<path d="M222.765 171.763C222.796 171.728 222.558 171.698 222.117 171.672V156.771H200.745V157.97H191.124C189.996 157.971 188.914 158.423 188.117 159.226C187.319 160.029 186.87 161.117 186.869 162.253V168.416C186.87 169.552 187.318 170.641 188.116 171.444C188.914 172.247 189.996 172.698 191.124 172.699L200.984 172.712L205.314 172.718H205.612L209.945 172.725L222.046 172.741H223.089C223.241 172.568 222.619 171.936 222.765 171.763Z" fill="#3F3D56"/>
<path d="M222.995 172.04C222.288 173.077 221.715 173.039 221.214 172.368C220.95 171.982 220.738 171.563 220.582 171.122C219.059 167.191 218.063 158.174 215.191 161.327C214.624 161.95 214.048 162.567 213.47 163.178C212.395 164.315 211.273 165.55 210.161 166.64C210.161 166.644 210.187 166.522 210.183 166.525C209.635 167.065 210.048 162.395 209.831 161.081C209.784 160.797 209.709 160.67 209.589 160.783C209.58 160.655 209.574 160.528 209.575 160.399C209.574 160.196 209.584 159.993 209.606 159.791C209.624 159.606 209.649 159.418 209.684 159.229L219.074 108.69C219.321 107.367 219.982 106.157 220.959 105.236C221.936 104.316 223.179 103.733 224.508 103.572C225.138 103.502 225.774 103.525 226.397 103.639L228.106 103.961C228.781 104.088 229.43 104.327 230.027 104.668L230.03 104.668C231.172 105.316 232.084 106.307 232.638 107.503C233.193 108.698 233.363 110.038 233.124 111.335L222.995 172.04Z" fill="#3F3D56"/>
<path d="M142.809 200.828L138.4 198.706L144.456 180.159L150.963 183.291L142.809 200.828Z" fill="#A0616A"/>
<path d="M172.364 197.838C172.044 198.04 171.723 198.239 171.399 198.438C170.755 198.836 170.104 199.227 169.453 199.611C169.126 199.804 168.796 199.996 168.469 200.185V200.195L168.449 200.198L168.443 200.201L167.944 200.325L167.228 198.422L166.898 197.545L166.432 196.303L165.577 194.031L161.076 182.07L168.073 180.333L168.336 181.411H168.339L168.469 181.946L170.913 191.926L171.412 193.966L171.428 194.028L171.729 195.247L171.988 196.303L172.277 197.483L172.364 197.838Z" fill="#A0616A"/>
<path d="M214.109 155.832C213.665 156.549 213.212 157.263 212.755 157.97C211.907 159.287 211.036 160.584 210.142 161.862C210.142 161.865 210.139 161.865 210.135 161.868C209.614 162.354 209.038 162.778 208.419 163.13C208.393 163.149 208.364 163.162 208.338 163.178C207.882 163.432 207.397 163.628 206.894 163.762C206.713 163.808 206.528 163.853 206.347 163.899C205.693 164.055 205.045 164.189 204.401 164.306C203.254 164.512 202.121 164.658 200.994 164.749C200.903 164.759 200.813 164.766 200.722 164.772C196.088 165.114 191.577 164.564 186.869 163.661C184.544 163.218 182.17 162.686 179.712 162.135C178.909 161.953 178.103 161.774 177.287 161.594C177.225 161.581 177.161 161.565 177.096 161.552C175.93 161.295 174.745 161.04 173.53 160.789C172.002 160.473 170.425 160.167 168.787 159.877L168.903 162.201C169 163.988 169.369 165.75 169.998 167.425C170.697 169.485 171.251 171.115 170.082 174.508L169.518 176.15C169.81 176.966 169.911 177.839 169.811 178.7C169.712 179.561 169.415 180.388 168.945 181.114L168.832 181.287L173.53 193.252L173.835 194.027H171.429L168.469 194.031H163.453L156.216 179.416L155.869 178.719V178.683L156.617 150.598C156.627 150.35 156.646 150.099 156.679 149.851C156.811 148.725 157.164 147.637 157.718 146.65C158.273 145.663 159.017 144.797 159.907 144.102C160.761 143.431 161.738 142.937 162.782 142.649C163.827 142.362 164.918 142.286 165.992 142.427L168.469 142.749L173.53 143.408L177.096 143.874L177.167 143.884L187.682 145.252L188.436 142.156L188.575 142.104L193.002 140.471L208.312 134.823L208.351 134.81L209.358 134.438L209.478 134.634C209.514 134.692 209.549 134.751 209.582 134.81C210.577 136.606 211.388 138.5 212.001 140.461C213.032 143.666 213.88 146.927 214.543 150.229C214.572 150.373 214.598 150.503 214.62 150.621L214.63 150.656C214.64 150.712 214.646 150.748 214.65 150.757C215.002 152.237 214.756 154.043 214.109 155.832Z" fill="#2F2E41"/>
<path d="M214.755 145.482C214.707 145.273 214.645 145.061 214.58 144.856C214.066 143.301 213.467 141.775 212.786 140.287C212.022 138.592 211.106 136.776 210.014 134.811C209.487 133.859 208.919 132.87 208.311 131.842C208.007 131.327 207.69 130.802 207.362 130.268C207.349 130.243 207.335 130.219 207.32 130.196L207.226 130.039L192.078 132.08L186.437 132.839L186.1 135.668L186.019 136.369C186.016 136.369 186.016 136.369 186.019 136.372L185.792 138.282V138.285L185.491 140.808L185.465 140.805L177.095 139.713L168.468 138.588L163.834 137.986C162.76 137.845 161.669 137.92 160.624 138.208C159.58 138.495 158.602 138.989 157.749 139.661C156.859 140.356 156.115 141.222 155.561 142.209C155.007 143.196 154.653 144.284 154.521 145.41C154.492 145.638 154.472 145.873 154.463 146.104L150.091 156.531C147.475 162.766 145.809 169.363 145.149 176.099L141.944 186.415L142.4 186.457L149.194 187.093L150.988 187.262L154.939 181.458C155.389 180.796 155.816 180.115 156.214 179.417C156.87 178.278 157.453 177.098 157.96 175.884L166.505 155.416C167.166 155.53 167.82 155.639 168.468 155.742C171.463 156.231 174.339 156.63 177.095 156.938C186.055 157.945 193.813 158.023 200.721 157.17C202.66 156.932 204.535 156.619 206.345 156.231C207.009 156.091 207.664 155.94 208.311 155.778C208.463 155.742 208.612 155.706 208.761 155.667C210.099 155.32 211.33 154.64 212.34 153.69C213.349 152.74 214.106 151.551 214.541 150.231C215.061 148.7 215.135 147.053 214.755 145.482Z" fill="#2F2E41"/>
<path d="M144.217 197.8L139.447 195.499L138.699 195.137L137.504 198.09L129.163 199.938C128.75 200.029 128.377 200.25 128.099 200.57C127.82 200.889 127.65 201.29 127.614 201.713C127.578 202.136 127.677 202.56 127.898 202.923C128.118 203.286 128.448 203.568 128.839 203.728L136.989 207.076L139.577 204.732L138.942 207.877L142.012 209.139L145.376 198.36L144.217 197.8Z" fill="#2F2E41"/>
<path d="M173.53 193.252L173.835 194.027H173.53V193.252Z" fill="#2F2E41"/>
<path d="M116.538 136.844C116.538 135.097 115.955 133.679 115.239 133.676H61.3261C60.6072 133.679 60.0276 135.097 60.0243 136.844V208.757C60.0244 208.919 59.9644 209.076 59.8561 209.196C59.7478 209.316 59.599 209.391 59.4386 209.407C58.915 209.457 58.3913 209.504 57.8677 209.548C57.8547 209.548 57.8418 209.551 57.8288 209.551C57.5438 209.577 57.2589 209.597 56.9739 209.62H56.9707C56.8241 209.347 56.6792 209.072 56.536 208.794C56.4876 208.701 56.4623 208.597 56.4623 208.491V132.734C56.4623 132.251 56.4817 131.766 56.5141 131.287C56.5603 130.629 56.6414 129.974 56.757 129.324C57.3042 126.297 58.5412 124.247 59.9466 124.24H116.616C116.821 124.241 117.023 124.285 117.211 124.367C117.488 124.49 117.737 124.666 117.947 124.885C118.231 125.182 118.473 125.517 118.669 125.879C119.362 127.108 119.857 128.94 120.032 131.071C120.032 131.091 120.035 131.111 120.035 131.13C120.081 131.658 120.103 132.196 120.1 132.734L120.145 139.718L120.174 143.884L120.262 156.953L120.294 161.594L120.437 209.245C120.437 209.418 120.368 209.584 120.247 209.706C120.126 209.828 119.961 209.897 119.789 209.897H117.186C117.014 209.897 116.849 209.828 116.728 209.706C116.606 209.584 116.538 209.418 116.538 209.245L116.538 136.844Z" fill="#3F3D56"/>
<path d="M78.1066 104.864L74.3564 121.471L71.9601 124.113H70.2312L77.3566 93.9174L77.7089 99.0471V99.0507L78.1066 104.864Z" fill="#3F3D56"/>
<path d="M96.1549 121.836L74.1543 121.696L72.2017 121.683L70.8093 121.673L69.1869 121.663H69.174C68.9386 121.664 68.713 121.757 68.5457 121.924L65.8062 124.681C65.7455 124.741 65.6962 124.812 65.6605 124.89C65.6434 124.912 65.6292 124.936 65.6184 124.962C65.5591 125.1 65.5346 125.251 65.547 125.402C65.5595 125.552 65.6085 125.697 65.6898 125.824C65.771 125.951 65.882 126.056 66.013 126.129C66.144 126.203 66.2909 126.243 66.4409 126.246H94.9405C95.1116 126.245 95.279 126.196 95.4233 126.104C95.5677 126.011 95.6833 125.88 95.7566 125.724L95.98 125.235L96.4398 124.241L96.9612 123.12C97.0169 123.001 97.0456 122.871 97.0454 122.739C97.0441 122.501 96.9501 122.273 96.7836 122.104C96.617 121.935 96.3913 121.839 96.1549 121.836Z" fill="#3F3D56"/>
<path opacity="0.17" d="M95.9802 125.234L95.7552 125.725C95.682 125.88 95.5668 126.011 95.4229 126.104C95.2789 126.196 95.112 126.245 94.9414 126.246H66.4407C66.2908 126.243 66.1439 126.203 66.0129 126.13C65.8819 126.057 65.771 125.952 65.6898 125.825C65.6086 125.698 65.5597 125.553 65.5474 125.403C65.5352 125.252 65.5599 125.101 65.6194 124.963C65.6294 124.937 65.6433 124.913 65.6606 124.891L95.9802 125.234Z" fill="black"/>
<path opacity="0.17" d="M77.7089 99.0471V99.0507L71.6074 124.113H70.2312L77.3566 93.9174L77.7089 99.0471Z" fill="black"/>
<path d="M85.1967 103.639L76.5603 37.5056C76.5287 37.2577 76.4006 37.0327 76.2041 36.8798L70.2587 29.39L69.7244 28.9761C69.5265 28.8253 69.2777 28.7586 69.0314 28.7903L68.1377 28.9109C67.8912 28.9429 67.6674 29.0721 67.5156 29.2702C67.3638 29.4682 67.2964 29.7188 67.3281 29.9669L76.2786 98.4898V98.493L76.8259 102.684L77.4767 107.661V107.668L78.4871 115.412C78.5032 115.545 78.5477 115.672 78.6176 115.786C78.6874 115.9 78.781 115.997 78.8919 116.07C79.0007 116.146 79.1243 116.197 79.2544 116.221C79.3845 116.244 79.5181 116.24 79.6464 116.207L80.213 116.064C80.4301 116.007 80.6205 115.876 80.7506 115.692L81.0032 115.33L81.1197 115.161L85.0315 104.308C85.1688 104.114 85.2278 103.875 85.1967 103.639Z" fill="#3F3D56"/>
<path opacity="0.17" d="M70.2571 29.3904L81.1206 115.162L81.0026 115.33L80.7509 115.691C80.621 115.875 80.4305 116.007 80.2132 116.063L79.6457 116.206C79.5172 116.239 79.3835 116.243 79.2532 116.219C79.123 116.196 78.9991 116.145 78.8897 116.07C78.7803 115.995 78.6879 115.898 78.6184 115.784C78.549 115.671 78.5041 115.544 78.4867 115.412L67.3294 29.968C67.2971 29.7199 67.3639 29.469 67.5153 29.2706C67.6667 29.0721 67.8902 28.9422 68.1367 28.9095L69.0328 28.791C69.1543 28.7744 69.278 28.7824 69.3964 28.8145C69.5149 28.8465 69.6259 28.902 69.7228 28.9776L70.2571 29.3904Z" fill="black"/>
<path d="M70.5776 31.8434L76.3427 40.1255L83.1947 92.6L79.4799 100.018L70.5776 31.8434Z" fill="#8982FF"/>
<path d="M194.475 209.351L190.521 209.426L201.51 171.006L205.464 172.235L194.475 209.351Z" fill="#3F3D56"/>
<path d="M220.404 209.424L216.453 209.349L205.611 172.718L205.463 172.236L207.998 171.447C208.5 171.457 209.021 171.464 209.559 171.47L209.944 172.725L220.404 209.424Z" fill="#3F3D56"/>
<path d="M171.87 194.193L166.872 195.936L166.087 196.209L167.302 199.153L162.667 206.374C162.437 206.731 162.327 207.152 162.353 207.576C162.378 208 162.537 208.405 162.808 208.732C163.078 209.058 163.445 209.289 163.855 209.391C164.265 209.493 164.697 209.46 165.087 209.297L173.218 205.903L173.419 202.406L175.166 205.09L178.229 203.812L173.085 193.771L171.87 194.193Z" fill="#2F2E41"/>
<path d="M141.534 86.3529C141.771 86.8176 142.107 87.2244 142.517 87.5445C142.927 87.8646 143.402 88.0904 143.908 88.2059C144.414 88.3213 144.939 88.3237 145.446 88.2128C145.953 88.102 146.43 87.8805 146.843 87.5641L157.353 94.5863L157.373 87.9884L147.389 82.3316C146.815 81.6687 146.02 81.2407 145.153 81.1289C144.286 81.0171 143.409 81.2291 142.687 81.7248C141.966 82.2204 141.45 82.9654 141.237 83.8184C141.025 84.6714 141.13 85.5732 141.534 86.3529V86.3529Z" fill="#A0616A"/>
<path d="M149.386 89.4026L154.289 83.788L174.255 95.7177L200.721 93.2782C202.03 93.1577 203.348 93.3285 204.584 93.7785C205.819 94.2285 206.94 94.9467 207.869 95.8822C208.797 96.8176 209.51 97.9472 209.956 99.191C210.402 100.435 210.57 101.762 210.449 103.079C210.228 105.456 209.078 107.649 207.253 109.175C205.428 110.701 203.076 111.435 200.713 111.218L170.905 108.441L149.386 89.4026Z" fill="#E6E6E6"/>
<path d="M210.814 89.4892L210.768 89.4311L198.259 88.1887L189.807 103.173C182.542 112.113 187.821 118.278 188.137 119.195L185.615 130.898L186.181 134.815L186.463 135.979L215.25 151.118L209.333 131.279L215.11 113.187C216.391 109.187 216.669 104.93 215.919 100.795C215.17 96.6604 213.416 92.7765 210.814 89.4892Z" fill="#E6E6E6"/>
<path d="M224.52 76.3026C224.526 76.4624 224.53 76.6221 224.53 76.7785C224.527 78.5047 224.118 80.2058 223.337 81.7426C222.557 83.2795 221.425 84.6086 220.036 85.6213C218.648 86.634 217.04 87.3016 215.346 87.5694C213.652 87.8373 211.918 87.6979 210.288 87.1625L208.29 86.5074C208.274 86.5009 208.254 86.4976 208.238 86.4911L204.945 85.409C204.934 85.269 204.936 85.1282 204.951 84.9886C200.039 82.8766 206.83 75.9376 208.517 70.726C208.779 69.9145 199.76 70.5207 200.188 69.8265C200.094 69.7776 200 69.7287 199.913 69.6798C201.436 67.2601 203.688 65.3939 206.34 64.3537C208.992 63.3135 211.905 63.1538 214.653 63.8979C214.724 63.9142 214.799 63.937 214.87 63.9565C221.269 64.1162 224.63 68.6043 224.63 74.4318C224.63 75.0571 224.593 75.6817 224.52 76.3026Z" fill="#2F2E41"/>
<path d="M218.976 78.5972C218.117 81.2437 216.25 83.4386 213.784 84.6994C211.318 85.9603 208.455 86.1839 205.826 85.3211C205.528 85.2233 205.236 85.1125 204.951 84.9887C202.558 83.9562 200.635 82.06 199.561 79.6728C198.486 77.2856 198.338 74.5801 199.145 72.0885C199.401 71.2951 199.751 70.5357 200.188 69.8266C201.528 67.6413 203.619 66.0267 206.062 65.2882C208.506 64.5497 211.134 64.7386 213.449 65.8192C215.764 66.8998 217.605 68.7971 218.623 71.1519C219.642 73.5067 219.767 76.1556 218.976 78.5972Z" fill="#A0616A"/>
<path d="M208.29 86.5074C208.274 86.5009 208.254 86.4977 208.238 86.4911L204.945 85.4091C204.934 85.269 204.936 85.1283 204.951 84.9886C205.049 83.8973 205.811 82.7544 206.832 81.5206C207.49 80.7315 207.947 79.7933 208.165 78.7867C208.382 77.7801 208.353 76.7355 208.08 75.7428C207.807 74.75 207.298 73.839 206.597 73.0883C205.897 72.3376 205.025 71.7697 204.058 71.4335C204.03 71.4236 204.002 71.4138 203.974 71.404C202.677 70.968 201.412 70.4409 200.188 69.8265C200.094 69.7776 200 69.7287 199.913 69.6798C199.09 69.2235 198.494 68.7672 198.232 68.3305C198.624 67.1197 199.25 65.9986 200.072 65.0311C200.895 64.0636 201.899 63.2688 203.027 62.6919C204.155 62.115 205.385 61.7674 206.646 61.669C207.908 61.5706 209.176 61.7233 210.379 62.1183L212.289 62.7441C214.699 63.5322 216.701 65.2475 217.859 67.5157C219.206 68.4869 220.268 69.9145 221.101 71.5995C225.284 80.0541 217.208 89.3886 208.29 86.5074Z" fill="#2F2E41"/>
<path d="M214.595 137.639C214.595 138.212 214.422 138.772 214.1 139.244C213.777 139.717 213.32 140.08 212.788 140.285C212.536 140.383 212.271 140.442 212.001 140.461C211.93 140.468 211.855 140.471 211.784 140.471H206.347V167.021C206.266 167.129 206.182 167.236 206.098 167.344C205.632 167.944 205.159 168.543 204.68 169.133C204.576 169.264 204.472 169.391 204.372 169.518C204.213 169.71 204.058 169.902 203.902 170.091C203.847 170.157 203.795 170.218 203.744 170.284C203.478 170.603 203.213 170.922 202.941 171.242V171.245C202.937 171.248 202.937 171.248 202.937 171.252L202.801 171.408C202.584 171.666 202.367 171.926 202.144 172.184C201.84 172.014 201.572 171.787 201.354 171.516C201.218 171.352 201.103 171.173 201.011 170.981C201.007 170.978 201.007 170.975 201.004 170.968C201 170.961 200.997 170.953 200.994 170.945C200.813 170.564 200.72 170.146 200.722 169.723V140.471H188.534C188.174 140.473 187.817 140.404 187.485 140.266C187.065 140.097 186.692 139.829 186.398 139.484C186.103 139.139 185.896 138.727 185.794 138.284V138.281C185.642 137.637 185.723 136.96 186.021 136.371C186.018 136.368 186.018 136.368 186.021 136.368C186.147 136.11 186.314 135.876 186.516 135.674V135.67C186.516 135.667 186.516 135.667 186.52 135.664C186.782 135.394 187.095 135.179 187.441 135.032C187.787 134.886 188.158 134.81 188.534 134.81H211.784C212.53 134.81 213.244 135.108 213.771 135.639C214.298 136.169 214.595 136.889 214.595 137.639Z" fill="#3F3D56"/>
<path d="M230.077 82.8413C228.939 82.6272 227.771 82.6407 226.638 82.8811C225.506 83.1214 224.432 83.5839 223.477 84.2421C222.522 84.9003 221.705 85.7414 221.074 86.7172C220.442 87.6931 220.007 88.7847 219.794 89.9297V89.9297C219.419 91.9523 219.754 94.0434 220.741 95.8449C221.729 97.6465 223.308 99.0465 225.208 99.8053L222.559 114.065L228.088 115.106L233.947 83.5698L230.077 82.8413Z" fill="#3F3D56"/>
<path d="M222.117 72.3558C224.621 72.3558 226.651 70.3129 226.651 67.7928C226.651 65.2728 224.621 63.2299 222.117 63.2299C219.613 63.2299 217.583 65.2728 217.583 67.7928C217.583 70.3129 219.613 72.3558 222.117 72.3558Z" fill="#2F2E41"/>
<path d="M274.966 80.8945C272.998 81.555 270.895 81.6674 268.822 81.7035C262.789 81.8085 256.603 81.2765 251.113 78.7586C245.622 76.2407 240.895 71.4557 239.674 65.5084C239.148 62.945 239.21 60.0899 237.605 58.0303C235.7 55.5859 231.873 55.2528 229.206 56.8173C226.54 58.3819 224.983 61.4266 224.53 64.4995L223.456 66.257C223.481 67.3886 224.698 68.1411 225.817 68.2472C226.937 68.3533 228.062 68.0428 229.184 68.1267C231.642 68.3107 233.645 70.4265 234.361 72.7998C235.078 75.1731 234.733 77.7402 234.12 80.1426C233.507 82.545 232.631 84.8886 232.281 87.3439C231.931 89.7992 232.169 92.4638 233.604 94.4801C234.681 95.9934 236.323 96.9968 237.992 97.7993C242.032 99.7422 246.458 100.737 250.936 100.709C255.414 100.682 259.827 99.6318 263.844 97.6389C267.86 95.646 271.375 92.762 274.124 89.204C276.873 85.646 278.784 81.5068 279.714 77.0978C278.774 78.9583 276.933 80.234 274.966 80.8945Z" fill="#2F2E41"/>
<path d="M187.925 177.383H178.692C178.184 177.382 177.693 177.198 177.31 176.862C176.926 176.527 176.676 176.064 176.605 175.558C176.035 171.335 176.035 167.054 176.605 162.831C176.675 162.331 176.921 161.873 177.297 161.538C177.673 161.204 178.155 161.015 178.656 161.006C181.562 159.696 184.69 159.696 187.957 161.006C188.262 161.01 188.561 161.081 188.835 161.214C189.109 161.347 189.351 161.539 189.544 161.776C189.745 162.023 189.888 162.312 189.964 162.621C190.041 162.931 190.047 163.253 189.984 163.566C189.242 167.281 189.242 171.108 189.984 174.823C190.047 175.135 190.041 175.458 189.964 175.768C189.888 176.077 189.745 176.366 189.544 176.613C189.348 176.854 189.101 177.048 188.821 177.181C188.541 177.315 188.235 177.383 187.925 177.383Z" fill="#8982FF"/>
<path d="M186.958 165.859H179.187C179.058 165.859 178.934 165.807 178.843 165.715C178.752 165.624 178.701 165.499 178.701 165.37C178.701 165.24 178.752 165.116 178.843 165.024C178.934 164.932 179.058 164.881 179.187 164.881H186.958C187.087 164.881 187.211 164.932 187.302 165.024C187.393 165.116 187.444 165.24 187.444 165.37C187.444 165.499 187.393 165.624 187.302 165.715C187.211 165.807 187.087 165.859 186.958 165.859Z" fill="white"/>
<path d="M186.958 169.77H179.187C179.058 169.77 178.934 169.718 178.843 169.626C178.752 169.535 178.701 169.41 178.701 169.281C178.701 169.151 178.752 169.027 178.843 168.935C178.934 168.843 179.058 168.792 179.187 168.792H186.958C187.087 168.792 187.211 168.843 187.302 168.935C187.393 169.027 187.444 169.151 187.444 169.281C187.444 169.41 187.393 169.535 187.302 169.626C187.211 169.718 187.087 169.77 186.958 169.77Z" fill="white"/>
<path d="M186.958 173.681H179.187C179.058 173.681 178.934 173.629 178.843 173.538C178.752 173.446 178.701 173.322 178.701 173.192C178.701 173.062 178.752 172.938 178.843 172.846C178.934 172.755 179.058 172.703 179.187 172.703H186.958C187.087 172.703 187.211 172.755 187.302 172.846C187.393 172.938 187.444 173.062 187.444 173.192C187.444 173.322 187.393 173.446 187.302 173.538C187.211 173.629 187.087 173.681 186.958 173.681Z" fill="white"/>
<path d="M77.5872 73.7897V73.7888C77.597 73.7095 77.6372 73.6372 77.6993 73.5873C77.7613 73.5374 77.8402 73.5139 77.9192 73.5217L127.879 73.6557C127.958 73.6483 128.036 73.6722 128.098 73.7222C128.16 73.7723 128.199 73.8445 128.209 73.9236V73.9246C128.199 74.0039 128.159 74.0762 128.097 74.126C128.035 74.1759 127.956 74.1994 127.877 74.1916L77.917 74.0576C77.8381 74.065 77.7596 74.0412 77.698 73.9911C77.6364 73.9411 77.5966 73.8688 77.5872 73.7897Z" fill="#3F3D56"/>
<path d="M90.7981 104.759L88.6767 107.108C88.5784 107.191 88.4583 107.244 88.3309 107.261C88.2034 107.277 88.0739 107.257 87.9577 107.202C87.6059 107.076 87.2929 106.86 87.0498 106.575C85.5338 104.843 83.8318 103.286 81.975 101.931C81.67 101.715 81.4267 101.422 81.2693 101.081C81.2054 100.971 81.1731 100.846 81.1759 100.719C81.1787 100.592 81.2165 100.468 81.2852 100.362C81.3063 99.0769 82.0254 98.2808 83.4228 97.9953C83.6678 97.7386 84.2213 97.8361 84.7174 98.2256C86.7581 99.8281 88.6759 101.583 90.4546 103.476C90.8914 103.941 91.0391 104.493 90.7981 104.759Z" fill="#8982FF"/>
<path d="M85.3459 99.7045L83.5605 101.681C83.4988 101.749 83.3502 101.714 83.2285 101.603C83.1067 101.491 83.058 101.346 83.1197 101.278L84.9051 99.3011C84.9668 99.2329 85.1154 99.2678 85.2371 99.3793C85.3589 99.4907 85.4076 99.6362 85.3459 99.7045Z" fill="white"/>
<path d="M87.1094 101.318L85.324 103.294C85.2623 103.363 85.1137 103.328 84.992 103.216C84.8702 103.105 84.8215 102.959 84.8832 102.891L86.6686 100.915C86.7303 100.846 86.8789 100.881 87.0006 100.993C87.1224 101.104 87.1711 101.25 87.1094 101.318Z" fill="white"/>
<path d="M88.8724 102.931L87.0869 104.908C87.0252 104.976 86.8766 104.941 86.7549 104.83C86.6331 104.718 86.5844 104.573 86.6461 104.504L88.4316 102.528C88.4932 102.46 88.6418 102.495 88.7635 102.606C88.8853 102.717 88.934 102.863 88.8724 102.931Z" fill="white"/>
<path d="M280 209.612C280 209.663 279.99 209.714 279.971 209.761C279.952 209.808 279.923 209.851 279.887 209.887C279.852 209.923 279.809 209.951 279.762 209.971C279.715 209.99 279.665 210 279.615 210H0.38535C0.283149 210 0.185133 209.959 0.112866 209.886C0.0405986 209.814 0 209.715 0 209.612C0 209.509 0.0405986 209.411 0.112866 209.338C0.185133 209.265 0.283149 209.224 0.38535 209.224H279.615C279.665 209.224 279.715 209.234 279.762 209.253C279.809 209.273 279.852 209.301 279.887 209.337C279.923 209.374 279.952 209.416 279.971 209.463C279.99 209.511 280 209.561 280 209.612Z" fill="#CCCCCC"/>
<path d="M190.63 165.503C191.077 165.237 191.461 164.876 191.754 164.445C192.047 164.014 192.243 163.524 192.327 163.008C192.412 162.493 192.383 161.965 192.243 161.462C192.103 160.959 191.855 160.494 191.517 160.097L197.858 149.121L191.313 149.493L186.295 159.859C185.671 160.475 185.294 161.3 185.235 162.177C185.175 163.055 185.437 163.923 185.972 164.619C186.506 165.315 187.276 165.789 188.134 165.952C188.993 166.115 189.881 165.955 190.63 165.503V165.503Z" fill="#A0616A"/>
<path d="M193.189 157.433L187.329 152.84L197.977 132.072L193.987 105.625C193.79 104.318 193.881 102.983 194.254 101.715C194.627 100.447 195.273 99.2778 196.146 98.2895C197.018 97.3011 198.096 96.5182 199.304 95.9964C200.511 95.4746 201.817 95.2266 203.13 95.2701C205.501 95.3514 207.744 96.3761 209.366 98.1196C210.987 99.863 211.856 102.183 211.78 104.57L210.794 134.683L193.189 157.433Z" fill="#E6E6E6"/>
<path d="M142.374 91.995H122.588C122.058 91.9944 121.55 91.7822 121.175 91.4048C120.8 91.0274 120.589 90.5157 120.588 89.982V63.6132C120.589 63.0795 120.8 62.5679 121.175 62.1905C121.55 61.8131 122.058 61.6008 122.588 61.6002H142.374C142.904 61.6008 143.413 61.8131 143.787 62.1905C144.162 62.5679 144.373 63.0795 144.374 63.6132V89.982C144.373 90.5157 144.162 91.0274 143.787 91.4048C143.413 91.7822 142.904 91.9944 142.374 91.995Z" fill="#E6E6E6"/>
<path d="M140.983 90.3173H123.979C123.508 90.3168 123.057 90.1283 122.724 89.7932C122.391 89.4581 122.204 89.0038 122.203 88.5299V65.0653C122.204 64.5914 122.391 64.1371 122.724 63.802C123.057 63.467 123.508 63.2785 123.979 63.278H140.983C141.454 63.2785 141.905 63.467 142.238 63.802C142.571 64.1371 142.758 64.5914 142.759 65.0653V88.5299C142.758 89.0038 142.571 89.4581 142.238 89.7932C141.905 90.1283 141.454 90.3168 140.983 90.3173Z" fill="white"/>
<path d="M139.287 67.7371H125.675C125.617 67.7373 125.559 67.7258 125.505 67.7035C125.451 67.6811 125.402 67.6482 125.361 67.6067C125.319 67.5652 125.287 67.5159 125.264 67.4616C125.242 67.4073 125.23 67.3491 125.23 67.2903C125.23 67.2315 125.242 67.1733 125.264 67.119C125.287 67.0648 125.319 67.0155 125.361 66.9739C125.402 66.9324 125.451 66.8995 125.505 66.8772C125.559 66.8548 125.617 66.8433 125.675 66.8435H139.287C139.345 66.8433 139.403 66.8548 139.457 66.8772C139.511 66.8995 139.56 66.9324 139.602 66.9739C139.643 67.0155 139.676 67.0648 139.698 67.119C139.721 67.1733 139.732 67.2315 139.732 67.2903C139.732 67.3491 139.721 67.4073 139.698 67.4616C139.676 67.5159 139.643 67.5652 139.602 67.6067C139.56 67.6482 139.511 67.6811 139.457 67.7035C139.403 67.7258 139.345 67.7373 139.287 67.7371Z" fill="#8982FF"/>
<path d="M139.287 69.5027H125.675C125.558 69.5027 125.445 69.4556 125.361 69.3718C125.278 69.288 125.231 69.1743 125.231 69.0558C125.231 68.9373 125.278 68.8237 125.361 68.7399C125.445 68.6561 125.558 68.609 125.675 68.609H139.287C139.345 68.609 139.403 68.6206 139.457 68.643C139.511 68.6655 139.56 68.6984 139.601 68.7399C139.642 68.7814 139.675 68.8306 139.697 68.8848C139.719 68.9391 139.731 68.9972 139.731 69.0558C139.731 69.1145 139.719 69.1726 139.697 69.2268C139.675 69.281 139.642 69.3303 139.601 69.3718C139.56 69.4133 139.511 69.4462 139.457 69.4687C139.403 69.4911 139.345 69.5027 139.287 69.5027Z" fill="#8982FF"/>
<path d="M131.576 71.2682H125.675C125.558 71.2682 125.445 71.2211 125.361 71.1373C125.278 71.0535 125.231 70.9398 125.231 70.8213C125.231 70.7028 125.278 70.5892 125.361 70.5054C125.445 70.4216 125.558 70.3745 125.675 70.3745H131.576C131.693 70.3745 131.806 70.4216 131.889 70.5054C131.973 70.5892 132.02 70.7028 132.02 70.8213C132.02 70.9398 131.973 71.0535 131.889 71.1373C131.806 71.2211 131.693 71.2682 131.576 71.2682Z" fill="#8982FF"/>
<path d="M139.287 74.9659H125.675C125.617 74.966 125.559 74.9546 125.505 74.9322C125.451 74.9098 125.402 74.8769 125.361 74.8354C125.319 74.7939 125.287 74.7446 125.264 74.6903C125.242 74.636 125.23 74.5779 125.23 74.5191C125.23 74.4603 125.242 74.4021 125.264 74.3478C125.287 74.2935 125.319 74.2442 125.361 74.2027C125.402 74.1612 125.451 74.1283 125.505 74.1059C125.559 74.0835 125.617 74.0721 125.675 74.0723H139.287C139.345 74.0721 139.403 74.0835 139.457 74.1059C139.511 74.1283 139.56 74.1612 139.602 74.2027C139.643 74.2442 139.676 74.2935 139.698 74.3478C139.721 74.4021 139.732 74.4603 139.732 74.5191C139.732 74.5779 139.721 74.636 139.698 74.6903C139.676 74.7446 139.643 74.7939 139.602 74.8354C139.56 74.8769 139.511 74.9098 139.457 74.9322C139.403 74.9546 139.345 74.966 139.287 74.9659Z" fill="#E4E4E4"/>
<path d="M139.287 76.7315H125.676C125.617 76.7317 125.559 76.7203 125.505 76.6979C125.451 76.6755 125.402 76.6426 125.361 76.6011C125.319 76.5596 125.287 76.5103 125.264 76.456C125.242 76.4017 125.23 76.3435 125.23 76.2847C125.23 76.2259 125.242 76.1677 125.264 76.1134C125.287 76.0591 125.319 76.0098 125.361 75.9683C125.402 75.9268 125.451 75.8939 125.505 75.8716C125.559 75.8492 125.617 75.8377 125.676 75.8379H139.287C139.346 75.8377 139.403 75.8492 139.457 75.8716C139.511 75.8939 139.56 75.9268 139.602 75.9683C139.643 76.0098 139.676 76.0591 139.698 76.1134C139.721 76.1677 139.732 76.2259 139.732 76.2847C139.732 76.3435 139.721 76.4017 139.698 76.456C139.676 76.5103 139.643 76.5596 139.602 76.6011C139.56 76.6426 139.511 76.6755 139.457 76.6979C139.403 76.7203 139.346 76.7317 139.287 76.7315Z" fill="#E4E4E4"/>
<path d="M131.576 78.4969H125.675C125.558 78.4969 125.445 78.4498 125.361 78.366C125.278 78.2823 125.231 78.1686 125.231 78.0501C125.231 77.9316 125.278 77.8179 125.361 77.7341C125.445 77.6503 125.558 77.6033 125.675 77.6033H131.576C131.693 77.6033 131.806 77.6503 131.889 77.7341C131.973 77.8179 132.02 77.9316 132.02 78.0501C132.02 78.1686 131.973 78.2823 131.889 78.366C131.806 78.4498 131.693 78.4969 131.576 78.4969Z" fill="#E4E4E4"/>
<path d="M139.287 82.1948H125.675C125.558 82.1948 125.445 82.1477 125.361 82.0639C125.278 81.9801 125.231 81.8665 125.231 81.748C125.231 81.6295 125.278 81.5158 125.361 81.432C125.445 81.3482 125.558 81.3011 125.675 81.3011H139.287C139.405 81.3011 139.518 81.3482 139.601 81.432C139.684 81.5158 139.731 81.6295 139.731 81.748C139.731 81.8665 139.684 81.9801 139.601 82.0639C139.518 82.1477 139.405 82.1948 139.287 82.1948Z" fill="#E4E4E4"/>
<path d="M139.287 83.9602H125.675C125.558 83.9602 125.445 83.9131 125.361 83.8293C125.278 83.7455 125.231 83.6319 125.231 83.5134C125.231 83.3948 125.278 83.2812 125.361 83.1974C125.445 83.1136 125.558 83.0665 125.675 83.0665H139.287C139.405 83.0665 139.518 83.1136 139.601 83.1974C139.684 83.2812 139.731 83.3948 139.731 83.5134C139.731 83.6319 139.684 83.7455 139.601 83.8293C139.518 83.9131 139.405 83.9602 139.287 83.9602Z" fill="#E4E4E4"/>
<path d="M131.576 85.7258H125.675C125.558 85.7258 125.445 85.6787 125.361 85.5949C125.278 85.5111 125.231 85.3975 125.231 85.279C125.231 85.1605 125.278 85.0468 125.361 84.963C125.445 84.8792 125.558 84.8322 125.675 84.8322H131.576C131.693 84.8322 131.806 84.8792 131.889 84.963C131.973 85.0468 132.02 85.1605 132.02 85.279C132.02 85.3975 131.973 85.5111 131.889 85.5949C131.806 85.6787 131.693 85.7258 131.576 85.7258Z" fill="#E4E4E4"/>
<path d="M75.0447 56.8609L128.124 11.165H128.208V11.8358H128.37L75.4783 57.3707L75.0447 56.8609Z" fill="#2F2E41"/>
<path d="M111.692 109.339H87.2862C86.9049 109.339 86.5394 109.492 86.2697 109.763C86.0001 110.035 85.8485 110.403 85.848 110.786V126.08C85.8485 126.464 86.0001 126.832 86.2697 127.103C86.5394 127.375 86.9049 127.527 87.2862 127.528H111.692C112.073 127.527 112.439 127.375 112.709 127.103C112.978 126.832 113.13 126.464 113.13 126.08V110.786C113.13 110.403 112.978 110.035 112.709 109.763C112.439 109.492 112.073 109.339 111.692 109.339Z" fill="white"/>
<path d="M111.692 109.339H87.2862C86.9049 109.339 86.5394 109.492 86.2697 109.763C86.0001 110.035 85.8485 110.403 85.848 110.786V126.08C85.8485 126.464 86.0001 126.832 86.2697 127.103C86.5394 127.375 86.9049 127.527 87.2862 127.528H111.692C112.073 127.527 112.439 127.375 112.709 127.103C112.978 126.832 113.13 126.464 113.13 126.08V110.786C113.13 110.403 112.978 110.035 112.709 109.763C112.439 109.492 112.073 109.339 111.692 109.339ZM112.164 120.325C112.158 121.882 111.546 123.374 110.46 124.482C109.373 125.59 107.898 126.226 106.351 126.252C103.875 126.284 107.722 126.297 104.735 126.297C97.9051 126.297 90.7836 126.231 88.1265 126.189C87.7769 126.182 87.4439 126.037 87.1988 125.786C86.9536 125.535 86.8156 125.198 86.8143 124.846V110.788C86.8144 110.662 86.8641 110.541 86.9525 110.451C87.041 110.362 87.1609 110.312 87.2861 110.311H111.691C111.816 110.312 111.936 110.362 112.025 110.451C112.114 110.54 112.164 110.66 112.164 110.786V120.325Z" fill="#CACACA"/>
<path d="M108.472 119.1H89.8774C89.7129 119.1 89.5524 119.048 89.418 118.953C89.2835 118.857 89.1816 118.723 89.1261 118.567L86.2543 110.457C86.2114 110.336 86.1981 110.207 86.2153 110.079C86.2326 109.952 86.2799 109.831 86.3535 109.726C86.427 109.621 86.5244 109.535 86.6377 109.475C86.751 109.416 86.8768 109.385 87.0044 109.385L111.943 109.34H111.944C112.076 109.34 112.206 109.373 112.322 109.436C112.438 109.499 112.537 109.59 112.61 109.701C112.683 109.812 112.727 109.94 112.738 110.072C112.75 110.204 112.729 110.337 112.677 110.459L112.634 110.441L112.677 110.459L109.205 118.613C109.144 118.758 109.042 118.881 108.911 118.967C108.781 119.054 108.628 119.1 108.472 119.1Z" fill="#CACACA"/>
<path d="M99.4751 121.1C100.572 121.1 101.462 120.204 101.462 119.1C101.462 117.995 100.572 117.1 99.4751 117.1C98.3778 117.1 97.4882 117.995 97.4882 119.1C97.4882 120.204 98.3778 121.1 99.4751 121.1Z" fill="#3F3D56"/>
<path d="M46.0254 199.601C45.6369 202.482 43.6907 205.083 41.1875 206.781C40.5911 207.187 39.9618 207.541 39.3061 207.84C38.5853 208.168 37.8417 208.442 37.0815 208.662C33.7461 209.643 30.1419 209.685 26.6349 209.705C23.0891 209.727 19.5443 209.75 16.0006 209.773C13.206 209.789 10.3207 209.789 7.73986 208.711C7.70127 208.696 7.66344 208.68 7.62652 208.662C5.09099 207.56 2.93109 205.138 2.99262 202.368C3.01735 201.392 3.29172 200.439 3.78922 199.601C4.11854 199.038 4.51432 198.517 4.96793 198.049C6.37332 196.583 8.32274 195.432 10.1491 194.507C13.1607 192.985 16.564 191.009 17.4448 187.881C17.5378 187.551 17.6007 187.214 17.6326 186.873C17.8399 184.722 16.8004 182.744 15.476 180.974C15.3465 180.798 15.2105 180.622 15.0712 180.446C14.7733 180.071 14.4657 179.703 14.1613 179.351C14.0317 179.201 13.9022 179.048 13.7694 178.895C12.5454 177.467 11.3116 175.942 10.6672 174.237C10.3898 173.524 10.2354 172.767 10.2106 172.001C10.1394 169.234 13.2125 166.448 15.5375 167.755C16.6774 167.644 17.8172 167.53 18.9571 167.412C20.356 167.272 21.7484 167.132 23.1441 166.989H23.1474C23.4615 166.963 23.7691 166.93 24.0767 166.897C26.9814 166.607 29.8839 166.315 32.7843 166.021C34.0731 165.893 35.5886 165.845 36.4273 166.842C37.3405 167.931 36.8677 169.651 35.9643 170.75C35.0608 171.845 33.8076 172.621 32.9592 173.755C31.8614 175.222 31.6056 177.076 31.9197 178.895C32.0107 179.423 32.1472 179.942 32.3277 180.446C32.6448 181.347 33.0839 182.199 33.6327 182.979C35.5368 185.664 38.3573 187.515 40.8605 189.644C43.3669 191.775 45.7113 194.481 46.0546 197.759C46.0643 197.854 46.074 197.952 46.0773 198.049C46.1136 198.567 46.0962 199.087 46.0254 199.601Z" fill="#E6E6E6"/>
<path d="M25.6605 169.757C23.1337 167.245 20.9814 164.377 19.2706 161.245C17.5649 158.128 16.3051 154.784 15.5284 151.313C14.741 147.79 14.4802 144.168 14.7547 140.568C15.3237 133.235 18.0159 126.23 22.4981 120.421C22.7718 120.068 23.052 119.72 23.3388 119.377C23.6586 118.994 24.2019 119.546 23.8844 119.926C19.3105 125.446 16.4449 132.195 15.6423 139.337C15.0618 144.795 15.71 150.314 17.5388 155.485C19.3675 160.657 22.3299 165.347 26.206 169.208C26.5601 169.559 26.0145 170.108 25.6605 169.757V169.757Z" fill="#E6E6E6"/>
<path d="M22.1874 121.08C22.4997 120.963 22.8056 120.829 23.1037 120.678C23.1187 120.701 23.1335 120.725 23.1485 120.749L22.1874 121.08Z" fill="#E6E6E6"/>
<path d="M28.1436 114.231C28.0173 114.942 27.7894 115.632 27.4668 116.278C26.5762 118.078 25.1575 119.559 23.4028 120.521C23.3057 120.573 23.2053 120.629 23.1049 120.678C22.9851 120.489 22.862 120.3 22.7455 120.111C21.919 118.872 21.3079 117.501 20.9385 116.056C20.5629 114.358 20.7669 112.451 21.8485 111.092C22.9268 109.733 24.9863 109.124 26.4791 110.004C26.9102 110.263 27.2759 110.618 27.5478 111.043C27.3988 111.229 27.2498 111.411 27.1009 111.597C27.0878 111.614 27.0737 111.631 27.0588 111.646C26.9293 111.809 26.7965 111.969 26.667 112.132C26.1262 112.8 25.5886 113.471 25.0479 114.136C25.8101 114.277 26.5857 114.331 27.3599 114.296C27.4215 114.293 27.4862 114.289 27.5478 114.286C27.7453 114.273 27.9461 114.257 28.1436 114.231Z" fill="#E6E6E6"/>
<path d="M17.2213 127.597L17.0141 130.315L16.959 131.052C16.9007 131.023 16.8392 130.993 16.7809 130.964C14.7667 129.958 12.9891 128.53 11.5667 126.777C10.1444 125.024 9.11019 122.986 8.53314 120.798C8.34021 120.039 8.2049 119.267 8.12836 118.487C9.17754 118.324 10.23 118.158 11.2792 117.995C10.4297 116.883 9.36571 115.955 8.15103 115.267C8.42801 112.547 9.40459 109.947 10.9845 107.722C11.2565 112.279 15.9973 115.176 17.7329 119.39C18.2654 120.709 18.4959 122.132 18.4074 123.552C18.3188 124.973 17.9134 126.356 17.2213 127.597Z" fill="#E6E6E6"/>
<path d="M16.3213 151.471C16.0687 151.484 15.8162 151.491 15.5668 151.487C13.4119 151.474 11.2824 151.017 9.30896 150.146C7.33554 149.274 5.55978 148.006 4.09055 146.419C2.90121 145.108 1.94492 143.601 1.26357 141.964C1.28624 141.961 1.30567 141.957 1.32834 141.954C2.37752 141.791 3.42995 141.625 4.47914 141.462C3.36483 140.001 1.88383 138.864 0.188485 138.17C-0.0407987 136.697 -0.0582494 135.199 0.136672 133.721C2.50706 137.609 8.04767 137.922 11.5482 140.817C13.2176 142.217 14.3557 144.155 14.7702 146.302C14.8736 146.833 14.9288 147.371 14.9354 147.912C14.9386 148.042 14.9386 148.17 14.9354 148.297L15.0131 148.473L16.3213 151.471Z" fill="#E6E6E6"/>
<path d="M26.7351 155.972C26.0648 156.8 25.3945 157.634 24.7242 158.462C25.5483 158.615 26.3878 158.665 27.2241 158.612C26.4815 161.289 25.0558 163.724 23.0888 165.675C22.9043 165.858 22.7132 166.037 22.5189 166.206C22.4801 166.242 22.438 166.278 22.3991 166.314L22.2242 165.815L22.221 165.812L21.2301 163.051C19.9729 161.779 19.1023 160.173 18.7205 158.42V158.413C18.4882 157.387 18.4345 156.329 18.5618 155.284C19.1155 150.757 22.9172 146.687 21.9717 142.225C24.0551 143.923 25.6716 146.13 26.6671 148.636C26.1263 149.304 25.5888 149.975 25.048 150.64C25.8102 150.781 26.5859 150.835 27.3601 150.8C27.6313 151.903 27.779 153.033 27.8005 154.17C27.8037 154.333 27.8037 154.492 27.8005 154.655C27.4605 155.079 27.1172 155.5 26.7772 155.923C26.7641 155.94 26.75 155.957 26.7351 155.972Z" fill="#E6E6E6"/>
<path d="M145.288 22.2467H125.502C124.972 22.2461 124.464 22.0338 124.089 21.6564C123.714 21.279 123.503 20.7674 123.502 20.2336V2.01303C123.503 1.47932 123.714 0.967655 124.089 0.59027C124.464 0.212885 124.972 0.000605578 125.502 0H145.288C145.818 0.000602991 146.327 0.212884 146.702 0.59027C147.077 0.967655 147.288 1.47932 147.288 2.01303V20.2336C147.288 20.7674 147.077 21.279 146.702 21.6564C146.327 22.0338 145.818 22.2461 145.288 22.2467Z" fill="#E6E6E6"/>
<path d="M143.898 20.5689H126.894C126.423 20.5684 125.971 20.3799 125.639 20.0448C125.306 19.7097 125.118 19.2554 125.118 18.7816V3.46508C125.118 2.99121 125.306 2.5369 125.639 2.20183C125.971 1.86675 126.423 1.67827 126.894 1.67773H143.898C144.369 1.67827 144.82 1.86675 145.153 2.20183C145.486 2.5369 145.673 2.99121 145.674 3.46508V18.7816C145.673 19.2554 145.486 19.7097 145.153 20.0448C144.82 20.3799 144.369 20.5684 143.898 20.5689Z" fill="white"/>
<path d="M142.202 6.13702H128.59C128.532 6.13718 128.474 6.12574 128.42 6.10335C128.366 6.08097 128.317 6.04808 128.275 6.00658C128.234 5.96507 128.201 5.91576 128.179 5.86148C128.157 5.80719 128.145 5.74899 128.145 5.69021C128.145 5.63143 128.157 5.57324 128.179 5.51895C128.201 5.46466 128.234 5.41535 128.275 5.37385C128.317 5.33234 128.366 5.29946 128.42 5.27707C128.474 5.25469 128.532 5.24325 128.59 5.24341H142.202C142.26 5.24325 142.318 5.25469 142.372 5.27707C142.426 5.29946 142.475 5.33234 142.516 5.37385C142.558 5.41535 142.591 5.46466 142.613 5.51895C142.635 5.57324 142.647 5.63143 142.647 5.69021C142.647 5.74899 142.635 5.80719 142.613 5.86148C142.591 5.91576 142.558 5.96507 142.516 6.00658C142.475 6.04808 142.426 6.08097 142.372 6.10335C142.318 6.12574 142.26 6.13718 142.202 6.13702Z" fill="#8982FF"/>
<path d="M142.202 7.90244H128.59C128.472 7.90244 128.359 7.85536 128.276 7.77157C128.193 7.68777 128.146 7.57412 128.146 7.45562C128.146 7.33711 128.193 7.22346 128.276 7.13966C128.359 7.05586 128.472 7.00879 128.59 7.00879H142.202C142.319 7.00879 142.432 7.05586 142.515 7.13966C142.599 7.22346 142.645 7.33711 142.645 7.45562C142.645 7.57412 142.599 7.68777 142.515 7.77157C142.432 7.85536 142.319 7.90244 142.202 7.90244Z" fill="#8982FF"/>
<path d="M134.49 9.66807H128.59C128.472 9.66807 128.359 9.62099 128.276 9.5372C128.193 9.4534 128.146 9.33975 128.146 9.22124C128.146 9.10273 128.193 8.98909 128.276 8.90529C128.359 8.82149 128.472 8.77441 128.59 8.77441H134.49C134.608 8.77441 134.721 8.82149 134.804 8.90529C134.887 8.98909 134.934 9.10273 134.934 9.22124C134.934 9.33975 134.887 9.4534 134.804 9.5372C134.721 9.62099 134.608 9.66807 134.49 9.66807Z" fill="#8982FF"/>
<path d="M142.202 13.3658H128.59C128.532 13.3659 128.474 13.3545 128.42 13.3321C128.366 13.3097 128.317 13.2768 128.275 13.2353C128.234 13.1938 128.201 13.1445 128.179 13.0902C128.157 13.0359 128.145 12.9777 128.145 12.919C128.145 12.8602 128.157 12.802 128.179 12.7477C128.201 12.6934 128.234 12.6441 128.275 12.6026C128.317 12.5611 128.366 12.5282 128.42 12.5058C128.474 12.4835 128.532 12.472 128.59 12.4722H142.202C142.26 12.472 142.318 12.4835 142.372 12.5058C142.426 12.5282 142.475 12.5611 142.516 12.6026C142.558 12.6441 142.591 12.6934 142.613 12.7477C142.635 12.802 142.647 12.8602 142.647 12.919C142.647 12.9777 142.635 13.0359 142.613 13.0902C142.591 13.1445 142.558 13.1938 142.516 13.2353C142.475 13.2768 142.426 13.3097 142.372 13.3321C142.318 13.3545 142.26 13.3659 142.202 13.3658Z" fill="#E4E4E4"/>
<path d="M142.202 15.1313H128.59C128.532 15.1315 128.474 15.12 128.42 15.0977C128.366 15.0753 128.317 15.0424 128.275 15.0009C128.234 14.9594 128.201 14.9101 128.179 14.8558C128.157 14.8015 128.145 14.7433 128.145 14.6845C128.145 14.6257 128.157 14.5675 128.179 14.5132C128.201 14.4589 128.234 14.4096 128.275 14.3681C128.317 14.3266 128.366 14.2937 128.42 14.2713C128.474 14.249 128.532 14.2375 128.59 14.2377H142.202C142.26 14.2375 142.318 14.249 142.372 14.2713C142.426 14.2937 142.475 14.3266 142.516 14.3681C142.558 14.4096 142.591 14.4589 142.613 14.5132C142.635 14.5675 142.647 14.6257 142.647 14.6845C142.647 14.7433 142.635 14.8015 142.613 14.8558C142.591 14.9101 142.558 14.9594 142.516 15.0009C142.475 15.0424 142.426 15.0753 142.372 15.0977C142.318 15.12 142.26 15.1315 142.202 15.1313Z" fill="#E4E4E4"/>
<path d="M134.49 16.8968H128.59C128.472 16.8968 128.359 16.8498 128.276 16.766C128.193 16.6822 128.146 16.5685 128.146 16.45C128.146 16.3315 128.193 16.2178 128.276 16.134C128.359 16.0503 128.472 16.0032 128.59 16.0032H134.49C134.608 16.0032 134.721 16.0503 134.804 16.134C134.887 16.2178 134.934 16.3315 134.934 16.45C134.934 16.5685 134.887 16.6822 134.804 16.766C134.721 16.8498 134.608 16.8968 134.49 16.8968Z" fill="#E4E4E4"/>
</svg>
