<svg width="19" height="15" viewBox="0 0 19 15" fill="none" xmlns="http://www.w3.org/2000/svg">
<path d="M1.66667 2.08333V0.8275C1.66819 0.608648 1.75575 0.399181 1.91043 0.244348C2.0651 0.0895149 2.27448 0.00174554 2.49333 0H17.5067C17.9633 0 18.3333 0.370833 18.3333 0.8275V14.1725C18.3318 14.3914 18.2443 14.6008 18.0896 14.7557C17.9349 14.9105 17.7255 14.9983 17.5067 15H2.49333C2.27401 14.9998 2.06375 14.9125 1.90874 14.7573C1.75374 14.6022 1.66667 14.3918 1.66667 14.1725V13.3333H16.6667V3.58333L10 9.58333L1.66667 2.08333ZM0 5.83333H4.16667V7.5H0V5.83333ZM0 10H6.66667V11.6667H0V10Z" fill="#8982FF"/>
</svg>
